<svg viewBox="0 0 526 240" xmlns="http://www.w3.org/2000/svg" fill-rule="evenodd" clip-rule="evenodd" stroke-linejoin="round" stroke-miterlimit="2" width="526" height="240"><g><g><g><path d="M8.395 213.47H-.001v-42.726l8.396-10.441v53.166z" fill="#fff" fill-rule="nonzero"/></g></g><g><g><path d="M94.178 189.003c-12.47 0-16.696-4.755-16.696-14.33 0-7.304 6.054-14.42 19.68-14.42 11.75 0 18.741.012 18.741.012l-6.342 7.721s-6.179-.033-12.4-.033c-6.716 0-10.391 2.95-10.391 6.9 0 3.658.579 6.833 7.316 6.833" fill="#fff" fill-rule="nonzero"/></g></g><g><g><path d="M144.461 212.306s-.158-.025-.233-.042c-8.27-1.433-13.596-8.013-13.596-18.442v-25.766h-6.912l15.204-19.213v11.213h11.554l-6.492 8h-5.062v25.766c0 8.992 5.533 11.267 11.75 10.867l-6.213 7.617z" fill="#fff" fill-rule="nonzero"/></g></g><g><g><path d="M198.37 181.682c-2.071-8.3-8.984-13.825-16.392-13.825-7.012 0-14.417 5.134-16.592 13.825h32.984zm4.45 22.217s-.038.054-.054.08c-4.5 6.207-11.55 9.595-20.292 9.595-14.617 0-26.071-11.654-26.071-26.563 0-14.712 11.454-26.762 25.575-26.762 13.138 0 25.775 10.867 25.675 28.937h-42.758c1.087 10.567 9.183 16.788 17.579 16.788 6.279 0 10.987-2.625 13.925-7.22.012-.022.033-.055.033-.055l6.388 5.2z" fill="#fff" fill-rule="nonzero"/></g></g><g><g><path d="M259.89 203.48l-.066.092c-4.475 6.225-11.663 10.004-20.18 10.004-14.02 0-25.478-11.85-25.478-26.563 0-14.712 11.458-26.762 25.479-26.762 8.446 0 15.533 3.717 20.029 9.846l.162.233s-5.541 6.788-5.57 6.73c-.017-.034-.034-.059-.05-.092-2.892-5.384-8.063-9.013-14.571-9.013-9.384 0-17.084 8.592-17.084 19.058 0 10.471 7.7 18.863 17.084 18.863 6.008 0 10.829-3.004 13.758-7.604.02-.034.063-.096.063-.096l6.425 5.304z" fill="#fff" fill-rule="nonzero"/></g></g><g><g><path d="M44.636 167.953c8.092 0 12.438 5.73 12.438 13.525v32.188h8.296v-31.892c0-12.637-7.109-21.525-19.555-21.525h-3.237c-12.438 0-19.55 8.888-19.55 21.525v31.696h8.296v-31.992c0-7.645 4.187-13.279 11.975-13.504l1.337-.02z" fill="#fff" fill-rule="nonzero"/></g></g><g><g><path d="M101.399 181.654c9.141.062 16.091 4.612 16.091 15.908 0 8.863-6.308 15.784-19.937 15.784-11.75 0-18.983.154-18.983.154l.112-7.959s12.65.109 18.87.109c6.713 0 10.65-3.471 10.65-8.275 0-4.309-2.428-8.284-8.074-8.284l-5.95-.087-1.367-7.288 8.588-.062z" fill="#fff" fill-rule="nonzero"/></g></g><g><g><path d="M.112-.058h.565v.116h-.709l.144-.116z" fill="url(#_Linear1)" fill-rule="nonzero" transform="matrix(0 75.07756 75.07756 0 340.44 161.615)"/></g></g><g><g><path d="M.156-.058h.565v.116H.012l.144-.116z" fill="url(#_Linear2)" fill-rule="nonzero" transform="matrix(0 75.07756 75.07756 0 410.324 158.308)"/></g></g><g><g><path d="M-.356-.308l.637-.03c.199-.01.362.129.371.32a.342.342 0 01-.338.356.342.342 0 01-.37-.319.304.304 0 01.103-.239l-.474.023.071-.111zm.643.079c-.14.007-.247.116-.241.24.006.126.121.223.262.216C.45.22.555.113.549-.013.543-.136.427-.235.287-.229z" fill="url(#_Linear3)" fill-rule="nonzero" transform="scale(75.07748 -75.07748) rotate(-87.288 .861 -3.189)"/></g></g><g><g><path d="M.405-.338a.34.34 0 01.369.319.3.3 0 01-.102.239l.473-.023-.128.114-.58.027C.238.348.076.209.067.018a.342.342 0 01.338-.356zm.005.111C.269-.22.164-.113.17.013c.006.123.122.222.262.215.14-.006.246-.115.241-.239C.667-.137.552-.234.41-.227z" fill="url(#_Linear4)" fill-rule="nonzero" transform="scale(75.07748 -75.07748) rotate(-87.288 2.242 -4.505)"/></g></g><g><g><path d="M-.031-.099l.467-.022c.138-.007.23.058.258.165H.693l-.099.09C.59.053.553-.013.437-.008l-.604.029.136-.12z" fill="url(#_Linear5)" fill-rule="nonzero" transform="scale(75.07748 -75.07748) rotate(-87.288 1.289 -3.596)"/></g></g><g><g><path d="M-.016-.099l.467-.022c.139-.007.23.058.258.165v.001l-.1.089C.606.053.569-.013.453-.008l-.604.029.135-.12z" fill="url(#_Linear6)" fill-rule="nonzero" transform="scale(75.07748 -75.07748) rotate(-87.288 1.463 -3.762)"/></g></g><g><g><path d="M.031-.006C.023-.171.137-.271.305-.279l.421-.02.005.11-.425.02c-.102.005-.174.064-.172.168l.001.018C.14.124.219.179.322.174L.75.153l.005.111-.424.02C.163.292.041.203.033.037L.031-.006z" fill="url(#_Linear7)" fill-rule="nonzero" transform="scale(75.07748 -75.07748) rotate(-87.288 1.858 -4.14)"/></g></g><g><g><path d="M1.04.997L-.079.359.376-.997 1.04.997z" fill="url(#_Linear8)" fill-rule="nonzero" transform="scale(-62.93395 62.93395) rotate(20.276 -4.692 -13.25)"/></g></g><g><g><path d="M1.878.212L.026.21l.309-.422 1.543.424z" fill="url(#_Linear9)" fill-rule="nonzero" transform="scale(-50.67803 50.67803) rotate(34.587 -5.55 -10.086)"/></g></g><g><g><path d="M-2.819 1.078h2.224l1.562.46-3.07-3.293-.716 2.833z" fill="url(#_Linear10)" fill-rule="nonzero" transform="scale(20.83925 -20.83925) rotate(-12.349 -15.83 -73.12)"/></g></g><g><g><path d="M.5-.197l.5.16-1 .234.5-.394z" fill="url(#_Linear11)" fill-rule="nonzero" transform="scale(-91.36835 91.36835) rotate(47.789 -2.639 -3.73)"/></g></g><g><g><path d="M-.139-.311l1.151.224-.031.398-1.12-.622z" fill="url(#_Linear12)" fill-rule="nonzero" transform="scale(120.12058 -120.12058) rotate(-29.021 -.337 -2.942)"/></g></g></g><defs><linearGradient id="_Linear1" x1="0" y1="0" x2="1" y2="0" gradientUnits="userSpaceOnUse" gradientTransform="scale(1 -1) rotate(-2.712 .324 0)"><stop offset="0" stop-color="#298b6b"/><stop offset="1" stop-color="#269044"/></linearGradient><linearGradient id="_Linear2" x1="0" y1="0" x2="1" y2="0" gradientUnits="userSpaceOnUse" gradientTransform="scale(1 -1) rotate(-2.712 .369 0)"><stop offset="0" stop-color="#298b6b"/><stop offset="1" stop-color="#269044"/></linearGradient><linearGradient id="_Linear3" x1="0" y1="0" x2="1" y2="0" gradientUnits="userSpaceOnUse" gradientTransform="matrix(1 0 0 -1 0 0)"><stop offset="0" stop-color="#298b6b"/><stop offset="1" stop-color="#269044"/></linearGradient><linearGradient id="_Linear4" x1="0" y1="0" x2="1" y2="0" gradientUnits="userSpaceOnUse" gradientTransform="matrix(1 0 0 -1 0 0)"><stop offset="0" stop-color="#298b6b"/><stop offset="1" stop-color="#269044"/></linearGradient><linearGradient id="_Linear5" x1="0" y1="0" x2="1" y2="0" gradientUnits="userSpaceOnUse" gradientTransform="matrix(1 0 0 -1 0 .006)"><stop offset="0" stop-color="#298b6b"/><stop offset="1" stop-color="#269044"/></linearGradient><linearGradient id="_Linear6" x1="0" y1="0" x2="1" y2="0" gradientUnits="userSpaceOnUse" gradientTransform="matrix(1 0 0 -1 0 .006)"><stop offset="0" stop-color="#298b6b"/><stop offset="1" stop-color="#269044"/></linearGradient><linearGradient id="_Linear7" x1="0" y1="0" x2="1" y2="0" gradientUnits="userSpaceOnUse" gradientTransform="matrix(1 0 0 -1 0 -.008)"><stop offset="0" stop-color="#298b6b"/><stop offset="1" stop-color="#269044"/></linearGradient><linearGradient id="_Linear8" x1="0" y1="0" x2="1" y2="0" gradientUnits="userSpaceOnUse" gradientTransform="matrix(1 0 0 -1 0 0)"><stop offset="0" stop-color="#298b6b"/><stop offset="1" stop-color="#6cc5a5"/></linearGradient><linearGradient id="_Linear9" x1="0" y1="0" x2="1" y2="0" gradientUnits="userSpaceOnUse" gradientTransform="matrix(1 0 0 -1 0 0)"><stop offset="0" stop-color="#298b6b"/><stop offset="1" stop-color="#6cc5a5"/></linearGradient><linearGradient id="_Linear10" x1="0" y1="0" x2="1" y2="0" gradientUnits="userSpaceOnUse" gradientTransform="scale(-1 1) rotate(79.249 0 .819)"><stop offset="0" stop-color="#0e632b"/><stop offset="1" stop-color="#6cc5a5"/><stop offset="1" stop-color="#6cc5a5"/></linearGradient><linearGradient id="_Linear11" x1="0" y1="0" x2="1" y2="0" gradientUnits="userSpaceOnUse" gradientTransform="matrix(1 0 0 -1 0 0)"><stop offset="0" stop-color="#6cc5a5"/><stop offset="1" stop-color="#298b6b"/></linearGradient><linearGradient id="_Linear12" x1="0" y1="0" x2="1" y2="0" gradientUnits="userSpaceOnUse" gradientTransform="matrix(1 0 0 -1 0 0)"><stop offset="0" stop-color="#298b6b"/><stop offset="1" stop-color="#6cc5a5"/></linearGradient></defs></svg>