<svg viewBox="0 0 52 35" xmlns="http://www.w3.org/2000/svg" fill-rule="evenodd" clip-rule="evenodd" stroke-linejoin="round" stroke-miterlimit="2" width="52" height="35"><g><g><path d="M-.079.516l.983-1.882.136 2.733L-.079.516z" fill="url(#_Linear1)" fill-rule="nonzero" transform="scale(7.17147 -7.17147) rotate(89.971 4.653 .551)"/></g><g><path d="M.026.358l.525-.716 1.327.561L.026.358z" fill="url(#_Linear2)" fill-rule="nonzero" transform="scale(-6.99907 6.99907) rotate(-75.717 .86 5.406)"/></g><g><path d="M-1.967.613h1.823l1.052.438L-.157-.936-1.967.613z" fill="url(#_Linear3)" fill-rule="nonzero" transform="scale(-5.76854 5.76854) rotate(37.664 -9.416 -5.327)"/></g><g><path d="M-.326-.323l1.073-.07.577.786-1.65-.716z" fill="url(#_Linear4)" fill-rule="nonzero" transform="scale(11.9008 -11.9008) rotate(71.551 2.887 .333)"/></g><g><path d="M-.625-1.067L.704.072l.042.995-1.371-2.134z" fill="url(#_Linear5)" fill-rule="nonzero" transform="scale(8.44141 -8.44141) rotate(37.706 5.916 3.466)"/></g><g><path d="M0 .151l.497-.279L1-.151 0 .151z" fill="url(#_Linear6)" fill-rule="nonzero" transform="scale(-20.78283 20.78283) rotate(-62.516 .541 2.087)"/></g><g><path d="M1.013-.793L.029.793-.139.196l1.152-.989z" fill="url(#_Linear7)" fill-rule="nonzero" transform="scale(-16.8742 16.8742) rotate(40.674 -1.64 -1.364)"/></g><g><path d="M-.079-.661l.774-.398.345 2.118-1.119-1.72z" fill="url(#_Linear8)" fill-rule="nonzero" transform="matrix(11.8253 6.15915 6.15915 -11.8253 32.81 6.122)"/></g></g><defs><linearGradient id="_Linear1" x1="0" y1="0" x2="1" y2="0" gradientUnits="userSpaceOnUse" gradientTransform="matrix(1 0 0 -1 0 0)"><stop offset="0" stop-color="#7f66ad"/><stop offset="1" stop-color="#b291c3"/></linearGradient><linearGradient id="_Linear2" x1="0" y1="0" x2="1" y2="0" gradientUnits="userSpaceOnUse" gradientTransform="matrix(1 0 0 -1 0 0)"><stop offset="0" stop-color="#7f66ad"/><stop offset="1" stop-color="#b291c3"/></linearGradient><linearGradient id="_Linear3" x1="0" y1="0" x2="1" y2="0" gradientUnits="userSpaceOnUse" gradientTransform="scale(-1 1) rotate(77.326 0 .428)"><stop offset="0" stop-color="#493178"/><stop offset="1" stop-color="#b291c3"/></linearGradient><linearGradient id="_Linear4" x1="0" y1="0" x2="1" y2="0" gradientUnits="userSpaceOnUse" gradientTransform="matrix(1 0 0 -1 0 0)"><stop offset="0" stop-color="#7f66ad"/><stop offset="1" stop-color="#b291c3"/></linearGradient><linearGradient id="_Linear5" x1="0" y1="0" x2="1" y2="0" gradientUnits="userSpaceOnUse" gradientTransform="matrix(1 0 0 -1 0 0)"><stop offset="0" stop-color="#493178"/><stop offset=".1" stop-color="#493178"/><stop offset=".77" stop-color="#b291c3"/><stop offset="1" stop-color="#b291c3"/></linearGradient><linearGradient id="_Linear6" x1="0" y1="0" x2="1" y2="0" gradientUnits="userSpaceOnUse" gradientTransform="matrix(1 0 0 -1 0 0)"><stop offset="0" stop-color="#b291c3"/><stop offset="1" stop-color="#7f66ad"/></linearGradient><linearGradient id="_Linear7" x1="0" y1="0" x2="1" y2="0" gradientUnits="userSpaceOnUse" gradientTransform="matrix(1 0 0 -1 0 0)"><stop offset="0" stop-color="#7f66ad"/><stop offset="1" stop-color="#b291c3"/></linearGradient><linearGradient id="_Linear8" x1="0" y1="0" x2="1" y2="0" gradientUnits="userSpaceOnUse" gradientTransform="matrix(1 0 0 -1 0 0)"><stop offset="0" stop-color="#7f66ad"/><stop offset="1" stop-color="#b291c3"/></linearGradient></defs></svg>