<svg viewBox="0 0 827 242" xmlns="http://www.w3.org/2000/svg" fill-rule="evenodd" clip-rule="evenodd" stroke-linejoin="round" stroke-miterlimit="2" width="827" height="242"><g><g><g><path d="M-.079.516l.982-1.883.137 2.734L-.079.516z" fill="url(#_Linear1)" fill-rule="nonzero" transform="scale(33.0574 -33.0574) rotate(89.971 6.647 2.545)"/></g></g><g><g><path d="M.026.358l.525-.716 1.327.561L.026.358z" fill="url(#_Linear2)" fill-rule="nonzero" transform="scale(-32.26268 32.26268) rotate(-75.717 -1.181 8.033)"/></g></g><g><g><path d="M-1.967.613h1.823l1.051.438L-.157-.936-1.967.613z" fill="url(#_Linear3)" fill-rule="nonzero" transform="scale(-26.59047 26.59047) rotate(37.66 -11.895 -12.594)"/></g></g><g><g><path d="M1.324.393l-1.65-.716 1.073-.07.577.786z" fill="url(#_Linear4)" fill-rule="nonzero" transform="scale(54.85763 -54.85763) rotate(71.551 4.088 2)"/></g></g><g><g><path d="M-.625-1.067L.704.072l.042.995-1.371-2.134z" fill="url(#_Linear5)" fill-rule="nonzero" transform="scale(38.91126 -38.91126) rotate(37.706 7.61 8.425)"/></g></g><g><g><path d="M0 .151l1-.302-.503.023L0 .151z" fill="url(#_Linear6)" fill-rule="nonzero" transform="scale(-95.79996 95.79996) rotate(-62.516 -.147 3.22)"/></g></g><g><g><path d="M-.139.196l1.151-.989L.029.793-.139.196z" fill="url(#_Linear7)" fill-rule="nonzero" transform="scale(-77.7824 77.7824) rotate(40.674 -2.487 -3.65)"/></g></g><g><g><path d="M-.079-.661l1.119 1.72-.345-2.118-.774.398z" fill="url(#_Linear8)" fill-rule="nonzero" transform="scale(61.46015 -61.46015) rotate(-27.512 1.365 -9.634)"/></g></g><g><g><path d="M8.425 214.291H.03v-42.725l8.396-10.442v53.167z" fill="#fff" fill-rule="nonzero"/></g></g><g><g><path d="M94.208 189.824c-12.47 0-16.696-4.754-16.696-14.33 0-7.303 6.055-14.42 19.68-14.42 11.75 0 18.741.012 18.741.012l-6.341 7.721s-6.18-.033-12.4-.033c-6.717 0-10.392 2.95-10.392 6.9 0 3.658.58 6.833 7.317 6.833" fill="#fff" fill-rule="nonzero"/></g></g><g><g><path d="M144.495 213.127s-.154-.025-.233-.041c-8.27-1.434-13.596-8.013-13.596-18.442v-25.767h-6.912l15.208-19.212v11.212h11.55l-6.492 8h-5.058v25.767c0 8.992 5.53 11.267 11.75 10.867l-6.217 7.616z" fill="#fff" fill-rule="nonzero"/></g></g><g><g><path d="M198.404 182.504c-2.075-8.3-8.984-13.825-16.392-13.825-7.012 0-14.417 5.133-16.592 13.825h32.984zm4.446 22.217s-.034.054-.055.079c-4.495 6.208-11.545 9.596-20.287 9.596-14.617 0-26.071-11.655-26.071-26.563 0-14.712 11.454-26.762 25.575-26.762 13.133 0 25.77 10.866 25.675 28.937H164.93c1.087 10.567 9.183 16.788 17.579 16.788 6.28 0 10.987-2.625 13.925-7.221.008-.021.033-.054.033-.054l6.384 5.2z" fill="#fff" fill-rule="nonzero"/></g></g><g><g><path d="M259.92 204.301s-.045.063-.07.092c-4.475 6.225-11.659 10.004-20.175 10.004-14.025 0-25.48-11.85-25.48-26.562 0-14.713 11.455-26.763 25.48-26.763 8.445 0 15.529 3.717 20.029 9.85l.162.23s-5.541 6.787-5.575 6.729c-.012-.034-.029-.059-.046-.092-2.891-5.383-8.062-9.013-14.57-9.013-9.384 0-17.084 8.592-17.084 19.059 0 10.47 7.7 18.862 17.084 18.862 6.008 0 10.829-3.004 13.758-7.6.02-.037.062-.1.062-.1l6.425 5.304z" fill="#fff" fill-rule="nonzero"/></g></g><g><g><path d="M44.666 168.775c8.096 0 12.442 5.73 12.442 13.525v32.188h8.296v-31.892c0-12.638-7.113-21.525-19.555-21.525h-3.237c-12.442 0-19.554 8.887-19.554 21.525v31.696h8.3V182.3c0-7.642 4.183-13.279 11.975-13.504l1.333-.02z" fill="#fff" fill-rule="nonzero"/></g></g><g><g><path d="M101.43 182.475c9.138.063 16.092 4.613 16.092 15.908 0 8.863-6.308 15.784-19.937 15.784-11.754 0-18.983.154-18.983.154l.108-7.958s12.654.108 18.875.108c6.712 0 10.65-3.47 10.65-8.275 0-4.304-2.43-8.283-8.075-8.283l-5.95-.088-1.37-7.287 8.59-.063z" fill="#fff" fill-rule="nonzero"/></g></g><g><g><path d="M.58-.185l.419-.064.017.115-.421.065C.47-.05.416.033.435.151L.433.154.348.249.333.198a.272.272 0 01-.01-.046C.298-.011.385-.155.58-.185z" fill="url(#_Linear9)" fill-rule="nonzero" transform="scale(73.8686 -73.8686) rotate(-81.254 3.133 -5.861)"/></g></g><g><g><path d="M.251.461L.782.176V.175L.19.063.17-.063l.531-.285v-.001L.109-.461.09-.587l.759.151.02.127-.516.282.577.115.019.127L.27.587.251.461z" fill="url(#_Linear10)" fill-rule="nonzero" transform="scale(73.8686 -73.8686) rotate(-81.254 2.676 -5.47)"/></g></g><g><g><path d="M.502-.061h.579v.119H.354l.148-.119z" fill="url(#_Linear11)" fill-rule="nonzero" transform="matrix(0 73.8684 73.8684 0 655.096 134.247)"/></g></g><g><g><path d="M.605-.061h.579v.119H.457l.148-.119z" fill="url(#_Linear12)" fill-rule="nonzero" transform="matrix(0 73.8684 73.8684 0 708.754 126.602)"/></g></g><g><g><path d="M-.262.032c-.026-.168.079-.282.25-.308l.427-.066.017.112-.431.066c-.103.016-.171.084-.157.19l.002.018c.017.109.103.156.208.139L.489.117l.017.111-.43.067C-.095.321-.229.243-.255.076L-.262.032z" fill="url(#_Linear13)" fill-rule="nonzero" transform="scale(73.8686 -73.8686) rotate(-81.254 .934 -3.958)"/></g></g><g><g><path d="M-.192.213L.088.17C.194.154.26.073.243-.035.226-.145.139-.203.033-.187l-.423.066.125-.137.281-.044a.286.286 0 01.339.249.287.287 0 01-.249.34l-.425.065.127-.139z" fill="url(#_Linear14)" fill-rule="nonzero" transform="scale(73.8686 -73.8686) rotate(-81.254 .53 -3.61)"/></g></g><g><g><path d="M.005.256A.307.307 0 01-.146.037.35.35 0 01.16-.359a.35.35 0 01.412.288C.602.123.467.296.265.327l-.588.091L-.475.33l.48-.074zm.172-.502c-.143.022-.239.142-.219.27.019.126.148.213.29.192C.39.194.487.07.467-.055.448-.182.32-.268.177-.246z" fill="url(#_Linear15)" fill-rule="nonzero" transform="scale(73.8686 -73.8686) rotate(-81.254 1.374 -4.34)"/></g></g><g><g><path d="M.279-.35a.354.354 0 01.412.296.327.327 0 01-.087.294L.603.241.52.165a.213.213 0 00.069-.203.243.243 0 00-.263-.202l.089.576C.171.375-.002.227-.029.05a.358.358 0 01.308-.4zM.074.034c.015.1.104.182.22.193L.226-.218a.24.24 0 00-.152.252z" fill="url(#_Linear16)" fill-rule="nonzero" transform="scale(73.8686 -73.8686) rotate(-81.254 1.838 -4.744)"/></g></g><g><g><path d="M.295-.084l.466-.072.018.115L.317.03C.223.044.189.095.186.156L.07.133C.076.02.155-.063.295-.084z" fill="url(#_Linear17)" fill-rule="nonzero" transform="scale(73.8686 -73.8686) rotate(-81.254 2.177 -5.04)"/></g></g><g><g><path d="M.488-.189l.014.093.348-.053c.141-.022.241.037.277.145a.01.01 0 00.001.003l-.09.1C1.031.014.988-.056.867-.037L.52.016l.01.069-.094.104L.412.033.26.056l.228-.245z" fill="url(#_Linear18)" fill-rule="nonzero" transform="scale(73.8686 -73.8686) rotate(-81.254 3.548 -6.221)"/></g></g><g><g><path d="M.532.032c-.025-.168.08-.282.25-.308l.428-.066.017.112-.432.066c-.103.016-.17.084-.157.19l.003.018C.657.153.744.2.849.183l.434-.066.017.112-.43.066C.7.321.565.243.539.076L.532.032z" fill="url(#_Linear19)" fill-rule="nonzero" transform="scale(73.8686 -73.8686) rotate(-81.254 4.015 -6.623)"/></g></g><g><g><path d="M.961-.343a.35.35 0 01.41.286.305.305 0 01-.079.254l.481-.074-.119.13-.588.091C.864.375.683.25.654.056a.352.352 0 01.307-.399zm.017.113C.835-.208.739-.087.759.04c.019.125.148.214.29.192.142-.022.239-.144.219-.27-.019-.128-.147-.214-.29-.192z" fill="url(#_Linear20)" fill-rule="nonzero" transform="scale(73.8686 -73.8686) rotate(-81.254 4.449 -6.994)"/></g></g></g><defs><linearGradient id="_Linear1" x1="0" y1="0" x2="1" y2="0" gradientUnits="userSpaceOnUse" gradientTransform="matrix(1 0 0 -1 0 0)"><stop offset="0" stop-color="#7f66ad"/><stop offset="1" stop-color="#b291c3"/></linearGradient><linearGradient id="_Linear2" x1="0" y1="0" x2="1" y2="0" gradientUnits="userSpaceOnUse" gradientTransform="matrix(1 0 0 -1 0 0)"><stop offset="0" stop-color="#7f66ad"/><stop offset="1" stop-color="#b291c3"/></linearGradient><linearGradient id="_Linear3" x1="0" y1="0" x2="1" y2="0" gradientUnits="userSpaceOnUse" gradientTransform="scale(-1 1) rotate(77.321 0 .428)"><stop offset="0" stop-color="#493178"/><stop offset="1" stop-color="#b291c3"/></linearGradient><linearGradient id="_Linear4" x1="0" y1="0" x2="1" y2="0" gradientUnits="userSpaceOnUse" gradientTransform="matrix(1 0 0 -1 0 0)"><stop offset="0" stop-color="#7f66ad"/><stop offset="1" stop-color="#b291c3"/></linearGradient><linearGradient id="_Linear5" x1="0" y1="0" x2="1" y2="0" gradientUnits="userSpaceOnUse" gradientTransform="matrix(1 0 0 -1 0 0)"><stop offset="0" stop-color="#493178"/><stop offset=".1" stop-color="#493178"/><stop offset=".77" stop-color="#b291c3"/><stop offset="1" stop-color="#b291c3"/></linearGradient><linearGradient id="_Linear6" x1="0" y1="0" x2="1" y2="0" gradientUnits="userSpaceOnUse" gradientTransform="matrix(1 0 0 -1 0 0)"><stop offset="0" stop-color="#b291c3"/><stop offset="1" stop-color="#7f66ad"/></linearGradient><linearGradient id="_Linear7" x1="0" y1="0" x2="1" y2="0" gradientUnits="userSpaceOnUse" gradientTransform="matrix(1 0 0 -1 0 0)"><stop offset="0" stop-color="#7f66ad"/><stop offset="1" stop-color="#b291c3"/></linearGradient><linearGradient id="_Linear8" x1="0" y1="0" x2="1" y2="0" gradientUnits="userSpaceOnUse" gradientTransform="matrix(1 0 0 -1 0 0)"><stop offset="0" stop-color="#7f66ad"/><stop offset="1" stop-color="#b291c3"/></linearGradient><linearGradient id="_Linear9" x1="0" y1="0" x2="1" y2="0" gradientUnits="userSpaceOnUse" gradientTransform="matrix(1 0 0 -1 0 0)"><stop offset="0" stop-color="#b291c3"/><stop offset="1" stop-color="#7f66ad"/></linearGradient><linearGradient id="_Linear10" x1="0" y1="0" x2="1" y2="0" gradientUnits="userSpaceOnUse" gradientTransform="matrix(1 0 0 -1 0 0)"><stop offset="0" stop-color="#b291c3"/><stop offset="1" stop-color="#7f66ad"/></linearGradient><linearGradient id="_Linear11" x1="0" y1="0" x2="1" y2="0" gradientUnits="userSpaceOnUse" gradientTransform="scale(1 -1) rotate(-8.746 .726 0)"><stop offset="0" stop-color="#b291c3"/><stop offset="1" stop-color="#7f66ad"/></linearGradient><linearGradient id="_Linear12" x1="0" y1="0" x2="1" y2="0" gradientUnits="userSpaceOnUse" gradientTransform="scale(1 -1) rotate(-8.746 .83 0)"><stop offset="0" stop-color="#b291c3"/><stop offset="1" stop-color="#7f66ad"/></linearGradient><linearGradient id="_Linear13" x1="0" y1="0" x2="1" y2="0" gradientUnits="userSpaceOnUse" gradientTransform="matrix(1 0 0 -1 0 -.021)"><stop offset="0" stop-color="#b291c3"/><stop offset="1" stop-color="#7f66ad"/></linearGradient><linearGradient id="_Linear14" x1="0" y1="0" x2="1" y2="0" gradientUnits="userSpaceOnUse" gradientTransform="matrix(1 0 0 -1 0 .023)"><stop offset="0" stop-color="#b291c3"/><stop offset="1" stop-color="#7f66ad"/></linearGradient><linearGradient id="_Linear15" x1="0" y1="0" x2="1" y2="0" gradientUnits="userSpaceOnUse" gradientTransform="matrix(1 0 0 -1 0 .027)"><stop offset="0" stop-color="#b291c3"/><stop offset="1" stop-color="#7f66ad"/></linearGradient><linearGradient id="_Linear16" x1="0" y1="0" x2="1" y2="0" gradientUnits="userSpaceOnUse" gradientTransform="matrix(1 0 0 -1 0 -.006)"><stop offset="0" stop-color="#b291c3"/><stop offset="1" stop-color="#7f66ad"/></linearGradient><linearGradient id="_Linear17" x1="0" y1="0" x2="1" y2="0" gradientUnits="userSpaceOnUse" gradientTransform="matrix(1 0 0 -1 0 0)"><stop offset="0" stop-color="#b291c3"/><stop offset="1" stop-color="#7f66ad"/></linearGradient><linearGradient id="_Linear18" x1="0" y1="0" x2="1" y2="0" gradientUnits="userSpaceOnUse" gradientTransform="matrix(1 0 0 -1 0 0)"><stop offset="0" stop-color="#b291c3"/><stop offset="1" stop-color="#7f66ad"/></linearGradient><linearGradient id="_Linear19" x1="0" y1="0" x2="1" y2="0" gradientUnits="userSpaceOnUse" gradientTransform="matrix(1 0 0 -1 0 -.021)"><stop offset="0" stop-color="#b291c3"/><stop offset="1" stop-color="#7f66ad"/></linearGradient><linearGradient id="_Linear20" x1="0" y1="0" x2="1" y2="0" gradientUnits="userSpaceOnUse" gradientTransform="matrix(1 0 0 -1 0 0)"><stop offset="0" stop-color="#b291c3"/><stop offset="1" stop-color="#7f66ad"/></linearGradient></defs></svg>