<svg viewBox="0 0 827 242" xmlns="http://www.w3.org/2000/svg" fill-rule="evenodd" clip-rule="evenodd" stroke-linejoin="round" stroke-miterlimit="2" width="827" height="242"><g><g><g><path d="M-.079.516l.982-1.883.137 2.734L-.079.516z" fill="url(#_Linear1)" fill-rule="nonzero" transform="scale(33.0574 -33.0574) rotate(89.971 6.647 2.545)"/></g></g><g><g><path d="M.026.358l.525-.716 1.327.561L.026.358z" fill="url(#_Linear2)" fill-rule="nonzero" transform="scale(-32.26268 32.26268) rotate(-75.717 -1.181 8.033)"/></g></g><g><g><path d="M-1.967.613h1.823l1.052.438L-.157-.936-1.967.613z" fill="url(#_Linear3)" fill-rule="nonzero" transform="scale(-26.59045 26.59045) rotate(37.664 -11.894 -12.592)"/></g></g><g><g><path d="M1.324.393l-1.65-.716 1.073-.07.577.786z" fill="url(#_Linear4)" fill-rule="nonzero" transform="scale(54.85763 -54.85763) rotate(71.551 4.088 2)"/></g></g><g><g><path d="M-.625-1.067L.704.072l.042.995-1.371-2.134z" fill="url(#_Linear5)" fill-rule="nonzero" transform="scale(38.91126 -38.91126) rotate(37.706 7.609 8.425)"/></g></g><g><g><path d="M0 .151l1-.302-.503.023L0 .151z" fill="url(#_Linear6)" fill-rule="nonzero" transform="scale(-95.79996 95.79996) rotate(-62.516 -.147 3.22)"/></g></g><g><g><path d="M-.139.196l1.151-.989L.029.793-.139.196z" fill="url(#_Linear7)" fill-rule="nonzero" transform="scale(-77.7824 77.7824) rotate(40.674 -2.487 -3.65)"/></g></g><g><g><path d="M-.079-.661l1.119 1.72-.345-2.118-.774.398z" fill="url(#_Linear8)" fill-rule="nonzero" transform="scale(61.46015 -61.46015) rotate(-27.512 1.365 -9.634)"/></g></g><g><g><path d="M0 3.167h1v-5.09L0-3.166v6.333z" fill="url(#_Linear9)" fill-rule="nonzero" transform="matrix(-8.3938 0 0 8.3938 8.425 187.708)"/></g></g><g><g><path d="M0-.001C0-.25.11-.374.435-.374l-.003.19c-.175 0-.19.083-.19.178 0 .103.095.18.27.18L.835.173 1 .374H.512C.158.374 0 .189 0-.001z" fill="url(#_Linear10)" fill-rule="nonzero" transform="matrix(38.42066 0 0 -38.42066 77.513 175.449)"/></g></g><g><g><path d="M0 .464h.256v-.956c0-.386.198-.631.505-.684l.008-.001L1-.895c-.231-.014-.436.07-.436.403v.956h.188l.241.297H.564v.416L0 .464z" fill="url(#_Linear11)" fill-rule="nonzero" transform="matrix(26.9559 0 0 -26.9559 123.754 181.394)"/></g></g><g><g><path d="M0-.002C0-.293.223-.52.509-.52a.47.47 0 01.396.187l.001.001-.125.102L.78-.231a.303.303 0 00-.271-.141.349.349 0 00-.343.328H1C1.002.308.755.52.499.52A.511.511 0 010-.002zm.499.374c.145 0 .279-.108.32-.27H.175c.043.17.187.27.324.27z" fill="url(#_Linear12)" fill-rule="nonzero" transform="matrix(51.2513 0 0 -51.2513 156.433 187.734)"/></g></g><g><g><path d="M0-.002a.57.57 0 01.557-.581c.186 0 .344.083.442.219L1-.362l-.141.116-.001-.003a.35.35 0 00-.301-.166c-.205 0-.373.184-.373.413 0 .229.168.417.373.417.142 0 .256-.08.319-.198L.877.216C.878.214.999.363.999.363L.995.368a.53.53 0 01-.438.215C.251.583 0 .32 0-.002z" fill="url(#_Linear13)" fill-rule="nonzero" transform="matrix(45.72295 0 0 -45.72295 214.195 187.734)"/></g></g><g><g><path d="M.462.631C.168.631 0 .421 0 .122v-.748h.196v.755c0 .181.099.314.283.319L.51.449c.192 0 .294-.135.294-.32v-.76H1v.753C1 .421.832.631.538.631H.462z" fill="url(#_Linear14)" fill-rule="nonzero" transform="matrix(42.34212 0 0 -42.34212 23.059 187.78)"/></g></g><g><g><path d="M.366.408L.401.22.554.218C.699.218.761.116.761.005c0-.123-.101-.212-.273-.212l-.485.002L0-.409s.186.004.488.004C.838-.405 1-.227 1 0 1 .291.821.408.586.409L.366.408z" fill="url(#_Linear15)" fill-rule="nonzero" transform="matrix(38.91861 0 0 -38.91861 78.604 198.399)"/></g></g><g><g><path d="M.58-.185l.419-.064.017.115-.421.065C.47-.05.416.033.435.151L.433.154.348.249.333.198a.272.272 0 01-.01-.046C.298-.011.385-.155.58-.185z" fill="url(#_Linear16)" fill-rule="nonzero" transform="scale(73.8686 -73.8686) rotate(-81.254 3.133 -5.861)"/></g></g><g><g><path d="M.251.461L.782.176V.175L.19.063.17-.063l.531-.285v-.001L.109-.461.09-.587l.759.151.02.127-.516.282.577.115.019.127L.27.587.251.461z" fill="url(#_Linear17)" fill-rule="nonzero" transform="scale(73.8686 -73.8686) rotate(-81.254 2.676 -5.47)"/></g></g><g><g><path d="M.502-.061h.579v.119H.354l.148-.119z" fill="url(#_Linear18)" fill-rule="nonzero" transform="matrix(0 73.8684 73.8684 0 655.096 134.247)"/></g></g><g><g><path d="M.606-.061h.578v.119H.457l.149-.119z" fill="url(#_Linear19)" fill-rule="nonzero" transform="matrix(0 73.8684 73.8684 0 708.754 126.603)"/></g></g><g><g><path d="M-.262.032c-.026-.168.079-.282.25-.308l.427-.066.017.112-.431.066c-.103.016-.171.084-.157.19l.002.018c.017.109.103.156.208.139L.488.117l.018.111-.43.067C-.095.321-.229.243-.255.076L-.262.032z" fill="url(#_Linear20)" fill-rule="nonzero" transform="scale(73.8686 -73.8686) rotate(-81.254 .934 -3.958)"/></g></g><g><g><path d="M-.192.213L.088.17C.194.154.26.073.243-.035.226-.145.139-.203.033-.187l-.423.066.125-.137.281-.044a.286.286 0 01.339.249.287.287 0 01-.249.34l-.425.065.127-.139z" fill="url(#_Linear21)" fill-rule="nonzero" transform="scale(73.8686 -73.8686) rotate(-81.254 .53 -3.61)"/></g></g><g><g><path d="M.005.256A.307.307 0 01-.146.037.35.35 0 01.16-.359a.351.351 0 01.412.288C.602.123.467.296.265.327l-.588.091L-.475.33l.48-.074zm.172-.502c-.143.022-.239.142-.219.27.019.126.148.214.29.192C.39.194.487.07.467-.055.448-.182.32-.268.177-.246z" fill="url(#_Linear22)" fill-rule="nonzero" transform="scale(73.8686 -73.8686) rotate(-81.254 1.374 -4.34)"/></g></g><g><g><path d="M.279-.35a.354.354 0 01.412.296.327.327 0 01-.087.294L.603.241.52.165a.213.213 0 00.069-.203.243.243 0 00-.263-.202l.089.576C.171.375-.002.227-.029.05a.358.358 0 01.308-.4zM.074.034c.015.1.104.182.22.193L.226-.218a.24.24 0 00-.152.252z" fill="url(#_Linear23)" fill-rule="nonzero" transform="scale(73.8686 -73.8686) rotate(-81.254 1.838 -4.744)"/></g></g><g><g><path d="M.295-.084l.466-.072.018.115L.317.03C.223.044.189.095.186.156L.07.133C.076.02.155-.063.295-.084z" fill="url(#_Linear24)" fill-rule="nonzero" transform="scale(73.8686 -73.8686) rotate(-81.254 2.177 -5.04)"/></g></g><g><g><path d="M.488-.189l.014.093.348-.053c.141-.022.241.037.277.145a.01.01 0 00.001.003l-.09.1C1.031.014.989-.056.867-.037L.52.016l.01.069-.094.104L.412.033.26.056l.228-.245z" fill="url(#_Linear25)" fill-rule="nonzero" transform="scale(73.8686 -73.8686) rotate(-81.254 3.548 -6.221)"/></g></g><g><g><path d="M.532.032c-.025-.168.08-.282.25-.308l.428-.066.017.112-.432.066c-.103.016-.17.084-.157.19l.003.018C.657.153.744.2.849.183l.434-.066.017.112-.43.066C.7.321.565.243.539.076L.532.032z" fill="url(#_Linear26)" fill-rule="nonzero" transform="scale(73.8686 -73.8686) rotate(-81.254 4.015 -6.623)"/></g></g><g><g><path d="M.961-.343a.35.35 0 01.41.286.305.305 0 01-.079.254l.481-.074-.119.13-.588.091C.864.375.683.25.654.056a.352.352 0 01.307-.399zm.017.113C.835-.208.739-.087.759.04c.019.125.148.214.29.192.142-.022.239-.144.219-.27-.019-.128-.147-.214-.29-.192z" fill="url(#_Linear27)" fill-rule="nonzero" transform="scale(73.8686 -73.8686) rotate(-81.254 4.449 -6.994)"/></g></g></g><defs><linearGradient id="_Linear1" x1="0" y1="0" x2="1" y2="0" gradientUnits="userSpaceOnUse" gradientTransform="matrix(1 0 0 -1 0 0)"><stop offset="0" stop-color="#7f66ad"/><stop offset="1" stop-color="#b291c3"/></linearGradient><linearGradient id="_Linear2" x1="0" y1="0" x2="1" y2="0" gradientUnits="userSpaceOnUse" gradientTransform="matrix(1 0 0 -1 0 0)"><stop offset="0" stop-color="#7f66ad"/><stop offset="1" stop-color="#b291c3"/></linearGradient><linearGradient id="_Linear3" x1="0" y1="0" x2="1" y2="0" gradientUnits="userSpaceOnUse" gradientTransform="scale(-1 1) rotate(77.325 0 .428)"><stop offset="0" stop-color="#493178"/><stop offset="1" stop-color="#b291c3"/></linearGradient><linearGradient id="_Linear4" x1="0" y1="0" x2="1" y2="0" gradientUnits="userSpaceOnUse" gradientTransform="matrix(1 0 0 -1 0 0)"><stop offset="0" stop-color="#7f66ad"/><stop offset="1" stop-color="#b291c3"/></linearGradient><linearGradient id="_Linear5" x1="0" y1="0" x2="1" y2="0" gradientUnits="userSpaceOnUse" gradientTransform="matrix(1 0 0 -1 0 0)"><stop offset="0" stop-color="#493178"/><stop offset=".1" stop-color="#493178"/><stop offset=".77" stop-color="#b291c3"/><stop offset="1" stop-color="#b291c3"/></linearGradient><linearGradient id="_Linear6" x1="0" y1="0" x2="1" y2="0" gradientUnits="userSpaceOnUse" gradientTransform="matrix(1 0 0 -1 0 0)"><stop offset="0" stop-color="#b291c3"/><stop offset="1" stop-color="#7f66ad"/></linearGradient><linearGradient id="_Linear7" x1="0" y1="0" x2="1" y2="0" gradientUnits="userSpaceOnUse" gradientTransform="matrix(1 0 0 -1 0 0)"><stop offset="0" stop-color="#7f66ad"/><stop offset="1" stop-color="#b291c3"/></linearGradient><linearGradient id="_Linear8" x1="0" y1="0" x2="1" y2="0" gradientUnits="userSpaceOnUse" gradientTransform="matrix(1 0 0 -1 0 0)"><stop offset="0" stop-color="#7f66ad"/><stop offset="1" stop-color="#b291c3"/></linearGradient><linearGradient id="_Linear9" x1="0" y1="0" x2="1" y2="0" gradientUnits="userSpaceOnUse" gradientTransform="matrix(-1 0 0 1 1 0)"><stop offset="0" stop-color="#06303e"/><stop offset="1" stop-color="#030404"/></linearGradient><linearGradient id="_Linear10" x1="0" y1="0" x2="1" y2="0" gradientUnits="userSpaceOnUse" gradientTransform="matrix(1 0 0 -1 0 0)"><stop offset="0" stop-color="#06303e"/><stop offset="1" stop-color="#030404"/></linearGradient><linearGradient id="_Linear11" x1="0" y1="0" x2="1" y2="0" gradientUnits="userSpaceOnUse" gradientTransform="matrix(1 0 0 -1 0 0)"><stop offset="0" stop-color="#06303e"/><stop offset="1" stop-color="#030404"/></linearGradient><linearGradient id="_Linear12" x1="0" y1="0" x2="1" y2="0" gradientUnits="userSpaceOnUse" gradientTransform="matrix(1 0 0 -1 0 0)"><stop offset="0" stop-color="#06303e"/><stop offset="1" stop-color="#030404"/></linearGradient><linearGradient id="_Linear13" x1="0" y1="0" x2="1" y2="0" gradientUnits="userSpaceOnUse" gradientTransform="matrix(1 0 0 -1 0 0)"><stop offset="0" stop-color="#06303e"/><stop offset="1" stop-color="#030404"/></linearGradient><linearGradient id="_Linear14" x1="0" y1="0" x2="1" y2="0" gradientUnits="userSpaceOnUse" gradientTransform="matrix(1 0 0 -1 0 0)"><stop offset="0" stop-color="#06303e"/><stop offset="1" stop-color="#030404"/></linearGradient><linearGradient id="_Linear15" x1="0" y1="0" x2="1" y2="0" gradientUnits="userSpaceOnUse" gradientTransform="matrix(1 0 0 -1 0 0)"><stop offset="0" stop-color="#06303e"/><stop offset="1" stop-color="#030404"/></linearGradient><linearGradient id="_Linear16" x1="0" y1="0" x2="1" y2="0" gradientUnits="userSpaceOnUse" gradientTransform="matrix(1 0 0 -1 0 0)"><stop offset="0" stop-color="#b291c3"/><stop offset="1" stop-color="#7f66ad"/></linearGradient><linearGradient id="_Linear17" x1="0" y1="0" x2="1" y2="0" gradientUnits="userSpaceOnUse" gradientTransform="matrix(1 0 0 -1 0 0)"><stop offset="0" stop-color="#b291c3"/><stop offset="1" stop-color="#7f66ad"/></linearGradient><linearGradient id="_Linear18" x1="0" y1="0" x2="1" y2="0" gradientUnits="userSpaceOnUse" gradientTransform="scale(1 -1) rotate(-8.746 .726 0)"><stop offset="0" stop-color="#b291c3"/><stop offset="1" stop-color="#7f66ad"/></linearGradient><linearGradient id="_Linear19" x1="0" y1="0" x2="1" y2="0" gradientUnits="userSpaceOnUse" gradientTransform="scale(1 -1) rotate(-8.746 .83 0)"><stop offset="0" stop-color="#b291c3"/><stop offset="1" stop-color="#7f66ad"/></linearGradient><linearGradient id="_Linear20" x1="0" y1="0" x2="1" y2="0" gradientUnits="userSpaceOnUse" gradientTransform="matrix(1 0 0 -1 0 -.021)"><stop offset="0" stop-color="#b291c3"/><stop offset="1" stop-color="#7f66ad"/></linearGradient><linearGradient id="_Linear21" x1="0" y1="0" x2="1" y2="0" gradientUnits="userSpaceOnUse" gradientTransform="matrix(1 0 0 -1 0 .023)"><stop offset="0" stop-color="#b291c3"/><stop offset="1" stop-color="#7f66ad"/></linearGradient><linearGradient id="_Linear22" x1="0" y1="0" x2="1" y2="0" gradientUnits="userSpaceOnUse" gradientTransform="matrix(1 0 0 -1 0 .027)"><stop offset="0" stop-color="#b291c3"/><stop offset="1" stop-color="#7f66ad"/></linearGradient><linearGradient id="_Linear23" x1="0" y1="0" x2="1" y2="0" gradientUnits="userSpaceOnUse" gradientTransform="matrix(1 0 0 -1 0 -.006)"><stop offset="0" stop-color="#b291c3"/><stop offset="1" stop-color="#7f66ad"/></linearGradient><linearGradient id="_Linear24" x1="0" y1="0" x2="1" y2="0" gradientUnits="userSpaceOnUse" gradientTransform="matrix(1 0 0 -1 0 0)"><stop offset="0" stop-color="#b291c3"/><stop offset="1" stop-color="#7f66ad"/></linearGradient><linearGradient id="_Linear25" x1="0" y1="0" x2="1" y2="0" gradientUnits="userSpaceOnUse" gradientTransform="matrix(1 0 0 -1 0 0)"><stop offset="0" stop-color="#b291c3"/><stop offset="1" stop-color="#7f66ad"/></linearGradient><linearGradient id="_Linear26" x1="0" y1="0" x2="1" y2="0" gradientUnits="userSpaceOnUse" gradientTransform="matrix(1 0 0 -1 0 -.021)"><stop offset="0" stop-color="#b291c3"/><stop offset="1" stop-color="#7f66ad"/></linearGradient><linearGradient id="_Linear27" x1="0" y1="0" x2="1" y2="0" gradientUnits="userSpaceOnUse" gradientTransform="matrix(1 0 0 -1 0 0)"><stop offset="0" stop-color="#b291c3"/><stop offset="1" stop-color="#7f66ad"/></linearGradient></defs></svg>