<svg viewBox="0 0 2305 1192" xmlns="http://www.w3.org/2000/svg" fill-rule="evenodd" clip-rule="evenodd" stroke-linejoin="round" stroke-miterlimit="2" width="2305" height="1192"><g fill-rule="nonzero"><path d="M1125.413 137.596l543.338 414.746 520.813-304.88-249.217 302.034-814.934-411.9z" fill="#d4da8e"/><path d="M1940.347 549.496s-62.958-22.262-133.65-22.262c-87.283 0-138.02 25.537-138.02 25.537l128.941-75.725 142.73 72.45z" fill="#afbc21"/><path d="M307.809 981.7h-54.634V703.627l54.634-67.967V981.7zM866.163 822.459c-81.175 0-108.67-30.942-108.67-93.275 0-47.558 39.403-93.875 128.087-93.875 76.487 0 121.987.087 121.987.087l-41.275 50.263s-40.208-.208-80.712-.208c-43.708 0-67.63 19.2-67.63 44.925 0 23.791 3.763 44.45 47.617 44.45M1193.472 974.13s-1.017-.167-1.521-.254c-53.833-9.346-88.5-52.159-88.5-120.025V686.12h-44.988l98.975-125.075v72.996h75.2l-42.258 52.08h-32.942V853.85c0 58.483 36 73.287 76.48 70.704l-40.446 49.575zM1544.347 774.8c-13.487-54.012-58.475-89.995-106.692-89.995-45.641 0-93.833 33.425-107.979 89.996h214.671zm28.954 144.626s-.237.329-.358.491c-29.28 40.425-75.154 62.48-132.067 62.48-95.13 0-169.696-75.85-169.696-172.9 0-95.759 74.567-174.188 166.475-174.188 85.496 0 167.759 70.704 167.113 188.342h-278.304c7.075 68.766 59.775 109.27 114.412 109.27 40.888 0 71.525-17.083 90.638-47.02l.208-.334 41.58 33.859zM1944.768 916.684s-.291.413-.437.613c-29.138 40.504-75.9 65.1-131.342 65.1-91.267 0-165.83-77.113-165.83-172.9 0-95.759 74.563-174.188 165.83-174.188 54.992 0 101.096 24.192 130.363 64.108.362.496 1.075 1.492 1.075 1.492s-36.071 44.187-36.275 43.808c-.105-.2-.217-.4-.325-.6-18.821-35.046-52.48-58.666-94.838-58.666-61.067 0-111.192 55.929-111.192 124.045 0 68.146 50.125 122.78 111.192 122.78 39.108 0 70.488-19.559 89.554-49.475l.417-.65 41.808 34.533zM543.696 685.45c52.688 0 80.975 37.276 80.975 88.038v209.5h53.988V775.426c0-82.275-46.288-140.117-127.275-140.117H530.32c-80.987 0-127.267 57.842-127.267 140.117V981.7h54.005V773.488c0-49.758 27.233-86.458 77.946-87.92l8.691-.117z" fill="#fff"/><path d="M913.172 774.634c59.487.383 104.737 30.033 104.737 103.533 0 57.696-41.067 102.742-129.77 102.742-76.493 0-123.547.98-123.547.98l.704-51.763s82.363.67 122.842.67c43.709 0 69.317-22.595 69.317-53.824 0-28.046-15.804-53.942-52.554-53.942l-38.738-.571-8.891-47.442 55.9-.383z" fill="#fff"/><path d="M1995.04 533.538v20.475h-4.738v-20.475h-6.667v-4.413h18.067v4.413h-6.663zM2029.056 554.013h-4.663v-18.25l-5.054 18.25h-5.062l-5.055-18.25v18.25h-4.662v-24.888h7.03l5.2 18.65 5.2-18.65h7.066v24.888z" fill="#aebd36"/></g></svg>