<svg viewBox="0 0 536 243" xmlns="http://www.w3.org/2000/svg" fill-rule="evenodd" clip-rule="evenodd" stroke-linejoin="round" stroke-miterlimit="2" width="536" height="243"><g><g><g><path d="M-.079.199L.376-.837 1.04.837-.079.199z" fill="url(#_Linear1)" fill-rule="nonzero" transform="scale(68.06464 -68.06464) rotate(89.998 3.22 1.227)"/></g></g><g><g><path d="M.026.21l.309-.422 1.543.424L.026.21z" fill="url(#_Linear2)" fill-rule="nonzero" transform="scale(-54.80928 54.80928) rotate(-75.69 -.677 4.792)"/></g></g><g><g><path d="M-2.722.828h1.947l1.34.625-2.309-3.373-.978 2.748z" fill="url(#_Linear3)" fill-rule="nonzero" transform="scale(-24.82664 24.82664) rotate(48.761 -10.825 -8.649)"/></g></g><g><g><path d="M0 .197l1-.234-.5-.16-.5.394z" fill="url(#_Linear4)" fill-rule="nonzero" transform="scale(-98.81662 98.81662) rotate(-62.489 -.172 3.184)"/></g></g><g><g><path d="M1.012-.228L-.139.006.976.228l.036-.456z" fill="url(#_Linear5)" fill-rule="nonzero" transform="scale(-113.29947 113.29947) rotate(40.701 -1.658 -4.116)"/></g></g><g><g><path d="M0 3.167h1v-5.09L0-3.166v6.333z" fill="url(#_Linear6)" fill-rule="nonzero" transform="matrix(-8.3938 0 0 8.3938 8.396 190.787)"/></g></g><g><g><path d="M0 .464h.257v-.956c0-.387.197-.63.504-.684l.009-.001.23.282c-.231-.014-.436.07-.436.403v.956h.188l.241.297H.564v.416L0 .464z" fill="url(#_Linear7)" fill-rule="nonzero" transform="matrix(26.9559 0 0 -26.9559 123.717 184.472)"/></g></g><g><g><path d="M0-.002C0-.293.224-.52.509-.52a.47.47 0 01.397.189L.781-.23.78-.231a.303.303 0 00-.271-.141.348.348 0 00-.343.328H1C1.002.308.755.52.499.52A.512.512 0 010-.002zm.499.374c.145 0 .279-.108.32-.27H.175c.043.17.187.27.324.27z" fill="url(#_Linear8)" fill-rule="nonzero" transform="matrix(51.2513 0 0 -51.2513 156.4 190.816)"/></g></g><g><g><path d="M0-.002a.57.57 0 01.557-.581c.186 0 .344.082.441.219L1-.362l-.14.116-.002-.002a.348.348 0 00-.301-.167c-.205 0-.373.184-.373.413 0 .229.168.417.373.417.142 0 .256-.08.319-.197L.877.216C.878.214.999.363.999.363L.995.368a.53.53 0 01-.438.215C.251.583 0 .32 0-.002z" fill="url(#_Linear9)" fill-rule="nonzero" transform="matrix(45.72295 0 0 -45.72295 214.163 190.816)"/></g></g><g><g><path d="M.462.631C.168.631 0 .421 0 .122v-.748h.196v.755c0 .181.099.314.283.319L.51.449c.191 0 .294-.136.294-.32v-.76H1v.753C1 .421.832.631.538.631H.462z" fill="url(#_Linear10)" fill-rule="nonzero" transform="matrix(42.34212 0 0 -42.34212 23.025 190.858)"/></g></g><g><g><path d="M0 .305c0-.239.106-.358.417-.358l.149-.003c.141 0 .202-.099.202-.207 0-.12-.098-.206-.266-.206L.03-.467.027-.665s.181.003.475.003c.34 0 .498.173.498.395C1 .015.826.129.598.13L.415.129V.13C.247.13.232.209.232.3c0 .099.092.173.26.173l.31-.001.158.193H.492C.151.665 0 .487 0 .305z" fill="url(#_Linear11)" fill-rule="nonzero" transform="matrix(40.00957 0 0 -40.00957 77.48 190.771)"/></g></g><g><g><path d="M.391-.068h.656v.135H.223l.168-.135z" fill="url(#_Linear12)" fill-rule="nonzero" transform="matrix(0 63.40172 63.40172 0 425.392 149.091)"/></g></g><g><g><path d="M.495-.388l.676-.041.164.115-.553.034a.35.35 0 01.149.264.397.397 0 01-.388.417.4.4 0 01-.438-.37c-.014-.223.157-.405.39-.419zm.007.128C.339-.25.217-.12.225.024.234.17.37.282.535.272.7.262.821.135.812-.012.803-.157.666-.27.502-.26z" fill="url(#_Linear13)" fill-rule="nonzero" transform="scale(63.4017 -63.4017) rotate(-86.505 1.044 -3.743)"/></g></g><g><g><path d="M.177-.105l.546-.034c.162-.009.271.065.305.189v.001L.913.157C.907.063.863-.014.727-.006L.02.037l.157-.142z" fill="url(#_Linear14)" fill-rule="nonzero" transform="scale(63.4017 -63.4017) rotate(-86.505 1.886 -4.535)"/></g></g><g><g><path d="M.551-.394a.399.399 0 01.432.369.399.399 0 01-.384.419.403.403 0 01-.438-.369.403.403 0 01.39-.419zm.008.131c-.16.01-.284.136-.275.281.009.145.147.256.307.246C.747.255.868.128.859-.018.85-.162.715-.273.559-.263z" fill="url(#_Linear15)" fill-rule="nonzero" transform="scale(63.4017 -63.4017) rotate(-86.505 1.529 -4.198)"/></g></g><g><g><path d="M.652-.346a.402.402 0 01.433.367.376.376 0 01-.135.32L.948.343.861.249.862.248a.247.247 0 00.104-.22C.957-.116.821-.227.66-.217.499-.207.373-.08.382.064a.251.251 0 00.154.217 8.8 8.8 0 01-.098.092L.434.371a.373.373 0 01-.17-.3.403.403 0 01.388-.417z" fill="url(#_Linear16)" fill-rule="nonzero" transform="scale(63.4017 -63.4017) rotate(-86.505 2.379 -4.996)"/></g></g><g><g><path d="M.323.247L.664.103l.281-.12-.649-.186-.009-.142.842.249.161-.069c.123-.053.128-.14.092-.225l.153.11c-.006.097-.07.182-.189.233l-.538.23L.332.39.323.247z" fill="url(#_Linear17)" fill-rule="nonzero" transform="scale(63.4017 -63.4017) rotate(-86.505 2.815 -5.406)"/></g></g></g><defs><linearGradient id="_Linear1" x1="0" y1="0" x2="1" y2="0" gradientUnits="userSpaceOnUse" gradientTransform="matrix(1 0 0 -1 0 0)"><stop offset="0" stop-color="#3b8db5"/><stop offset="1" stop-color="#8ed5f6"/></linearGradient><linearGradient id="_Linear2" x1="0" y1="0" x2="1" y2="0" gradientUnits="userSpaceOnUse" gradientTransform="matrix(1 0 0 -1 0 0)"><stop offset="0" stop-color="#3b8db5"/><stop offset="1" stop-color="#8ed5f6"/></linearGradient><linearGradient id="_Linear3" x1="0" y1="0" x2="1" y2="0" gradientUnits="userSpaceOnUse" gradientTransform="scale(-1 1) rotate(70.637 0 .957)"><stop offset="0" stop-color="#044966"/><stop offset="1" stop-color="#8ed5f6"/></linearGradient><linearGradient id="_Linear4" x1="0" y1="0" x2="1" y2="0" gradientUnits="userSpaceOnUse" gradientTransform="matrix(1 0 0 -1 0 0)"><stop offset="0" stop-color="#3b8db5"/><stop offset="1" stop-color="#8ed5f6"/></linearGradient><linearGradient id="_Linear5" x1="0" y1="0" x2="1" y2="0" gradientUnits="userSpaceOnUse" gradientTransform="matrix(1 0 0 -1 0 0)"><stop offset="0" stop-color="#3b8db5"/><stop offset="1" stop-color="#8ed5f6"/></linearGradient><linearGradient id="_Linear6" x1="0" y1="0" x2="1" y2="0" gradientUnits="userSpaceOnUse" gradientTransform="matrix(-1 0 0 1 1 0)"><stop offset="0" stop-color="#06303e"/><stop offset="1" stop-color="#030404"/></linearGradient><linearGradient id="_Linear7" x1="0" y1="0" x2="1" y2="0" gradientUnits="userSpaceOnUse" gradientTransform="matrix(1 0 0 -1 0 0)"><stop offset="0" stop-color="#06303e"/><stop offset="1" stop-color="#030404"/></linearGradient><linearGradient id="_Linear8" x1="0" y1="0" x2="1" y2="0" gradientUnits="userSpaceOnUse" gradientTransform="matrix(1 0 0 -1 0 0)"><stop offset="0" stop-color="#06303e"/><stop offset="1" stop-color="#030404"/></linearGradient><linearGradient id="_Linear9" x1="0" y1="0" x2="1" y2="0" gradientUnits="userSpaceOnUse" gradientTransform="matrix(1 0 0 -1 0 0)"><stop offset="0" stop-color="#06303e"/><stop offset="1" stop-color="#030404"/></linearGradient><linearGradient id="_Linear10" x1="0" y1="0" x2="1" y2="0" gradientUnits="userSpaceOnUse" gradientTransform="matrix(1 0 0 -1 0 0)"><stop offset="0" stop-color="#06303e"/><stop offset="1" stop-color="#030404"/></linearGradient><linearGradient id="_Linear11" x1="0" y1="0" x2="1" y2="0" gradientUnits="userSpaceOnUse" gradientTransform="matrix(1 0 0 -1 0 0)"><stop offset="0" stop-color="#06303e"/><stop offset="1" stop-color="#030404"/></linearGradient><linearGradient id="_Linear12" x1="0" y1="0" x2="1" y2="0" gradientUnits="userSpaceOnUse" gradientTransform="scale(1 -1) rotate(-3.495 .64 0)"><stop offset="0" stop-color="#3f95bf"/><stop offset="1" stop-color="#138dbf"/></linearGradient><linearGradient id="_Linear13" x1="0" y1="0" x2="1" y2="0" gradientUnits="userSpaceOnUse" gradientTransform="matrix(1 0 0 -1 0 -.014)"><stop offset="0" stop-color="#3f95bf"/><stop offset="1" stop-color="#138dbf"/></linearGradient><linearGradient id="_Linear14" x1="0" y1="0" x2="1" y2="0" gradientUnits="userSpaceOnUse" gradientTransform="matrix(1 0 0 -1 0 .009)"><stop offset="0" stop-color="#3f95bf"/><stop offset="1" stop-color="#138dbf"/></linearGradient><linearGradient id="_Linear15" x1="0" y1="0" x2="1" y2="0" gradientUnits="userSpaceOnUse" gradientTransform="matrix(1 0 0 -1 0 0)"><stop offset="0" stop-color="#3f95bf"/><stop offset="1" stop-color="#138dbf"/></linearGradient><linearGradient id="_Linear16" x1="0" y1="0" x2="1" y2="0" gradientUnits="userSpaceOnUse" gradientTransform="matrix(1 0 0 -1 0 .013)"><stop offset="0" stop-color="#3f95bf"/><stop offset="1" stop-color="#138dbf"/></linearGradient><linearGradient id="_Linear17" x1="0" y1="0" x2="1" y2="0" gradientUnits="userSpaceOnUse" gradientTransform="matrix(1 0 0 -1 0 0)"><stop offset="0" stop-color="#3f95bf"/><stop offset="1" stop-color="#138dbf"/></linearGradient></defs></svg>