<svg viewBox="0 0 540 218" xmlns="http://www.w3.org/2000/svg" fill-rule="evenodd" clip-rule="evenodd" stroke-linejoin="round" stroke-miterlimit="2" width="540" height="218"><g><g><g><path d="M-.079.199L.376-.837 1.04.837-.079.199z" fill="url(#_Linear1)" fill-rule="nonzero" transform="scale(68.06464 -68.06464) rotate(89.998 3.22 1.227)"/></g></g><g><g><path d="M.026.21l.309-.422 1.543.424L.026.21z" fill="url(#_Linear2)" fill-rule="nonzero" transform="scale(-54.80928 54.80928) rotate(-75.69 -.677 4.792)"/></g></g><g><g><path d="M-1.312-.487h.636l1.183-.724L.172.982-1.312-.487z" fill="url(#_Linear3)" fill-rule="nonzero" transform="scale(48.60433 -48.60433) rotate(59.672 4.635 4.08)"/></g></g><g><g><path d="M-.079.409L.997-1.047l.043 2.094L-.079.409z" fill="url(#_Linear4)" fill-rule="nonzero" transform="scale(61.12922 -61.12922) rotate(89.998 3.585 1.482)"/></g></g><g><g><path d="M.026.188L.492-.19l1.386.38L.026.188z" fill="url(#_Linear5)" fill-rule="nonzero" transform="scale(-54.80928 54.80928) rotate(-75.69 -.663 4.781)"/></g></g><g><g opacity=".5"><g><path d="M283.362 77.47l7.171 2.437-7.95 21.55-11.646 61.775-5.366-20.916 17.791-64.846z" fill="#003916" fill-rule="nonzero"/></g></g></g><g><g><path d="M-1.741-.151h.874L.974-1.197.327 1.104-1.741-.151z" fill="url(#_Linear6)" fill-rule="nonzero" transform="scale(41.95154 -41.95154) rotate(73.13 4.88 3.506)"/></g></g><g><g><path d="M0 .197l1-.234-.5-.16-.5.394z" fill="url(#_Linear7)" fill-rule="nonzero" transform="scale(-98.81662 98.81662) rotate(-62.489 -.172 3.184)"/></g></g><g><g><path d="M1.012-.228L-.139.006.976.228l.036-.456z" fill="url(#_Linear8)" fill-rule="nonzero" transform="scale(-113.29947 113.29947) rotate(40.701 -1.658 -4.116)"/></g></g><g><g><path d="M8.4 217.781H.008v-42.72L8.4 164.619v53.162z" fill="#fff" fill-rule="nonzero"/></g></g><g><g><path d="M94.183 193.316c-12.47 0-16.696-4.754-16.696-14.329 0-7.308 6.054-14.42 19.68-14.42 11.753 0 18.74.012 18.74.012l-6.34 7.72s-6.18-.033-12.4-.033c-6.717 0-10.392 2.95-10.392 6.905 0 3.654.579 6.829 7.316 6.829" fill="#fff" fill-rule="nonzero"/></g></g><g><g><path d="M144.47 216.62s-.158-.025-.233-.042c-8.27-1.433-13.596-8.012-13.596-18.437V172.37h-6.912l15.204-19.213v11.213h11.554l-6.492 8h-5.062v25.77c0 8.984 5.533 11.259 11.75 10.863l-6.213 7.617z" fill="#fff" fill-rule="nonzero"/></g></g><g><g><path d="M198.375 185.994c-2.071-8.295-8.984-13.825-16.392-13.825-7.013 0-14.417 5.134-16.592 13.825h32.984zm4.45 22.221s-.038.05-.059.075c-4.495 6.209-11.545 9.6-20.287 9.6-14.617 0-26.071-11.654-26.071-26.562 0-14.713 11.454-26.763 25.575-26.763 13.133 0 25.775 10.863 25.675 28.934H164.9c1.087 10.566 9.183 16.791 17.579 16.791 6.279 0 10.987-2.625 13.925-7.225.008-.016.033-.054.033-.054l6.388 5.204z" fill="#fff" fill-rule="nonzero"/></g></g><g><g><path d="M259.896 207.794l-.067.092c-4.475 6.225-11.663 10.004-20.18 10.004-14.02 0-25.478-11.846-25.478-26.563 0-14.712 11.458-26.762 25.479-26.762 8.446 0 15.533 3.716 20.029 9.85l.162.225s-5.541 6.791-5.57 6.733l-.05-.092c-2.892-5.383-8.063-9.012-14.571-9.012-9.384 0-17.084 8.592-17.084 19.058 0 10.467 7.7 18.863 17.084 18.863 6.008 0 10.829-3.004 13.758-7.604.02-.034.063-.096.063-.096l6.425 5.304z" fill="#fff" fill-rule="nonzero"/></g></g><g><g><path d="M44.641 172.268c8.096 0 12.442 5.729 12.442 13.525v32.187h8.296V186.09c0-12.638-7.113-21.526-19.554-21.526h-3.238c-12.442 0-19.554 8.888-19.554 21.526v31.691h8.3v-31.987c0-7.642 4.183-13.284 11.975-13.509l1.333-.016z" fill="#fff" fill-rule="nonzero"/></g></g><g><g><path d="M101.404 185.97c9.137.059 16.091 4.613 16.091 15.904 0 8.867-6.308 15.788-19.937 15.788-11.75 0-18.983.15-18.983.15l.108-7.954s12.654.104 18.875.104c6.712 0 10.65-3.471 10.65-8.271 0-4.308-2.43-8.283-8.075-8.283l-5.95-.092-1.367-7.287 8.588-.059z" fill="#fff" fill-rule="nonzero"/></g></g><g><g><path d="M.429-.04h.38v.078H.332L.429-.04z" fill="url(#_Linear9)" fill-rule="nonzero" transform="matrix(0 112.76884 112.76884 0 473.38 126.346)"/></g></g><g><g><path d="M.384.166A.201.201 0 01.288.021a.23.23 0 01.207-.255.23.23 0 01.266.195C.777.089.686.2.553.217l-.387.05-.098-.06.316-.041zm.12-.326C.41-.148.346-.07.356.014c.011.083.094.142.188.13C.637.132.703.052.692-.03.681-.114.599-.172.504-.16z" fill="url(#_Linear10)" fill-rule="nonzero" transform="scale(112.76897 -112.76897) rotate(-82.616 1.226 -2.737)"/></g></g><g><g><path d="M.333.137L.518.113C.587.104.632.052.622-.019.613-.091.557-.131.487-.122l-.278.036.084-.088.185-.023a.186.186 0 01.218.168.188.188 0 01-.168.219l-.28.036.085-.089z" fill="url(#_Linear11)" fill-rule="nonzero" transform="scale(112.76897 -112.76897) rotate(-82.616 .937 -2.483)"/></g></g><g><g><path d="M.589-.226a.23.23 0 01.264.195.23.23 0 01-.205.257C.517.243.397.159.381.031a.232.232 0 01.208-.257zm.01.075C.507-.139.441-.062.451.021c.011.084.095.143.187.131.09-.012.155-.09.144-.173C.771-.104.689-.163.599-.151z" fill="url(#_Linear12)" fill-rule="nonzero" transform="scale(112.76897 -112.76897) rotate(-82.616 1.627 -3.09)"/></g></g><g><g><path d="M.231-.123l.008.061.229-.03c.092-.012.157.028.179.1L.648.01.587.074C.584.018.557-.028.477-.018l-.228.03.005.045-.063.066L.177.021.078.034l.153-.157z" fill="url(#_Linear13)" fill-rule="nonzero" transform="scale(112.76897 -112.76897) rotate(-82.616 .741 -2.311)"/></g></g><g><g><path d="M.236-.161c.085-.011.132.021.147.131L.39.023c.007.05.045.067.083.062C.516.08.542.041.534-.019a36.488 36.488 0 00-.022-.167l.07-.01.021.168C.618.093.564.157.485.168.385.18.337.124.326.043L.318-.022C.31-.082.281-.083.248-.079c-.035.004-.057.04-.049.1l.015.11-.062.065L.131.03c-.016-.121.04-.183.105-.191z" fill="url(#_Linear14)" fill-rule="nonzero" transform="scale(112.76897 -112.76897) rotate(-82.616 .53 -2.126)"/></g></g></g><defs><linearGradient id="_Linear1" x1="0" y1="0" x2="1" y2="0" gradientUnits="userSpaceOnUse" gradientTransform="matrix(1 0 0 -1 0 0)"><stop offset="0" stop-color="#3b8db5"/><stop offset="1" stop-color="#8ed5f6"/></linearGradient><linearGradient id="_Linear2" x1="0" y1="0" x2="1" y2="0" gradientUnits="userSpaceOnUse" gradientTransform="matrix(1 0 0 -1 0 0)"><stop offset="0" stop-color="#3b8db5"/><stop offset="1" stop-color="#8ed5f6"/></linearGradient><linearGradient id="_Linear3" x1="0" y1="0" x2="1" y2="0" gradientUnits="userSpaceOnUse" gradientTransform="scale(-1 1) rotate(-78.663 0 -.284)"><stop offset="0" stop-color="#044966"/><stop offset=".17" stop-color="#044966"/><stop offset="1" stop-color="#8ed5f6"/></linearGradient><linearGradient id="_Linear4" x1="0" y1="0" x2="1" y2="0" gradientUnits="userSpaceOnUse" gradientTransform="matrix(1 0 0 -1 0 0)"><stop offset="0" stop-color="#515352"/><stop offset="1" stop-color="#a7a9ac"/></linearGradient><linearGradient id="_Linear5" x1="0" y1="0" x2="1" y2="0" gradientUnits="userSpaceOnUse" gradientTransform="matrix(1 0 0 -1 0 0)"><stop offset="0" stop-color="#515352"/><stop offset="1" stop-color="#7d7e7e"/></linearGradient><linearGradient id="_Linear6" x1="0" y1="0" x2="1" y2="0" gradientUnits="userSpaceOnUse" gradientTransform="scale(-1 1) rotate(-87.349 0 -.369)"><stop offset="0" stop-color="#515352"/><stop offset=".03" stop-color="#515352"/><stop offset="1" stop-color="#a6a5a6"/></linearGradient><linearGradient id="_Linear7" x1="0" y1="0" x2="1" y2="0" gradientUnits="userSpaceOnUse" gradientTransform="matrix(1 0 0 -1 0 0)"><stop offset="0" stop-color="#8ed5f6"/><stop offset="1" stop-color="#3b8db5"/></linearGradient><linearGradient id="_Linear8" x1="0" y1="0" x2="1" y2="0" gradientUnits="userSpaceOnUse" gradientTransform="matrix(1 0 0 -1 0 0)"><stop offset="0" stop-color="#3b8db5"/><stop offset="1" stop-color="#8ed5f6"/></linearGradient><linearGradient id="_Linear9" x1="0" y1="0" x2="1" y2="0" gradientUnits="userSpaceOnUse" gradientTransform="scale(1 -1) rotate(-7.384 .575 0)"><stop offset="0" stop-color="#a7a5a6"/><stop offset="1" stop-color="#4f4c4d"/></linearGradient><linearGradient id="_Linear10" x1="0" y1="0" x2="1" y2="0" gradientUnits="userSpaceOnUse" gradientTransform="matrix(1 0 0 -1 0 .015)"><stop offset="0" stop-color="#a7a5a6"/><stop offset="1" stop-color="#4f4c4d"/></linearGradient><linearGradient id="_Linear11" x1="0" y1="0" x2="1" y2="0" gradientUnits="userSpaceOnUse" gradientTransform="matrix(1 0 0 -1 0 .013)"><stop offset="0" stop-color="#a7a5a6"/><stop offset="1" stop-color="#4f4c4d"/></linearGradient><linearGradient id="_Linear12" x1="0" y1="0" x2="1" y2="0" gradientUnits="userSpaceOnUse" gradientTransform="matrix(1 0 0 -1 0 0)"><stop offset="0" stop-color="#a7a5a6"/><stop offset="1" stop-color="#4f4c4d"/></linearGradient><linearGradient id="_Linear13" x1="0" y1="0" x2="1" y2="0" gradientUnits="userSpaceOnUse" gradientTransform="matrix(1 0 0 -1 0 0)"><stop offset="0" stop-color="#a7a5a6"/><stop offset="1" stop-color="#4f4c4d"/></linearGradient><linearGradient id="_Linear14" x1="0" y1="0" x2="1" y2="0" gradientUnits="userSpaceOnUse" gradientTransform="matrix(1 0 0 -1 0 0)"><stop offset="0" stop-color="#a7a5a6"/><stop offset="1" stop-color="#4f4c4d"/></linearGradient></defs></svg>