<svg viewBox="0 0 651 142" xmlns="http://www.w3.org/2000/svg" fill-rule="evenodd" clip-rule="evenodd" stroke-linejoin="round" stroke-miterlimit="2" width="651" height="142"><g><g><g><path d="M-.079.199L.376-.837 1.04.837-.079.199z" fill="url(#_Linear1)" fill-rule="nonzero" transform="scale(57.9863 -57.9863) rotate(89.998 6.17 4.176)"/></g></g><g><g><path d="M.026.21l.309-.422 1.542.424L.026.21z" fill="url(#_Linear2)" fill-rule="nonzero" transform="scale(-46.69374 46.69374) rotate(-75.69 -4.339 9.505)"/></g></g><g><g><path d="M-2.722.828h1.947l1.34.624-2.309-3.372-.978 2.748z" fill="url(#_Linear3)" fill-rule="nonzero" transform="scale(-21.15056 21.15056) rotate(48.766 -18.91 -26.485)"/></g></g><g><g><path d="M0 .197l.5-.394.5.16-1 .234z" fill="url(#_Linear4)" fill-rule="nonzero" transform="scale(-84.18509 84.18509) rotate(-62.489 -2.203 6.532)"/></g></g><g><g><path d="M1.012-.228L.976.228-.139.006l1.151-.234z" fill="url(#_Linear5)" fill-rule="nonzero" transform="scale(-96.52298 96.52298) rotate(40.701 -3.43 -8.892)"/></g></g><g><g><path d="M8.395 116.145H-.001v-42.72l8.396-10.447v53.167z" fill="#fff" fill-rule="nonzero"/></g></g><g><g><path d="M144.462 114.981l-.234-.037c-8.27-1.438-13.596-8.017-13.596-18.442v-25.77h-6.912l15.208-19.213V62.73h11.55l-6.491 8h-5.059v25.771c0 8.988 5.53 11.259 11.746 10.863l-6.212 7.616z" fill="#fff" fill-rule="nonzero"/></g></g><g><g><path d="M198.37 84.358c-2.07-8.3-8.983-13.825-16.392-13.825-7.008 0-14.416 5.133-16.587 13.825h32.979zm4.446 22.22s-.03.05-.05.076c-4.5 6.208-11.55 9.595-20.292 9.595-14.612 0-26.07-11.65-26.07-26.562 0-14.708 11.458-26.763 25.574-26.763 13.138 0 25.775 10.863 25.68 28.938h-42.759c1.088 10.562 9.183 16.787 17.575 16.787 6.28 0 10.988-2.625 13.925-7.22.008-.021.033-.055.033-.055l6.384 5.205z" fill="#fff" fill-rule="nonzero"/></g></g><g><g><path d="M259.89 106.156l-.066.091c-4.475 6.225-11.658 10.004-20.175 10.004-14.029 0-25.483-11.845-25.483-26.562 0-14.713 11.454-26.763 25.483-26.763 8.446 0 15.53 3.717 20.025 9.85l.163.23s-5.542 6.787-5.571 6.729a1.82 1.82 0 01-.05-.092c-2.892-5.383-8.063-9.012-14.567-9.012-9.383 0-17.087 8.591-17.087 19.058 0 10.47 7.704 18.862 17.087 18.862 6.004 0 10.825-3.004 13.754-7.604l.067-.096 6.42 5.305z" fill="#fff" fill-rule="nonzero"/></g></g><g><g><path d="M44.632 70.629c8.096 0 12.442 5.73 12.442 13.53v32.182h8.296V84.454c0-12.642-7.113-21.53-19.554-21.53h-3.238c-12.441 0-19.554 8.888-19.554 21.53v31.692h8.3V84.158c0-7.646 4.183-13.283 11.975-13.512l1.333-.017z" fill="#fff" fill-rule="nonzero"/></g></g><g><g><path d="M101.4 84.331l-7.318.05v-.02c-6.733 0-7.316-3.171-7.316-6.83 0-3.954 3.679-6.904 10.391-6.904 6.225 0 12.4.034 12.4.034l6.342-7.721s-6.987-.013-18.742-.013c-13.62 0-19.675 7.117-19.675 14.421 0 9.58 4.221 14.333 16.696 14.333l5.946.088c5.65 0 8.08 3.975 8.08 8.283 0 4.8-3.938 8.271-10.65 8.271-6.222 0-18.876-.104-18.876-.104l-.108 7.954s7.233-.15 18.983-.15c13.63 0 19.934-6.92 19.934-15.787 0-11.292-6.95-15.846-16.088-15.905" fill="#fff" fill-rule="nonzero"/></g></g><g><g><path d="M.391-.068h.656v.135H.223l.168-.135z" fill="url(#_Linear6)" fill-rule="nonzero" transform="matrix(0 63.40172 63.40172 0 425.4 47.866)"/></g></g><g><g><path d="M.495-.388l.676-.041.164.115-.553.034a.35.35 0 01.149.264.397.397 0 01-.388.417.4.4 0 01-.438-.37c-.014-.223.158-.405.39-.419zm.007.128C.339-.25.217-.12.225.024.234.17.37.282.535.272.7.262.821.135.812-.012.803-.157.666-.27.502-.26z" fill="url(#_Linear7)" fill-rule="nonzero" transform="scale(63.4017 -63.4017) rotate(-86.505 1.893 -2.944)"/></g></g><g><g><path d="M.177-.105l.546-.034c.162-.009.271.065.305.189v.001L.913.157C.907.063.863-.014.727-.006L.02.037l.157-.142z" fill="url(#_Linear8)" fill-rule="nonzero" transform="scale(63.4017 -63.4017) rotate(-86.505 2.735 -3.736)"/></g></g><g><g><path d="M.551-.394a.399.399 0 01.432.369.399.399 0 01-.384.419C.371.407.175.249.161.025a.403.403 0 01.39-.419zm.007.131c-.159.01-.283.136-.274.281.009.146.147.256.307.246C.747.255.868.128.859-.017.85-.162.715-.273.558-.263z" fill="url(#_Linear9)" fill-rule="nonzero" transform="scale(63.4017 -63.4017) rotate(-86.505 2.377 -3.4)"/></g></g><g><g><path d="M.652-.346a.402.402 0 01.433.367.374.374 0 01-.135.32L.948.343.861.249.862.248A.247.247 0 00.966.029C.957-.116.821-.227.66-.217.499-.207.373-.08.382.064c.006.1.067.177.153.216l.001.001a8.8 8.8 0 01-.098.092L.434.371a.374.374 0 01-.17-.3.404.404 0 01.388-.417z" fill="url(#_Linear10)" fill-rule="nonzero" transform="scale(63.4017 -63.4017) rotate(-86.505 3.227 -4.197)"/></g></g><g><g><path d="M.323.248L.664.103l.281-.12-.649-.186-.009-.142.842.249.161-.069c.123-.053.128-.14.092-.225l.153.11c-.006.097-.07.182-.189.233l-.538.23L.332.39.323.248z" fill="url(#_Linear11)" fill-rule="nonzero" transform="scale(63.4017 -63.4017) rotate(-86.505 3.664 -4.608)"/></g></g></g><defs><linearGradient id="_Linear1" x1="0" y1="0" x2="1" y2="0" gradientUnits="userSpaceOnUse" gradientTransform="matrix(1 0 0 -1 0 0)"><stop offset="0" stop-color="#3b8db5"/><stop offset="1" stop-color="#8ed5f6"/></linearGradient><linearGradient id="_Linear2" x1="0" y1="0" x2="1" y2="0" gradientUnits="userSpaceOnUse" gradientTransform="matrix(1 0 0 -1 0 0)"><stop offset="0" stop-color="#3b8db5"/><stop offset="1" stop-color="#8ed5f6"/></linearGradient><linearGradient id="_Linear3" x1="0" y1="0" x2="1" y2="0" gradientUnits="userSpaceOnUse" gradientTransform="scale(-1 1) rotate(70.643 0 .957)"><stop offset="0" stop-color="#044966"/><stop offset="1" stop-color="#8ed5f6"/></linearGradient><linearGradient id="_Linear4" x1="0" y1="0" x2="1" y2="0" gradientUnits="userSpaceOnUse" gradientTransform="matrix(1 0 0 -1 0 0)"><stop offset="0" stop-color="#3b8db5"/><stop offset="1" stop-color="#8ed5f6"/></linearGradient><linearGradient id="_Linear5" x1="0" y1="0" x2="1" y2="0" gradientUnits="userSpaceOnUse" gradientTransform="matrix(1 0 0 -1 0 0)"><stop offset="0" stop-color="#3b8db5"/><stop offset="1" stop-color="#8ed5f6"/></linearGradient><linearGradient id="_Linear6" x1="0" y1="0" x2="1" y2="0" gradientUnits="userSpaceOnUse" gradientTransform="scale(1 -1) rotate(-3.495 .64 0)"><stop offset="0" stop-color="#3f95bf"/><stop offset="1" stop-color="#138dbf"/></linearGradient><linearGradient id="_Linear7" x1="0" y1="0" x2="1" y2="0" gradientUnits="userSpaceOnUse" gradientTransform="matrix(1 0 0 -1 0 -.014)"><stop offset="0" stop-color="#3f95bf"/><stop offset="1" stop-color="#138dbf"/></linearGradient><linearGradient id="_Linear8" x1="0" y1="0" x2="1" y2="0" gradientUnits="userSpaceOnUse" gradientTransform="matrix(1 0 0 -1 0 .009)"><stop offset="0" stop-color="#3f95bf"/><stop offset="1" stop-color="#138dbf"/></linearGradient><linearGradient id="_Linear9" x1="0" y1="0" x2="1" y2="0" gradientUnits="userSpaceOnUse" gradientTransform="matrix(1 0 0 -1 0 0)"><stop offset="0" stop-color="#3f95bf"/><stop offset="1" stop-color="#138dbf"/></linearGradient><linearGradient id="_Linear10" x1="0" y1="0" x2="1" y2="0" gradientUnits="userSpaceOnUse" gradientTransform="matrix(1 0 0 -1 0 .013)"><stop offset="0" stop-color="#3f95bf"/><stop offset="1" stop-color="#138dbf"/></linearGradient><linearGradient id="_Linear11" x1="0" y1="0" x2="1" y2="0" gradientUnits="userSpaceOnUse" gradientTransform="matrix(1 0 0 -1 0 0)"><stop offset="0" stop-color="#3f95bf"/><stop offset="1" stop-color="#138dbf"/></linearGradient></defs></svg>