<svg xmlns="http://www.w3.org/2000/svg" xmlns:xlink="http://www.w3.org/1999/xlink" width="752" height="488" viewBox="0 0 752 488"><svg width="32" height="32" viewBox="0 0 32 32"><path d="M30 16l-8.485 8.485-2.828-2.828L24.343 16l-5.657-5.657 2.828-2.828L30 16zM2 16l8.485-8.485 2.828 2.828L7.657 16l5.657 5.657-2.828 2.828L2 16z"/></svg><svg width="32" height="32" viewBox="0 0 32 32" x="48"><path d="M8 18h16v4H8v-4zm0-8v4h16v-4H8z"/></svg><svg width="32" height="32" viewBox="0 0 32 32" x="96"><path d="M16 0C7.163 0 0 7.163 0 16s7.163 16 16 16 16-7.163 16-16S24.837 0 16 0zM3 16C3 8.82 8.82 3 16 3c3.424 0 6.538 1.325 8.86 3.488L12 12 6.488 24.86A12.952 12.952 0 013 16zm15.286 2.286l-8.003 3.43 3.43-8.003 4.573 4.573zM16 29a12.955 12.955 0 01-8.86-3.488L20 20l5.512-12.86A12.952 12.952 0 0129 16c0 7.18-5.82 13-13 13z"/></svg><svg width="24" height="24" viewBox="0 0 24 24" y="48"><path d="M19.252 15.104L12.73 21.6c-.209.209-.47.313-.73.313s-.522-.104-.73-.313l-6.522-6.496c-.417-.417-.417-1.07 0-1.487s1.07-.417 1.487 0l4.722 4.748V3.13c0-.574.47-1.043 1.043-1.043s1.043.47 1.043 1.043v15.235l4.748-4.722a1.04 1.04 0 011.487 0c.391.391.391 1.043-.026 1.461z"/></svg><svg width="24" height="24" viewBox="0 0 24 24" x="40" y="48"><path d="M21.913 12c0 .574-.47 1.043-1.043 1.043H5.635l4.722 4.748a1.04 1.04 0 010 1.487 1.023 1.023 0 01-.73.287.984.984 0 01-.73-.313L2.401 12.73c-.417-.417-.417-1.07 0-1.461l6.496-6.522c.417-.417 1.07-.417 1.487 0s.417 1.07 0 1.487l-4.748 4.722h15.235c.574 0 1.043.47 1.043 1.043z"/></svg><svg width="24" height="24" viewBox="0 0 24 24" x="80" y="48"><path d="M21.6 12.73l-6.496 6.522c-.209.209-.47.313-.73.313s-.522-.104-.73-.313a1.04 1.04 0 010-1.487l4.722-4.722H3.131c-.574 0-1.043-.47-1.043-1.043s.47-1.043 1.043-1.043h15.235l-4.748-4.748c-.417-.417-.417-1.07 0-1.487s1.07-.417 1.487 0l6.496 6.522c.417.417.417 1.096 0 1.487z"/></svg><svg width="24" height="24" viewBox="0 0 24 24" x="120" y="48"><path d="M19.252 10.383c-.209.209-.47.313-.73.313s-.522-.104-.73-.313l-4.748-4.748V20.87c0 .574-.47 1.043-1.043 1.043s-1.043-.47-1.043-1.043V5.635L6.21 10.383c-.417.417-1.07.417-1.487 0s-.417-1.07 0-1.487L11.245 2.4c.417-.417 1.07-.417 1.461 0l6.522 6.496c.443.417.443 1.07.026 1.487z"/></svg><svg width="24" height="24" viewBox="0 0 24 24" x="160" y="48"><path d="M19.826.522H4.174c-.574 0-1.043.47-1.043 1.043v20.87c0 .574.47 1.043 1.043 1.043h15.652c.574 0 1.043-.47 1.043-1.043V1.565c0-.574-.47-1.043-1.043-1.043zm-1.043 20.869H5.218V2.608h13.565v18.783zM7.435 16.957c0-.574.47-1.043 1.043-1.043h7.043c.574 0 1.043.47 1.043 1.043S16.094 18 15.521 18H8.478c-.574 0-1.043-.47-1.043-1.043zM7.591 12c0-.574.47-1.043 1.043-1.043h6.861c.574 0 1.043.47 1.043 1.043s-.47 1.043-1.043 1.043H8.634c-.574 0-1.043-.47-1.043-1.043zm0-4.957c0-.574.47-1.043 1.043-1.043h6.861c.574 0 1.043.47 1.043 1.043s-.47 1.043-1.043 1.043H8.634c-.574 0-1.043-.47-1.043-1.043z"/></svg><svg width="24" height="24" viewBox="0 0 24 24" x="200" y="48"><path d="M23.687 5.974c-.183-.183-.443-.235-.73-.235h-5.478v-3.13c0-.574-.522-1.043-1.096-1.043H7.618c-.574 0-1.096.47-1.096 1.043v3.13H1.044c-.574 0-1.043.339-1.043.913v14.739c0 .574.47 1.043 1.043 1.043h21.913c.574 0 1.043-.47 1.043-1.043V6.704a.984.984 0 00-.313-.73zM8.609 3.652h6.783v2.087H8.609V3.652zm13.304 4.174v5.478h-7.304v-.391c0-.443-.417-.652-.861-.652h-3.496c-.443 0-.861.235-.861.652v.391H2.087V7.826h19.826zm-8.87 6v.522h-2.087v-.522h2.087zM2.087 20.348V14.87h7.304v.261c0 .443.417.783.861.783h3.522c.443 0 .861-.365.861-.783v-.261h7.304v5.478H2.087z"/></svg><svg width="24" height="24" viewBox="0 0 24 24" x="240" y="48"><path d="M8.974 18.783c-.313 0-.6-.104-.835-.339l-5.191-5.191c-.47-.47-.47-1.2 0-1.67s1.2-.47 1.67 0l4.383 4.357L19.41 5.557c.47-.47 1.2-.47 1.67 0s.47 1.2 0 1.67L9.837 18.444a1.244 1.244 0 01-.861.339z"/></svg><svg width="24" height="24" viewBox="0 0 24 24" x="280" y="48"><path d="M12 16.435c-.287 0-.548-.104-.757-.313L4.721 9.339a1.064 1.064 0 01.026-1.487 1.064 1.064 0 011.487.026l5.765 6 5.765-6c.391-.417 1.07-.417 1.487-.026s.417 1.07.026 1.487l-6.522 6.783c-.209.209-.47.313-.757.313z"/></svg><svg width="24" height="24" viewBox="0 0 24 24" x="320" y="48"><path d="M16.122 17.765c.417.391.417 1.07.026 1.487-.209.209-.496.313-.757.313s-.522-.104-.73-.287l-6.783-6.522c-.209-.209-.313-.47-.313-.757s.104-.548.313-.757l6.783-6.522a1.064 1.064 0 011.487.026c.391.417.391 1.07-.026 1.487l-6 5.765 6 5.765z"/></svg><svg width="24" height="24" viewBox="0 0 24 24" x="360" y="48"><path d="M16.435 12c0 .287-.104.548-.313.757l-6.783 6.522a1.12 1.12 0 01-.73.287c-.287 0-.548-.104-.757-.313a1.064 1.064 0 01.026-1.487l6-5.765-6-5.765c-.417-.391-.417-1.07-.026-1.487s1.07-.417 1.487-.026l6.783 6.522c.209.209.313.47.313.757z"/></svg><svg width="24" height="24" viewBox="0 0 24 24" x="400" y="48"><path d="M18.522 16.435c-.287 0-.548-.104-.757-.313l-5.765-6-5.765 6c-.391.417-1.07.417-1.487.026s-.417-1.07-.026-1.487l6.522-6.783c.209-.209.47-.313.757-.313s.548.104.757.313l6.522 6.783c.391.417.391 1.07-.026 1.487a1.12 1.12 0 01-.73.287z"/></svg><svg width="24" height="24" viewBox="0 0 24 24" x="440" y="48"><path d="M20.087 2.348H16.2l-.417-1.096A1.95 1.95 0 0013.957 0h-3.704a1.95 1.95 0 00-1.826 1.252l-.391 1.096H3.914c-.574 0-1.043.522-1.043 1.096v19.513c0 .574.47 1.043 1.043 1.043h16.174c.574 0 1.043-.47 1.043-1.043V3.444c0-.574-.47-1.096-1.043-1.096zM8.765 4.435c.443 0 .835-.261.991-.652l.626-1.696h3.496l.626 1.696c.157.417.548.652.991.652h.835l-.757 1.487a.732.732 0 01-.626.339H9.26a.697.697 0 01-.6-.313l-.861-1.513h.965zm10.278 17.478H4.956V4.435h.443L6.86 7.044c0 .026.026 0 .026.026A2.8 2.8 0 009.26 8.348h5.661c.991 0 1.93-.496 2.426-1.383 0-.026.026-.052.026-.052l1.252-2.478h.417v17.478z"/></svg><svg width="24" height="24" viewBox="0 0 24 24" x="480" y="48"><path d="M12 0C5.374 0 0 5.374 0 12s5.374 12 12 12 12-5.374 12-12S18.626 0 12 0zm0 21.913c-5.478 0-9.913-4.435-9.913-9.913S6.522 2.087 12 2.087 21.913 6.522 21.913 12 17.478 21.913 12 21.913zm3.991-7.409a1.04 1.04 0 010 1.487c-.209.209-.47.313-.73.313s-.522-.104-.73-.313L11.27 12.73a.946.946 0 01-.313-.73V5.791c0-.574.47-1.043 1.043-1.043s1.043.47 1.043 1.043v5.791l2.948 2.922z"/></svg><svg width="24" height="24" viewBox="0 0 24 24" x="520" y="48"><path d="M22.67 10.904l-3.626 3.652c-.209.209-.47.313-.757.313s-.548-.104-.757-.313l-3.6-3.652a1.09 1.09 0 010-1.487 1.09 1.09 0 011.487 0l2.009 2.035c-.261-3.783-3.365-6.783-7.148-6.783-3.939.026-7.148 3.313-7.148 7.33s3.209 7.304 7.174 7.304c1.461 0 2.87-.443 4.043-1.278.47-.339 1.122-.209 1.461.261s.209 1.122-.261 1.461a9.176 9.176 0 01-5.243 1.643c-5.113 0-9.261-4.2-9.261-9.391s4.148-9.391 9.261-9.391c4.8 0 8.765 3.73 9.209 8.504l1.643-1.67a1.04 1.04 0 011.487 0c.417.391.417 1.043.026 1.461z"/></svg><svg width="24" height="24" viewBox="0 0 24 24" x="560" y="48"><path d="M22.957 6.261H12.783v-2.4c0-.443-.574-.991-.991-.991H.783C.34 2.87 0 3.418 0 3.861v6.678c0 .417.365.939.783.939h1.591l2.087 2.27c.157.183.365.235.6.235.104 0 .13-.026.235-.078.313-.104.47-.417.47-.757v-1.67h1.565v4.852c0 .574.6 1.148 1.174 1.148h7.148v3.183c0 .417.209.809.626.965.13.052.235.078.365.078.287 0 .548-.052.757-.261l3.887-3.965h1.67c.574 0 1.043-.574 1.043-1.148V7.539c0-.574-.47-1.278-1.043-1.278zM5.061 9.913c-.443 0-.887.183-.887.626v.522l-.887-.965c-.157-.183-.339-.183-.548-.183H1.565V4.435h9.391v1.826H8.478c-.574 0-1.174.704-1.174 1.278v2.374H5.061zm16.852 5.478h-1.07c-.287 0-.522.052-.73.261l-2.374 2.4v-1.748c0-.574-.548-.939-1.122-.939H9.391V8.348h12.522v7.043zm-11.009-4.695c0-.443.365-.783.783-.783h4.983c.443 0 .783.339.783.783s-.365.783-.783.783h-4.983a.77.77 0 01-.783-.783zm7.592.547a.75.75 0 01-.235-.548.71.71 0 01.235-.548c.287-.287.835-.287 1.122 0 .157.157.235.339.235.548s-.078.417-.235.548a.75.75 0 01-.548.235c-.235-.026-.443-.104-.574-.235z"/></svg><svg width="24" height="24" viewBox="0 0 24 24" x="600" y="48"><path d="M12 5.713c-.183-.183-.417-.235-.652-.235h-7.8c-.522 0-1.2.313-1.2.809V22.8c0 .522.678 1.174 1.2 1.174h12.365c.522 0 .783-.678.783-1.174V10.904c0-.235-.026-.443-.209-.626L12 5.713zm2.583 5.244h-3.365V7.592l3.365 3.365zM4.435 21.913V7.304h4.957v4.487c0 .522.47.991.991.991h4.487v9.13H4.435zM21.496 4.696L16.957.157C16.8.027 16.644 0 16.435 0h-7.8c-.443 0-.809.235-.809.652v2.504c0 .443.339.783.783.783s.783-.365.783-.783V1.565h5.478v4.409c0 .443.365.809.809.809h4.409v9.652h-1.07c-.443 0-.783.339-.783.783s.365.783.783.783h1.983c.443 0 .652-.391.652-.835V5.27c0-.209-.026-.417-.157-.574zm-5.061-2.87L19.8 5.217h-3.365V1.826z"/></svg><svg width="24" height="24" viewBox="0 0 24 24" y="88"><path d="M18.443 16.774c.47.47.47 1.2 0 1.67-.235.235-.522.339-.835.339s-.6-.104-.835-.339l-4.774-4.774-4.774 4.774c-.235.235-.522.339-.835.339s-.6-.104-.835-.339c-.47-.47-.47-1.2 0-1.67L10.329 12 5.555 7.226c-.47-.47-.47-1.2 0-1.67s1.2-.47 1.67 0l4.774 4.774 4.774-4.774c.47-.47 1.2-.47 1.67 0s.47 1.2 0 1.67L13.669 12l4.774 4.774z"/></svg><svg width="24" height="24" viewBox="0 0 24 24" x="40" y="88"><path d="M22.461 2.4L20.609.496a.808.808 0 00-.574-.235.71.71 0 00-.548.235L8.557 11.583a.963.963 0 00-.183.261l-1.226 3.104c-.104.287-.052.626.183.835a.75.75 0 00.548.235c.104 0 .183-.026.287-.052l3.078-1.226a.921.921 0 00.261-.183L22.435 3.47a.708.708 0 00.026-1.07zM10.539 13.357l-1.252.496.496-1.278L20.035 2.166l.783.783L10.54 13.358zm7.983-.94v10.539c0 .574-.522 1.043-1.096 1.043H2.609c-.574 0-1.043-.47-1.043-1.043V3.078c0-.574.47-.991 1.043-.991h10.852c.574 0 1.043.47 1.043 1.043s-.47 1.043-1.043 1.043H3.652v17.739h12.783v-9.496c0-.574.47-1.043 1.043-1.043s1.043.47 1.043 1.043z"/></svg><svg width="24" height="24" viewBox="0 0 24 24" x="80" y="88"><path d="M19.826.522H4.174c-.574 0-1.043.47-1.043 1.043v20.87c0 .574.47 1.043 1.043 1.043h15.652c.574 0 1.043-.47 1.043-1.043V1.565c0-.574-.47-1.043-1.043-1.043zm-1.043 20.869H5.218V2.608h13.565v18.783zM7.696 14.478c0-.496.417-.913.913-.913h3.078c.496 0 .913.417.913.913s-.417.913-.913.913H8.609a.907.907 0 01-.913-.913zm.13-4.174c0-.496.417-.913.913-.913h6.209c.496 0 .913.417.913.913s-.391.913-.913.913H8.739a.924.924 0 01-.913-.913zm0-3.913c0-.496.417-.913.913-.913h6.209c.496 0 .913.417.913.913s-.391.913-.913.913H8.739a.924.924 0 01-.913-.913zm7.748 7.513a.925.925 0 01.261.652c0 .235-.104.47-.261.652s-.417.261-.652.261-.47-.104-.652-.261c-.183-.157-.261-.391-.261-.652 0-.235.104-.47.261-.652.339-.339.965-.339 1.304 0z"/></svg><svg width="24" height="24" viewBox="0 0 24 24" x="120" y="88"><path d="M5.478 13.826c-.47 0-.965-.209-1.304-.548s-.522-.809-.522-1.278c0-.47.209-.939.522-1.304a1.834 1.834 0 011.304-.522c.47 0 .939.209 1.278.522.339.339.548.809.548 1.304 0 .47-.209.939-.548 1.278s-.809.548-1.278.548zm7.8-.548c.339-.339.548-.809.548-1.278s-.209-.939-.548-1.304c-.339-.339-.809-.522-1.278-.522s-.965.209-1.304.522A1.834 1.834 0 0010.174 12c0 .47.209.939.522 1.278.339.339.809.548 1.304.548.47 0 .939-.209 1.278-.548zm6.522 0c.339-.339.548-.809.548-1.278s-.209-.939-.548-1.304c-.339-.339-.809-.522-1.278-.522s-.965.209-1.304.522A1.834 1.834 0 0016.696 12c0 .47.209.939.522 1.278.339.339.809.548 1.304.548.47 0 .939-.209 1.278-.548z"/></svg><svg width="24" height="24" viewBox="0 0 24 24" x="160" y="88"><path d="M23.217 15.339v7.096c0 .73-.574 1.304-1.304 1.304H2.087c-.73 0-1.304-.574-1.304-1.304v-7.096c0-.73.574-1.304 1.304-1.304s1.304.574 1.304 1.304v5.791h17.217v-5.791c0-.73.574-1.304 1.304-1.304s1.304.574 1.304 1.304zm-12.156 1.618c.235.261.574.391.939.391s.678-.13.939-.391l5.191-5.322a1.314 1.314 0 00-.026-1.852 1.314 1.314 0 00-1.852.026l-2.948 3.052V1.565c0-.73-.574-1.304-1.304-1.304s-1.304.574-1.304 1.304v11.296L7.722 9.835c-.496-.522-1.33-.522-1.852-.026s-.522 1.33-.026 1.852l5.217 5.296z"/></svg><svg width="24" height="24" viewBox="0 0 24 24" x="200" y="88"><path d="M22.957 17.843H7.2c-.574 0-1.043-.47-1.043-1.043V1.043C6.157.469 6.627 0 7.2 0h15.757C23.531 0 24 .47 24 1.043v15.73c0 .6-.47 1.07-1.043 1.07zM8.243 15.73h13.643V2.113H8.243V15.73zm9.079 7.018v-2.765c0-.443-.365-.783-.783-.783s-.783.365-.783.783v2.452H1.591V8.27h2.426c.443 0 .783-.365.783-.783s-.365-.783-.783-.783H1.252C.574 6.704 0 7.252 0 7.956v14.843c0 .652.548 1.2 1.252 1.2h14.843a1.23 1.23 0 001.226-1.252z"/></svg><svg width="24" height="24" viewBox="0 0 24 24" x="240" y="88"><path d="M23.217 3.391v17.217c0 .574-.47 1.043-1.043 1.043H8.583c-.574 0-1.017-.47-1.017-1.043v-4.774c0-.574.47-1.043 1.043-1.043s1.043.47 1.043 1.043v3.73H21.13V4.434H9.652v3.73c0 .574-.47 1.043-1.043 1.043s-1.043-.47-1.043-1.043V3.39c0-.574.443-1.043 1.017-1.043h13.591c.574 0 1.043.47 1.043 1.043zM12.13 15.365c-.417.417-.391 1.07 0 1.487.209.209.47.313.73.313s.548-.104.73-.313l4.096-4.122c.391-.417.391-1.07 0-1.461l-4.07-4.174c-.417-.417-1.07-.417-1.487 0s-.417 1.07 0 1.487l2.322 2.348-12.626.026c-.574 0-1.043.47-1.043 1.043s.47 1.043 1.043 1.043l12.626-.026-2.322 2.348z"/></svg><svg width="24" height="24" viewBox="0 0 24 24" x="280" y="88"><path d="M15.652 15.835v4.774c0 .574-.417 1.043-.991 1.043H1.044c-.574 0-1.043-.47-1.043-1.043V3.392c0-.574.47-1.043 1.043-1.043h13.617c.574 0 .991.47.991 1.043v4.774c0 .574-.47 1.043-1.043 1.043s-1.043-.47-1.043-1.043v-3.73H2.088v15.13h11.478v-3.73c0-.574.47-1.043 1.043-1.043s1.043.47 1.043 1.043zm8.035-4.618l-4.07-4.122c-.417-.417-1.07-.417-1.487 0s-.417 1.07 0 1.487l2.322 2.348-12.652.026c-.574 0-1.043.47-1.043 1.043s.47 1.043 1.043 1.043l12.652-.026-2.322 2.348c-.417.417-.391 1.07 0 1.487.209.209.47.313.73.313s.548-.104.73-.313l4.096-4.122c.417-.443.417-1.096 0-1.513z"/></svg><svg width="24" height="24" viewBox="0 0 24 24" x="320" y="88"><path d="M19.043 19.957v1.304c0 .574-.496.913-1.07.913H.938c-.574 0-.939-.313-.939-.913V8.374c0-.574.365-1.096.939-1.096H3.99c.574 0 1.043.47 1.043 1.043s-.47 1.043-1.043 1.043H2.086v10.722h14.87v-.13c0-.574.47-1.043 1.043-1.043s1.043.47 1.043 1.043zm4.644-9.731l-6.47 6.6a1.052 1.052 0 01-1.148.235c-.417-.183-.678-.548-.678-.991v-2.843c-2.087-.052-7.096.157-8.922 3.365a1.055 1.055 0 01-.913.548c-.078 0-.183 0-.261-.026a1.057 1.057 0 01-.783-1.017c0-.157 0-4.2 3.026-7.2 1.904-1.957 4.461-3 7.852-3.183V2.871c0-.417.261-.809.652-.965.417-.157.861-.078 1.174.235l6.496 6.6c.391.417.391 1.07-.026 1.487zm-2.244-.756l-3.965-4.017v1.278a1.03 1.03 0 01-1.043 1.043c-3.235 0-5.713.861-7.409 2.583a7.445 7.445 0 00-1.643 2.478c2.452-1.461 5.557-1.722 7.461-1.722.991 0 1.643.078 1.722.078.522.052.913.522.913 1.043v1.278l3.965-4.043z"/></svg><svg width="24" height="24" viewBox="0 0 24 24" x="360" y="88"><path d="M23.765 10.07c-.209-.261-.496-.417-.809-.417h-1.304V6.81c0-.496-.365-.809-.861-.809h-9.13l-1.174-1.93c-.157-.261-.47-.417-.783-.417h-6.73c-.496 0-.887.287-.887.783v5.217H1.044c-.313 0-.626.157-.809.391s-.287.574-.209.887l1.93 8.843c.104.47.522.835 1.017.835H20.79c.47 0 .887-.339 1.017-.783l2.165-8.87c.078-.313 0-.626-.209-.887zM3.913 5.478h5.27l1.174 1.93c.157.261.47.417.783.417h8.687v1.826H3.914V5.477zm16.044 13.044H3.809l-1.461-6.783h19.278l-1.67 6.783z"/></svg><svg width="24" height="24" viewBox="0 0 24 24" x="400" y="88"><path d="M12 17.035A5.038 5.038 0 016.965 12 5.038 5.038 0 0112 6.965 5.038 5.038 0 0117.035 12c0 2.765-2.27 5.035-5.035 5.035zm0-8.218c-1.748 0-3.183 1.435-3.183 3.183s1.435 3.183 3.183 3.183c1.748 0 3.183-1.435 3.183-3.183S13.748 8.817 12 8.817zM12 24h-.13c-.913 0-1.696-.104-1.748-.104-.417-.052-.73-.365-.809-.783l-.261-1.878a9.166 9.166 0 01-1.643-.704l-1.461 1.122c-.339.261-.783.235-1.122 0-.026-.026-.652-.522-1.304-1.148l-.104-.104c-.652-.652-1.122-1.278-1.148-1.304a.902.902 0 010-1.122l1.148-1.513c-.287-.522-.496-1.096-.678-1.67l-1.826-.261a.915.915 0 01-.783-.809c-.026-.026-.13-.809-.13-1.722v-.13c0-.913.104-1.696.104-1.748.052-.417.365-.73.783-.809l1.878-.261a9.166 9.166 0 01.704-1.643L2.348 5.948c-.261-.339-.235-.783 0-1.122.026-.026.522-.652 1.148-1.304l.104-.104c.652-.652 1.278-1.122 1.304-1.148a.902.902 0 011.122 0l1.513 1.148c.522-.287 1.096-.496 1.67-.678L9.47.914a.915.915 0 01.809-.783c.026-.026.809-.13 1.722-.13h.13c.913 0 1.696.104 1.748.104.417.052.73.365.809.783l.261 1.878a9.166 9.166 0 011.643.704l1.461-1.122c.339-.261.783-.235 1.122 0 .026.026.652.522 1.304 1.148l.104.104c.652.652 1.122 1.278 1.148 1.304a.902.902 0 010 1.122l-1.122 1.513c.287.522.496 1.096.678 1.67l1.826.261c.417.052.73.391.783.809 0 .026.104.835.104 1.748v.13c0 .913-.104 1.696-.104 1.748-.052.417-.365.73-.783.809l-1.878.261a9.166 9.166 0 01-.704 1.643l1.122 1.487c.261.339.235.783 0 1.122-.026.026-.522.652-1.148 1.304l-.104.104c-.652.652-1.278 1.122-1.304 1.148a.902.902 0 01-1.122 0l-1.513-1.174c-.522.287-1.096.496-1.67.678l-.261 1.826a.915.915 0 01-.809.783c-.026 0-.809.104-1.722.104zm-.939-1.878c.235.026.522.026.809.026H12c.287 0 .574 0 .809-.026l.235-1.722c.052-.391.339-.678.704-.783a7.377 7.377 0 002.296-.939.949.949 0 01.704-.104c.13.026.261.104.365.183l1.383 1.043c.183-.157.391-.339.6-.548l.104-.104c.209-.209.391-.417.548-.6l-1.043-1.383a.949.949 0 01-.052-1.043 6.932 6.932 0 00.939-2.217.944.944 0 01.783-.757l1.748-.235c.026-.235.026-.522.026-.809V12c0-.287 0-.574-.026-.809l-1.722-.235a.985.985 0 01-.783-.704 7.846 7.846 0 00-.913-2.27.52.52 0 01-.104-.209.924.924 0 01.13-.861l1.07-1.409a10.528 10.528 0 00-.548-.6l-.104-.104a10.528 10.528 0 00-.6-.548l-1.383 1.043a.94.94 0 01-1.096 0 8.369 8.369 0 00-2.217-.939.918.918 0 01-.704-.783l-.235-1.748c-.235-.026-.522-.026-.809-.026h-.104c-.287 0-.574 0-.809.026l-.235 1.774a.889.889 0 01-.783.783 7.523 7.523 0 00-2.217.913.949.949 0 01-.704.104.952.952 0 01-.365-.183L5.531 4.172c-.183.157-.391.339-.6.548l-.104.104c-.209.209-.391.417-.548.6l1.043 1.383c.235.313.235.704.052 1.043-.026.026-.026.052-.052.078a7.534 7.534 0 00-.913 2.217.918.918 0 01-.783.704l-1.748.235c-.026.235-.026.522-.026.809v.104c0 .287 0 .574.026.809l1.722.235c.417.052.73.365.783.783v.026c.183.783.496 1.513.913 2.191.13.235.183.522.078.783-.026.104-.104.209-.183.313l-1.017 1.357c.157.183.339.391.548.6l.104.104c.209.209.417.391.6.548l1.383-1.043a.94.94 0 011.148.026c.678.417 1.409.704 2.165.913a.918.918 0 01.704.783l.235 1.696z"/></svg><svg width="24" height="24" viewBox="0 0 24 24" x="440" y="88"><path d="M19.043 23.217a1.57 1.57 0 01-1.565-1.565V2.348c0-.861.704-1.565 1.565-1.565s1.565.704 1.565 1.565v19.304a1.57 1.57 0 01-1.565 1.565zm-5.478-1.565V8.713c0-.861-.704-1.565-1.565-1.565s-1.565.704-1.565 1.565v12.939c0 .861.704 1.565 1.565 1.565s1.565-.704 1.565-1.565zm-7.043 0v-6.574c0-.861-.704-1.565-1.565-1.565s-1.565.704-1.565 1.565v6.574c0 .861.704 1.565 1.565 1.565s1.565-.704 1.565-1.565z"/></svg><svg width="24" height="24" viewBox="0 0 24 24" x="480" y="88"><path d="M11.296 19.252a.91.91 0 01-.574-.209.88.88 0 01-.313-.887l1.278-6.522-.704.391a.93.93 0 01-1.252-.339.93.93 0 01.339-1.252l2.426-1.383c.313-.183.704-.157.991.052s.417.574.365.913l-1.33 6.783 1.096-.47c.47-.209.991 0 1.2.47s0 .991-.47 1.2l-2.687 1.174a.835.835 0 01-.365.078zm2.582-12.469c.235-.235.391-.574.391-.913s-.13-.678-.391-.913c-.235-.235-.574-.391-.913-.391s-.678.13-.913.391c-.235.235-.391.574-.391.913s.13.678.391.913c.235.235.574.391.913.391s.678-.13.913-.391zM24 12c0-6.626-5.374-12-12-12S0 5.374 0 12s5.374 12 12 12 12-5.374 12-12zm-2.087 0c0 5.478-4.435 9.913-9.913 9.913S2.087 17.478 2.087 12 6.522 2.087 12 2.087 21.913 6.522 21.913 12z"/></svg><svg width="24" height="24" viewBox="0 0 24 24" x="520" y="88"><path d="M23.687 16.67l-6.209-6.209a1.04 1.04 0 00-1.487 0l-2.035 2.035-2.452-2.452 2.035-2.035a1.04 1.04 0 000-1.487L7.33.313a1.04 1.04 0 00-1.487 0L.313 5.87C.104 6.053 0 6.313 0 6.6s.104.548.313.73l6.209 6.209c.209.209.47.313.73.313s.522-.104.73-.313l2.035-2.035 2.452 2.452-2.035 2.035a1.04 1.04 0 000 1.487l6.209 6.209c.209.209.47.313.73.313a.944.944 0 00.73-.313l5.557-5.557a.989.989 0 00.026-1.461zM7.252 11.322L2.53 6.6 6.6 2.53l4.722 4.722-1.304 1.304-.783-.783c-.417-.417-1.07-.417-1.487 0s-.417 1.07 0 1.487l.783.783-1.278 1.278zM17.4 21.47l-4.722-4.722 1.304-1.304.783.783c.209.209.47.313.73.313s.522-.104.73-.313a1.04 1.04 0 000-1.487l-.783-.783 1.304-1.304 4.722 4.722-4.07 4.096z"/></svg><svg width="24" height="24" viewBox="0 0 24 24" x="560" y="88"><path d="M12 6.704c-.574 0-1.043-.47-1.043-1.043V1.174c0-.574.47-1.043 1.043-1.043s1.043.47 1.043 1.043v4.487c0 .574-.47 1.043-1.043 1.043zM8.896 7.722c.47-.339.574-.991.235-1.461L6.47 2.635c-.339-.47-.991-.574-1.461-.235s-.574.991-.235 1.461l2.635 3.626c.209.287.522.417.835.417a.955.955 0 00.652-.183zm-1.931 2.635a1.024 1.024 0 00-.678-1.304L2.009 7.67a1.024 1.024 0 00-1.304.678c-.183.522.13 1.122.678 1.304l4.278 1.383c.104.026.209.052.313.052.443 0 .835-.287.991-.73zM2.009 16.33l4.278-1.383c.548-.183.861-.757.678-1.304s-.757-.835-1.304-.678l-4.278 1.383c-.548.183-.861.757-.678 1.304.13.443.548.73.991.73.104 0 .209 0 .313-.052zm4.461 5.035l2.661-3.626c.339-.47.235-1.122-.235-1.461s-1.122-.235-1.461.235L4.8 20.139a1.044 1.044 0 00.235 1.461c.183.13.391.209.6.209.313 0 .626-.157.835-.443zm6.573 1.461v-4.487c0-.574-.47-1.043-1.043-1.043s-1.043.47-1.043 1.043v4.487c0 .574.47 1.043 1.043 1.043s1.043-.47 1.043-1.043zm5.948-1.226c.47-.339.574-.991.235-1.461l-2.661-3.626c-.339-.47-.991-.574-1.461-.235s-.574.991-.235 1.461l2.635 3.626c.209.287.522.417.835.417a.955.955 0 00.652-.183zm4.305-5.922a1.024 1.024 0 00-.678-1.304l-4.278-1.383a1.024 1.024 0 00-1.304.678c-.183.548.13 1.148.678 1.304l4.278 1.383c.104.026.209.052.313.052.443-.026.861-.313.991-.73zm-4.957-4.643l4.278-1.383c.548-.183.861-.757.678-1.304s-.757-.835-1.304-.678l-4.278 1.383c-.548.183-.861.757-.678 1.304.13.443.548.73.991.73.104 0 .209-.026.313-.052zm-1.774-3.548L19.2 3.861c.339-.47.235-1.122-.235-1.461s-1.122-.235-1.461.235l-2.635 3.626a1.044 1.044 0 00.235 1.461c.183.13.391.209.6.209.339 0 .652-.157.861-.443z"/></svg><svg width="24" height="24" viewBox="0 0 24 24" x="600" y="88"><path d="M19.043 8.609H7.826v-1.8c0-2.661 1.696-4.461 4.122-4.461 1.774 0 3.183.913 3.783 2.53.209.548.809.809 1.357.6s.809-.809.6-1.357C16.801 1.721 14.61.26 11.949.26 8.323.26 5.74 2.947 5.74 6.808v1.8h-.783c-.574 0-1.043.47-1.043 1.043v13.043c0 .574.47 1.043 1.043 1.043h14.087c.574 0 1.043-.47 1.043-1.043V9.651c0-.574-.47-1.043-1.043-1.043zM18 21.652H6V10.695h12v10.957z"/></svg><svg width="24" height="24" viewBox="0 0 24 24" y="128"><path d="M19.043 8.609h-.783v-1.8c0-3.861-2.609-6.548-6.261-6.548S5.738 2.948 5.738 6.809v1.8h-.783c-.574 0-1.043.47-1.043 1.043v13.043c0 .574.47 1.043 1.043 1.043h14.087c.574 0 1.043-.47 1.043-1.043V9.652c0-.574-.47-1.043-1.043-1.043zm-11.217-1.8c0-2.661 1.722-4.461 4.174-4.461s4.174 1.8 4.174 4.461v1.8H7.826v-1.8zM18 21.652H6V10.695h12v10.957z"/></svg><svg width="24" height="24" viewBox="0 0 24 24" x="40" y="128"><path d="M24 5.974V5.87v-.078c0-.026-.026-.052-.026-.104 0-.026-.026-.078-.026-.104s-.026-.052-.052-.078c-.026-.026-.026-.078-.052-.104v-.026l-.052-.052-.078-.078c-.026-.026-.052-.052-.078-.052-.026-.026-.052-.052-.078-.052-.026-.026-.052-.026-.078-.052s-.052-.026-.078-.052c-.026 0-.078-.026-.104-.026s-.052-.026-.104-.026H.865c-.026 0-.052.026-.104.026-.026 0-.078.026-.104.026s-.052.026-.078.052c-.026.026-.052.026-.078.052s-.052.026-.078.052c-.026.026-.052.052-.078.052l-.078.078-.052.052v.026a.197.197 0 00-.052.104c-.026.026-.026.052-.052.078s-.026.052-.026.104c0 .026-.026.052-.026.104V18c0 .574.47 1.043 1.043 1.043h21.913c.574 0 1.043-.47 1.043-1.043l-.052-12.026c0 .026 0 0 0 0zm-4.2 1.069L12 12.834 4.2 7.043h15.6zM2.087 16.957v-8.87l9.287 6.887c.183.13.391.209.626.209s.443-.078.626-.209l9.287-6.887v8.87H2.087z"/></svg><svg width="24" height="24" viewBox="0 0 24 24" x="80" y="128"><path d="M20.348 6.13H3.652c-.939 0-1.696-.757-1.696-1.696s.757-1.696 1.696-1.696h16.696c.939 0 1.696.757 1.696 1.696s-.757 1.696-1.696 1.696zM22.043 12c0-.939-.757-1.696-1.696-1.696H3.651c-.939 0-1.696.757-1.696 1.696s.757 1.696 1.696 1.696h16.696c.939 0 1.696-.757 1.696-1.696zm0 7.565c0-.939-.757-1.696-1.696-1.696H3.651c-.939 0-1.696.757-1.696 1.696s.757 1.696 1.696 1.696h16.696c.939 0 1.696-.757 1.696-1.696z"/></svg><svg width="24" height="24" viewBox="0 0 24 24" x="120" y="128"><path d="M22.957 1.565H1.044c-.574 0-1.043.47-1.043 1.043v13.33c0 .574.47 1.017 1.043 1.017h12.261v4.435c0 .443.339.835.73.991.13.052.261.052.391.052.313 0 .6-.13.809-.365l4.33-5.113h3.391c.574 0 1.043-.443 1.043-1.017V2.608c0-.574-.47-1.043-1.043-1.043zM21.913 14.87h-2.817a1.3 1.3 0 00-.861.365l-2.843 3.313v-2.609c0-.574-.365-1.07-.939-1.07H2.088V3.652h19.826v11.217zM4.852 7.304c0-.574.47-1.043 1.043-1.043h7.565c.574 0 1.043.47 1.043 1.043s-.47 1.043-1.043 1.043H5.895c-.574 0-1.043-.47-1.043-1.043zm11.452.809a1.096 1.096 0 01-.313-.73c0-.287.104-.548.313-.73a1.03 1.03 0 01.73-.313c.287 0 .548.104.73.313.183.183.313.47.313.73a.944.944 0 01-.313.73 1.03 1.03 0 01-.73.313 1.304 1.304 0 01-.73-.313z"/></svg><svg width="24" height="24" viewBox="0 0 24 24" x="160" y="128"><path d="M18.991 6.496L13.93 17.4c-.443 1.122-1.226 1.774-2.087 1.774a1.884 1.884 0 01-1.643-.939c-.365-.678-.339-1.513.104-2.217L16.93 5.401c.339-.522 1.017-.704 1.565-.417s.757.939.496 1.513zm1.774 3.156a1.063 1.063 0 00-1.487-.052 1.063 1.063 0 00-.052 1.487A10.205 10.205 0 0121.913 18c0 .574.47 1.043 1.043 1.043s1.043-.47 1.043-1.043a12.31 12.31 0 00-3.235-8.348zm-7.93-1.722c.574.052 1.07-.365 1.122-.939s-.365-1.07-.939-1.122c-.339-.026-.678-.052-1.017-.052-6.626 0-12 5.478-12 12.209 0 .574.47 1.043 1.043 1.043s1.043-.47 1.043-1.043c0-5.583 4.435-10.122 9.913-10.122.287-.026.574 0 .835.026z"/></svg><svg width="24" height="24" viewBox="0 0 24 24" x="200" y="128"><path d="M20.113 3.026c0-1.513-1.252-2.765-2.791-2.765s-2.791 1.252-2.791 2.765c0 1.148.704 2.139 1.722 2.557-.026.47-.313 3.391-4.409 4.878-1.852.678-3.235 1.591-4.017 2.53V5.582c1.043-.417 1.67-1.409 1.67-2.557C9.497 1.512 8.219.26 6.706.26c-1.539 0-2.739 1.252-2.739 2.765 0 1.148.73 2.139 1.774 2.557v12.835c-1.043.417-1.8 1.409-1.8 2.557 0 1.513 1.226 2.765 2.739 2.765 1.539 0 2.817-1.252 2.817-2.765 0-1.148-.652-2.139-1.696-2.557v-.835c0-.287.13-3.47 4.774-5.165 5.53-2.009 5.791-6.313 5.791-6.835a2.75 2.75 0 001.748-2.557zm-13.435-1.2c.678 0 1.2.548 1.2 1.2s-.548 1.2-1.2 1.2c-.678 0-1.2-.548-1.2-1.2s.522-1.2 1.2-1.2zm0 20.348c-.678 0-1.2-.548-1.2-1.2s.548-1.2 1.2-1.2c.678 0 1.2.548 1.2 1.2s-.548 1.2-1.2 1.2zM17.322 4.226c-.678 0-1.2-.548-1.2-1.2s.548-1.2 1.2-1.2c.678 0 1.2.548 1.2 1.2s-.522 1.2-1.2 1.2z"/></svg><svg width="24" height="24" viewBox="0 0 24 24" x="240" y="128"><path d="M22.174 9.548a.913.913 0 010 1.304L11.791 21.209c-1.722 1.748-3.678 2.661-5.557 2.661-.47 0-.939-.052-1.409-.183-1.826-.496-3.235-1.904-3.73-3.809-.626-2.348.209-4.904 2.322-7.017L15 1.304c1.878-1.878 4.487-1.278 6 .235 2.061 2.061 1.487 4.487.104 5.87L9.443 19.044c-1.539 1.539-3.287 1.435-4.174.522s-.991-2.609.548-4.174l7.878-7.878c.365-.365.939-.365 1.304 0s.365.939 0 1.304l-7.93 7.878c-.678.678-.783 1.33-.548 1.591.261.261.913.157 1.591-.522L19.773 6.104c1.174-1.174.678-2.504-.104-3.287-.887-.887-2.322-1.33-3.417-.209L4.722 14.165C3.079 15.808 2.4 17.713 2.87 19.408c.339 1.252 1.252 2.191 2.452 2.504 1.617.443 3.47-.287 5.191-2.009L20.896 9.52c.339-.313.913-.313 1.278.026z"/></svg><svg width="24" height="24" viewBox="0 0 24 24" x="280" y="128"><path d="M23.243 1.591l-.835-.835a2.522 2.522 0 00-1.826-.757c-.704 0-1.33.261-1.826.757L2.269 17.269a.887.887 0 00-.235.365l-1.957 4.93c-.157.391-.078.835.235 1.122.183.209.47.313.73.313.13 0 .261-.026.391-.078l4.957-1.93c.13-.052.261-.13.365-.235L23.268 5.243c.991-.991.991-2.635-.026-3.652zM3.861 18.704l1.461 1.461-2.426.939.965-2.4zM21.757 3.783l-14.4 14.4-1.513-1.513L20.218 2.244c.13-.13.287-.157.365-.157s.235.026.365.157l.835.835c.183.183.183.496-.026.704z"/></svg><svg width="24" height="24" viewBox="0 0 24 24" x="320" y="128"><path d="M23.087 3.261l-.052-.052L20.218.757a1.89 1.89 0 00-1.487-.496 2.262 2.262 0 00-1.357.626l-.078.078-2.765 3.496a1.962 1.962 0 00.052 2.739.672.672 0 00.157.13l1.409.939c-.104.496-.835 1.904-3.417 4.487-2.557 2.557-3.991 3.287-4.461 3.391l-.939-1.409c-.026-.052-.078-.104-.13-.157a1.985 1.985 0 00-2.739-.052l-3.47 2.765-.078.078c-.783.783-.835 2.087-.13 2.843l2.452 2.791.052.052c.47.47 1.2.652 2.009.652 1.435 0 3.078-.574 3.939-.913 1.67-.652 4.93-2.243 8.165-5.478 2.4-2.4 4.33-5.296 5.478-8.165.47-1.304 1.565-4.539.209-5.896zm-7.2 12.626C11.061 20.713 5.635 22.044 4.722 21.6l-2.374-2.739 3.391-2.687.913 1.383c.026.026.026.052.052.078.313.391.757.6 1.278.626.496.026 2.035.104 6.183-4.043 1.017-1.017 4.148-4.148 4.043-6.183a1.777 1.777 0 00-.626-1.278c-.026-.026-.052-.052-.078-.052l-1.33-.939 2.687-3.417 2.713 2.374c.47.913-.861 6.339-5.687 11.165z"/></svg><svg width="24" height="24" viewBox="0 0 24 24" x="360" y="128"><path d="M18.913 12.13a1.17 1.17 0 01-1.174 1.174h-4.696v4.435c0 .652-.522 1.174-1.174 1.174s-1.174-.522-1.174-1.174v-4.435H6.26c-.652 0-1.174-.522-1.174-1.174s.522-1.174 1.174-1.174h4.435V6.26c0-.652.522-1.174 1.174-1.174s1.174.522 1.174 1.174v4.696h4.696a1.17 1.17 0 011.174 1.174z"/></svg><svg width="24" height="24" viewBox="0 0 24 24" x="400" y="128"><path d="M24 14.87c0 .574-.47 1.043-1.043 1.043h-4.904c-.443 0-.835-.235-.991-.678l-.783-2.191-2.557 8.635c-.13.443-.548.757-.991.757h-.026c-.47-.026-.887-.339-.991-.809L8.349 7.044l-2.035 8.113c-.104.47-.522.757-1.017.757H1.045c-.574 0-1.043-.47-1.043-1.043s.47-1.043 1.043-1.043h3.443L7.384 2.324c.104-.47.548-.757 1.017-.757s.887.339 1.017.809l3.443 14.922 2.348-7.93c.13-.443.522-.757.965-.757.443-.026.861.261 1.017.678l1.591 4.539h4.174c.574 0 1.043.47 1.043 1.043z"/></svg><svg width="24" height="24" viewBox="0 0 24 24" x="440" y="128"><path d="M15.887 6.652c.835.939 1.226 2.217 1.043 3.574-.313 2.504-2.139 3.391-3.757 3.391h-.13v.626c0 .574-.47 1.043-1.043 1.043s-1.043-.47-1.043-1.043v-.835c0-.861.365-1.878 2.217-1.878 1.017 0 1.539-.522 1.67-1.565.052-.339.078-1.252-.548-1.93-.496-.548-1.304-.835-2.4-.835-2.348 0-2.426 1.539-2.426 1.696 0 .574-.47 1.043-1.043 1.043s-1.043-.47-1.043-1.043c0-1.043.809-3.783 4.513-3.783 2.165 0 3.365.835 3.991 1.539zm-3.965 9.522c-.339 0-.678.13-.913.391-.235.235-.391.574-.391.913s.13.678.391.913c.235.235.574.391.913.391s.678-.13.913-.391c.235-.235.391-.574.391-.913s-.13-.678-.391-.913a1.28 1.28 0 00-.913-.391zM24 12c0 6.626-5.374 12-12 12S0 18.626 0 12 5.374 0 12 0s12 5.374 12 12zm-2.087 0c0-5.478-4.435-9.913-9.913-9.913S2.087 6.522 2.087 12 6.522 21.913 12 21.913s9.913-4.435 9.913-9.913z"/></svg><svg width="24" height="24" viewBox="0 0 24 24" x="480" y="128"><path d="M23.922 1.017a1.059 1.059 0 00-.965-.965c-6.6-.522-11.322 2.687-14.27 6.704-1.617-.522-3.365-.339-4.957.548C2.191 8.165.913 9.626.078 11.4c-.183.417-.104.887.235 1.2.313.313.809.365 1.2.157 1.67-.887 3.548-.704 4.67.417l4.591 4.591.026.026c1.122 1.122 1.304 3 .417 4.67-.209.391-.13.887.157 1.2.209.209.47.313.757.313a.856.856 0 00.443-.104c1.774-.835 3.235-2.139 4.096-3.652.913-1.591 1.096-3.339.548-4.983 1.174-.861 2.243-1.8 3.13-2.843 2.765-3.157 3.965-6.991 3.574-11.374zM3.496 10.122c1.122-1.096 2.53-1.774 4.017-1.513a21.22 21.22 0 00-1.07 2.191 5.465 5.465 0 00-2.948-.678zm10.408 10.382a6.023 6.023 0 00-.678-2.974 21.045 21.045 0 002.191-1.07c.261 1.487-.391 2.922-1.513 4.043zm-2.087-4.669l-3.678-3.678c1.852-4.93 6.443-10.2 13.774-10.07.235 8.739-6.965 12.522-10.096 13.748zm6.757-10.409c.313.313.496.757.496 1.2s-.183.887-.496 1.2-.757.496-1.2.496-.887-.157-1.2-.496-.496-.757-.496-1.2.183-.887.496-1.2c.313-.313.757-.496 1.2-.496s.887.183 1.2.496zM3.887 16.278c-1.2 1.2-1.252 3.6-1.252 4.07 0 .574.47 1.043 1.043 1.043h.026c.548 0 2.843-.078 4.017-1.252.73-.73.887-1.487.887-1.983 0-.704-.287-1.383-.835-1.93-1.304-1.33-2.948-.913-3.887.052zm2.374 2.374c-.261.261-.835.443-1.435.522.104-.6.287-1.174.522-1.409.183-.183.339-.287.522-.287.13 0 .287.078.443.235s.235.313.235.443c-.026.157-.157.365-.287.496z"/></svg><svg width="24" height="24" viewBox="0 0 24 24" x="520" y="128"><path d="M18.443 22.957c-.209 0-.391-.052-.574-.157l-5.87-3.835-5.87 3.835a1.065 1.065 0 01-1.174-.026 1.088 1.088 0 01-.391-1.122l1.852-6.522-5.53-4.67c-.313-.261-.443-.704-.313-1.122s.496-.678.913-.73l6.6-.47 2.974-6.496c.157-.365.522-.6.939-.6s.783.235.939.6l2.974 6.496 6.6.47c.417.026.783.313.913.73.13.391 0 .835-.313 1.122l-5.504 4.643 1.852 6.522c.13.417-.026.861-.391 1.122-.183.13-.391.209-.626.209zM12 16.696c.209 0 .391.052.574.157l4.122 2.687-1.278-4.513a1.043 1.043 0 01.339-1.07L19.8 10.54l-4.643-.365c-.391-.026-.704-.261-.887-.6L12 4.592 9.73 9.575a1.052 1.052 0 01-.887.6l-4.643.339 4.043 3.417c.313.261.443.678.339 1.07L7.304 19.54l4.122-2.661a.943.943 0 01.574-.183z"/></svg><svg width="24" height="24" viewBox="0 0 24 24" x="560" y="128"><path d="M21.209 5.113c.209.183.443.261.704.261.287 0 .574-.104.783-.339a1.042 1.042 0 00-.078-1.487l-1.357-1.226-1.357-1.226c-.417-.391-1.096-.365-1.461.078a1.042 1.042 0 00.078 1.487l.574.522-1.043 1.174a10.884 10.884 0 00-4.096-1.878 1.97 1.97 0 00-.417-1.043c-.261-.365-.809-.783-1.8-.835h-.052c-.913 0-1.435.391-1.722.73-.313.365-.443.809-.496 1.148a10.633 10.633 0 00-8.426 10.409c0 5.87 4.774 10.67 10.643 10.67s10.643-4.774 10.643-10.67c0-2.739-1.043-5.243-2.739-7.148l1.043-1.174.574.548zm-9.522 16.33c-4.722 0-8.557-3.835-8.557-8.557s3.835-8.557 8.557-8.557 8.557 3.835 8.557 8.557-3.835 8.557-8.557 8.557zm1.826-8.556c0 .991-.835 1.8-1.826 1.8s-1.774-.809-1.774-1.8c0-.6.261-1.148.783-1.461V7.2c0-.574.47-1.043 1.043-1.043s1.043.47 1.043 1.043v4.226c.522.313.73.861.73 1.461z"/></svg><svg width="24" height="24" viewBox="0 0 24 24" x="600" y="128"><path d="M10.435 14.478a.924.924 0 00-.913-.913H6.131a.924.924 0 00-.913.913v3.391c0 .496.417.913.913.913h3.391a.924.924 0 00.913-.913v-3.391zm-3.392.913h1.565v1.565H7.043v-1.565zm16.67-8.765l-2.322-2.348V1.565c0-.574-.47-1.043-1.07-1.043H3.678c-.6 0-1.07.47-1.07 1.043v2.713L.286 6.626a1.023 1.023 0 00-.287.73v2.661c0 .574.47.939 1.043.939h21.913c.574 0 1.043-.365 1.043-.965V7.356a1.02 1.02 0 00-.287-.73zm-4.409-4.017v1.304H4.695V2.609h14.609zm2.609 6.261H2.087V7.774l2.139-2.035h15.548l2.139 2.035V8.87zm.522 4.2v9.365c0 .574-.47 1.043-1.043 1.043h-3.574c-.574 0-1.043-.417-1.043-.991v-5.53h-2.426v5.478c0 .574-.496 1.043-1.07 1.043H2.636c-.574 0-1.07-.47-1.07-1.043V13.07c0-.574.47-1.043 1.043-1.043s1.043.47 1.043 1.043v8.322h8.609v-5.583c0-.574.443-.939 1.017-.939h4.513c.574 0 .965.365.965.939v5.583h1.565V13.07c0-.574.47-1.043 1.043-1.043s1.07.47 1.07 1.043z"/></svg><svg width="24" height="24" viewBox="0 0 24 24" y="168"><path d="M23.426 6.235c-.365-.365-.861-.496-1.357-.496h-5.635v-3.13c0-.574-.6-1.043-1.174-1.043H8.738c-.574 0-1.174.47-1.174 1.043v3.13H1.929c-1.07 0-1.93.757-1.93 1.8v12.939c0 1.096.861 1.957 1.93 1.957h20.113c1.07 0 1.93-.861 1.93-1.93V7.592c.026-.522-.183-.991-.548-1.357zm-6.209 1.591v12.522H6.782V7.826h10.435zM9.652 3.652h4.696v2.087H9.652V3.652zM2.087 7.826h3.13v12.522h-3.13V7.826zm19.826 12.522h-3.13V7.826h3.13v12.522z"/></svg><svg width="24" height="24" viewBox="0 0 24 24" x="40" y="168"><path d="M24 14.478a.944.944 0 01-.313.73l-4.852 4.852c-.209.209-.47.287-.73.287s-.548-.13-.73-.313a1.071 1.071 0 010-1.513l3.052-3.13h-10.2c-.574 0-1.043-.47-1.043-1.043s.47-1.043 1.043-1.043h10.2l-3.052-3c-.417-.417-.417-1.017 0-1.409a1.04 1.04 0 011.487 0l4.852 4.852c.183.183.287.443.287.73zM3.574 10.696h10.2c.574 0 1.043-.47 1.043-1.043s-.47-1.043-1.043-1.043h-10.2l3.052-3.13a1.071 1.071 0 00-1.487-1.539L.313 8.793c-.209.183-.313.443-.313.73s.104.548.313.73l4.852 4.852c.209.209.47.313.73.313s.548-.104.73-.313c.417-.417.417-1.017 0-1.409l-3.052-3z"/></svg><svg width="24" height="24" viewBox="0 0 24 24" x="80" y="168"><path d="M19.617 13.461a.944.944 0 00-.313-.73l-9.73-9.6a.946.946 0 00-.678-.287l-7.774-.496c-.313-.026-.6.104-.809.313s-.339.496-.313.809l.496 7.643c.026.261.13.496.313.678l9.757 9.574c.209.209.47.313.73.313s.522-.104.73-.313l7.278-7.174a.946.946 0 00.313-.73zm-8.321 5.687l-8.713-8.583-.417-6.052 6.209.391 8.713 8.557-5.791 5.687zM6.783 6.835c.287.287.47.704.47 1.096 0 .417-.157.809-.47 1.096-.287.287-.704.47-1.122.47s-.809-.157-1.122-.47a1.61 1.61 0 01-.47-1.096c0-.417.157-.809.47-1.096.287-.287.704-.47 1.122-.47s.835.183 1.122.47zM24 13.461c0 .235-.104.47-.261.652l-7.278 7.148c-.183.183-.417.261-.652.261s-.47-.078-.652-.261c-.365-.365-.365-.939 0-1.278l6.626-6.496-9.104-8.948c-.365-.365-.365-.939 0-1.278a.913.913 0 011.304 0l9.757 9.548c.157.183.261.417.261.652z"/></svg><svg width="24" height="24" viewBox="0 0 24 24" x="120" y="168"><path d="M8.4 0c3.261 0 8.322 1.07 9.6 1.957.287.209.443.522.443.861v10.2c0 .313-.157.626-.391.809-.078.052-1.904 1.487-3.809 2.557-2.374 1.304-4.017 3.13-4.409 4.278-.496 1.409-1.174 3.339-3.313 3.339-1.017 0-1.852-.574-2.296-1.565-.887-2.035.052-4.852 1.617-7.07a53.169 53.169 0 01-3.13-.809C1.303 14.114.338 13.07.155 11.792c-.183-1.304.47-2.635 1.852-3.652C3.024 5.427 4.772 1.07 6.05.366 6.52.105 7.38.001 8.398.001zm7.93 3.443c-1.983-.835-8.087-1.722-9.235-1.252-.6.548-2.139 4.043-3.209 6.991a1.115 1.115 0 01-.391.522c-.861.574-1.304 1.252-1.226 1.826.078.47.496.861 1.122 1.07 1.304.417 4.539 1.122 4.591 1.122.365.078.652.339.783.704s.026.757-.235 1.017c-2.348 2.53-2.765 5.113-2.322 6.157.104.313.235.313.313.313.522 0 .757-.365 1.304-1.93.626-1.826 2.791-4.017 5.374-5.426 1.252-.678 2.504-1.591 3.13-2.061V3.444zm4.122-.73v10.409c0 .939.757 1.696 1.696 1.696s1.696-.757 1.696-1.696V2.713c0-.939-.757-1.696-1.696-1.696s-1.696.783-1.696 1.696z"/></svg><svg width="24" height="24" viewBox="0 0 24 24" x="160" y="168"><path d="M15.6 24c-3.235 0-8.322-1.07-9.574-1.957a1.052 1.052 0 01-.443-.861v-10.2c0-.313.157-.626.391-.809.078-.052 1.904-1.487 3.809-2.557 2.374-1.304 4.017-3.13 4.409-4.278.47-1.409 1.148-3.339 3.287-3.339 1.017 0 1.852.574 2.296 1.565.887 2.035-.052 4.852-1.617 7.07 1.043.235 2.348.574 3.13.809 1.435.443 2.374 1.487 2.583 2.765.183 1.304-.47 2.635-1.852 3.652-1.017 2.739-2.765 7.07-4.043 7.774-.496.261-1.357.365-2.374.365zm-7.93-3.443c1.983.835 8.087 1.696 9.235 1.252.6-.548 2.139-4.043 3.209-6.991.078-.209.209-.391.391-.522.861-.574 1.304-1.252 1.226-1.826-.078-.47-.496-.861-1.122-1.07-1.304-.417-4.539-1.122-4.591-1.122-.365-.078-.652-.339-.783-.704s-.026-.757.235-1.017c2.348-2.53 2.765-5.113 2.322-6.157-.104-.313-.235-.313-.313-.313-.522 0-.757.365-1.304 1.93-.626 1.826-2.791 4.017-5.374 5.426-1.252.678-2.504 1.591-3.13 2.061v9.052zm-4.122.73V10.852c0-.939-.757-1.696-1.696-1.696S.13 9.913.13 10.852v10.409c0 .939.757 1.696 1.696 1.696s1.722-.757 1.722-1.67z"/></svg><svg width="24" height="24" viewBox="0 0 24 24" x="200" y="168"><path d="M24 12c0 5.609-4.539 10.174-10.122 10.174A10.21 10.21 0 018.139 20.4c-.47-.339-.6-.965-.261-1.461.339-.47.965-.6 1.461-.261a8.047 8.047 0 004.539 1.409c4.435 0 8.035-3.626 8.035-8.087s-3.6-8.087-8.035-8.087c-4.33 0-7.878 3.47-8.035 7.8l2.426-2.452c.417-.417 1.07-.417 1.487 0s.417 1.07 0 1.487l-3.991 3.991a1.03 1.03 0 01-.73.313.944.944 0 01-.73-.313L.314 10.722c-.417-.417-.417-1.07 0-1.487s1.07-.417 1.487 0l1.983 2.009c.365-5.243 4.748-9.417 10.096-9.417 5.583 0 10.122 4.565 10.122 10.174zM13.826 6.078c-.574 0-1.043.47-1.043 1.043v4.878c0 .287.13.548.339.73l2.243 2.243c.209.209.47.313.757.313a.984.984 0 00.73-.313c.417-.417.391-1.07-.026-1.487l-1.957-1.93V7.12c0-.574-.47-1.043-1.043-1.043z"/></svg><svg width="24" height="24" viewBox="0 0 24 24" x="240" y="168"><path d="M21.913 12.73v10.226c0 .574-.47 1.043-1.043 1.043s-1.043-.47-1.043-1.043V12.73c0-.574.47-1.043 1.043-1.043s1.043.47 1.043 1.043zM20.87 2.974c.574 0 1.043-.47 1.043-1.043v-.887c0-.574-.47-1.043-1.043-1.043s-1.043.47-1.043 1.043v.887c0 .574.47 1.043 1.043 1.043zM6.235 12c0 1.722-1.409 3.13-3.104 3.13S.001 13.721.001 12 1.41 8.87 3.105 8.87s3.13 1.409 3.13 3.13zm-2.087 0c0-.574-.47-1.043-1.017-1.043s-1.043.47-1.043 1.043.47 1.043 1.017 1.043 1.043-.47 1.043-1.043zm10.956 5.139c0 1.722-1.409 3.13-3.104 3.13s-3.104-1.409-3.104-3.13c0-1.722 1.409-3.13 3.104-3.13s3.104 1.383 3.104 3.13zm-2.087 0c0-.574-.47-1.043-1.017-1.043s-1.017.47-1.017 1.043c0 .574.47 1.043 1.017 1.043s1.017-.47 1.017-1.043zM24 7.461c0 1.722-1.409 3.13-3.104 3.13s-3.104-1.409-3.104-3.13 1.409-3.13 3.104-3.13S24 5.74 24 7.461zm-2.087 0c0-.574-.47-1.043-1.017-1.043s-1.017.47-1.017 1.043.47 1.043 1.017 1.043 1.017-.443 1.017-1.043zM12 21.313c-.574 0-1.043.47-1.043 1.043v.6c0 .574.47 1.043 1.043 1.043s1.043-.47 1.043-1.043v-.6c0-.574-.47-1.043-1.043-1.043zm0-8.609c.574 0 1.043-.47 1.043-1.043V1.044c0-.574-.47-1.043-1.043-1.043s-1.043.47-1.043 1.043v10.617c0 .574.47 1.043 1.043 1.043zm-8.87 3.809c-.574 0-1.043.47-1.043 1.043v5.4c0 .574.47 1.043 1.043 1.043s1.043-.47 1.043-1.043v-5.4c0-.574-.47-1.043-1.043-1.043zm0-8.974c.574 0 1.043-.47 1.043-1.043V1.044C4.173.47 3.703.001 3.13.001s-1.043.47-1.043 1.043v5.452c0 .574.47 1.043 1.043 1.043z"/></svg><svg width="24" height="24" viewBox="0 0 24 24" x="280" y="168"><path d="M20.452 7.93l-.809 15.078a1.054 1.054 0 01-1.043.991H5.4a1.054 1.054 0 01-1.043-.991L3.548 7.93c-.026-.574.417-1.07.991-1.096s1.07.417 1.096.991l.757 14.087h11.243l.757-14.087a1.048 1.048 0 011.096-.991c.548.026.991.522.965 1.096zm2.765-3.495c0 .574-.47 1.043-1.043 1.043H1.826c-.574 0-1.043-.47-1.043-1.043s.47-1.043 1.043-1.043h5.739V1.044c0-.496.339-.783.835-.783h7.2c.496 0 .835.287.835.783v2.348h5.739c.574 0 1.043.47 1.043 1.043zM9.391 3.391h5.217V2.087H9.391v1.304zm.444 16.957c.522 0 .913-.496.913-.991l-.261-11.27a.93.93 0 00-.939-.913.892.892 0 00-.887.939l.261 11.296c0 .496.417.939.913.939zm4.304 0a.924.924 0 00.913-.913l.261-11.27c0-.496-.391-.939-.887-.939a.925.925 0 00-.939.887l-.261 11.27a.92.92 0 00.913.965c-.026 0-.026 0 0 0z"/></svg><svg width="24" height="24" viewBox="0 0 24 24" x="320" y="168"><path d="M23.217 15.339v7.096c0 .73-.574 1.304-1.304 1.304H2.087c-.73 0-1.304-.574-1.304-1.304v-7.096c0-.73.574-1.304 1.304-1.304s1.304.574 1.304 1.304v5.791h17.217v-5.791c0-.73.574-1.304 1.304-1.304s1.304.574 1.304 1.304zM7.722 7.8l2.974-3.052v11.296c0 .73.574 1.304 1.304 1.304s1.304-.574 1.304-1.304V4.774L16.278 7.8c.261.261.6.391.939.391s.652-.13.913-.365c.522-.496.522-1.33.026-1.852L12.939.652a1.323 1.323 0 00-1.878 0L5.87 5.974a1.314 1.314 0 00.026 1.852c.496.496 1.33.47 1.826-.026z"/></svg><svg width="24" height="24" viewBox="0 0 24 24" x="360" y="168"><path d="M9.235 14.165c3.052 0 5.53-2.478 5.53-5.504 0-3.052-2.478-5.504-5.53-5.504s-5.53 2.478-5.53 5.504c.026 3.026 2.504 5.504 5.53 5.504zm0-8.948c1.904 0 3.443 1.539 3.443 3.417s-1.539 3.417-3.443 3.417-3.443-1.539-3.443-3.417c.026-1.878 1.565-3.417 3.443-3.417zm2.504 9.444a1.11 1.11 0 00-.861.104l-1.643.991-1.643-.991a1.1 1.1 0 00-.861-.104c-1.591.522-6.73 2.374-6.73 5.165 0 .574.47 1.043 1.043 1.043h16.383c.574 0 1.043-.47 1.043-1.043 0-2.791-5.139-4.643-6.73-5.165zm-8.817 4.122c.887-.678 2.374-1.409 3.991-1.983l1.774 1.07a.991.991 0 001.07 0l1.774-1.07c1.617.548 3.104 1.304 3.991 1.983h-12.6zM23.739 18a.77.77 0 01-.783.783H19.46c-.443 0-.783-.339-.783-.783s.339-.783.783-.783h2.322c-.391-.522-1.017-.939-1.8-1.357a.754.754 0 01-.313-1.043.778.778 0 011.07-.313c1.122.6 3 1.878 3 3.496zm-4.382-6.887a2.065 2.065 0 00-2.061-2.061c-.287 0-.548.052-.809.157-.391.157-.861-.026-1.017-.417s.026-.861.417-1.017a3.618 3.618 0 015.035 3.339 3.634 3.634 0 01-3.626 3.626 3.582 3.582 0 01-2.713-1.226.76.76 0 01.078-1.096.76.76 0 011.096.078c.391.443.965.704 1.565.704 1.096-.026 2.035-.965 2.035-2.087z"/></svg><svg width="24" height="24" viewBox="0 0 24 24" x="400" y="168"><path d="M16.252 14.478c2.009 0 3.652-1.643 3.652-3.652s-1.643-3.652-3.652-3.652S12.6 8.817 12.6 10.826a3.662 3.662 0 003.652 3.652zm0-5.739c1.148 0 2.087.939 2.087 2.087s-.939 2.087-2.087 2.087-2.087-.939-2.087-2.087c0-1.148.939-2.087 2.087-2.087zM4.096 9.13a.77.77 0 01.783-.783h4.539c.443 0 .783.339.783.783s-.339.783-.783.783H4.879a.77.77 0 01-.783-.783zm5.321 3.653H4.878c-.443 0-.783-.339-.783-.783s.339-.783.783-.783h4.539c.443 0 .783.339.783.783s-.339.783-.783.783zM8.27 14.87a.77.77 0 01-.783.783H4.878c-.443 0-.783-.339-.783-.783s.339-.783.783-.783h2.635c.417 0 .757.339.757.783zM24 5.896c0-.939-.783-1.722-1.722-1.722H1.721c-.939 0-1.722.783-1.722 1.722v12.209c0 .939.783 1.722 1.722 1.722h20.557c.939 0 1.722-.783 1.722-1.722V5.896zm-21.913.365h19.826v10.878c-1.122-1.096-3.052-1.826-3.809-2.087a.892.892 0 00-.522 0l-1.33.47-1.33-.47c-.157-.052-.339-.026-.522.026-.861.287-3.313 1.096-4.252 2.661H2.087V6.261zm10.356 11.478c.6-.522 1.383-.783 2.217-1.096l1.33.47a.893.893 0 00.522 0l1.33-.443c.835.313 1.617.574 2.217 1.096h-7.617z"/></svg><svg width="24" height="24" viewBox="0 0 24 24" x="440" y="168"><path d="M6.678 3.652c0-.73.574-1.304 1.304-1.304h14.452c.73 0 1.304.574 1.304 1.304s-.574 1.304-1.304 1.304H7.982c-.73 0-1.304-.574-1.304-1.304zm15.757 7.044H7.983c-.73 0-1.304.574-1.304 1.304s.574 1.304 1.304 1.304h14.452c.73 0 1.304-.574 1.304-1.304s-.574-1.304-1.304-1.304zm0 8.347H7.983c-.73 0-1.304.574-1.304 1.304s.574 1.304 1.304 1.304h14.452c.73 0 1.304-.574 1.304-1.304s-.574-1.304-1.304-1.304zM2.348 10.278c-1.017 0-1.826.835-1.826 1.852s.809 1.852 1.826 1.852 1.826-.835 1.826-1.852-.835-1.852-1.826-1.852zm0-8.452c-1.017 0-1.826.835-1.826 1.852S1.331 5.53 2.348 5.53s1.826-.835 1.826-1.852-.835-1.852-1.826-1.852zm0 16.644c-1.017 0-1.826.835-1.826 1.852s.809 1.852 1.826 1.852 1.826-.835 1.826-1.852-.835-1.852-1.826-1.852z"/></svg><svg width="24" height="24" viewBox="0 0 24 24" x="480" y="168"><path d="M9.104 10.617H1.982A1.458 1.458 0 01.521 9.156V3.547c0-.809.652-1.461 1.461-1.461h7.122c.809 0 1.461.652 1.461 1.461v5.609c0 .809-.652 1.461-1.461 1.461zM2.609 8.53h5.87V4.173h-5.87V8.53zm19.408 2.087h-7.122a1.458 1.458 0 01-1.461-1.461V3.547c0-.809.652-1.461 1.461-1.461h7.122c.809 0 1.461.652 1.461 1.461v5.609c0 .809-.652 1.461-1.461 1.461zM15.522 8.53h5.87V4.173h-5.87V8.53zM9.104 21.913H1.982a1.458 1.458 0 01-1.461-1.461v-5.609c0-.809.652-1.461 1.461-1.461h7.122c.809 0 1.461.652 1.461 1.461v5.609c0 .809-.652 1.461-1.461 1.461zm-6.495-2.087h5.87v-4.357h-5.87v4.357zm19.408 2.087h-7.122a1.458 1.458 0 01-1.461-1.461v-5.609c0-.809.652-1.461 1.461-1.461h7.122c.809 0 1.461.652 1.461 1.461v5.609c0 .809-.652 1.461-1.461 1.461zm-6.495-2.087h5.87v-4.357h-5.87v4.357z"/></svg><svg width="24" height="24" viewBox="0 0 24 24" x="520" y="168"><path d="M22.957 22.696H1.044c-.365 0-.704-.209-.913-.522a1.06 1.06 0 010-1.043L11.088 1.827c.183-.339.522-.522.913-.522s.73.209.913.522l10.957 19.304c.183.313.183.73 0 1.043-.209.313-.548.522-.913.522zM2.843 20.609h18.339L11.999 4.461 2.842 20.609zm10.2-6.235V9.522c0-.574-.47-1.043-1.043-1.043s-1.043.47-1.043 1.043v4.852c0 .574.47 1.043 1.043 1.043s1.043-.47 1.043-1.043zm-.13 4.33c.235-.235.391-.574.391-.913s-.13-.678-.391-.913c-.235-.235-.574-.391-.913-.391s-.678.13-.913.391c-.235.235-.391.574-.391.913s.13.678.391.913c.235.235.574.391.913.391s.678-.157.913-.391z"/></svg><svg width="24" height="24" viewBox="0 0 24 24" x="560" y="168"><path d="M20.478 3.522c-4.67-4.67-12.287-4.67-16.983 0-4.67 4.67-4.67 12.287 0 16.983a11.974 11.974 0 008.478 3.522c3.078 0 6.157-1.174 8.478-3.522 4.722-4.696 4.722-12.313.026-16.983zM4.983 19.017c-3.6-3.626-3.835-9.365-.704-13.252l13.957 13.957c-3.887 3.13-9.626 2.922-13.252-.704zm14.739-.782L5.765 4.278A9.88 9.88 0 0112 2.087c2.53 0 5.087.965 7.017 2.896 3.6 3.626 3.835 9.365.704 13.252z"/></svg><svg width="24" height="24" viewBox="0 0 24 24" x="600" y="168"><path d="M5.321 0c2.097 0 5.352.688 6.174 1.258a.676.676 0 01.285.554v6.56a.677.677 0 01-.252.52c-.05.034-1.225.956-2.45 1.644-1.527.839-2.584 2.013-2.836 2.752-.319.906-.755 2.148-2.131 2.148-.654 0-1.191-.369-1.476-1.007-.57-1.309.034-3.121 1.04-4.547a34.18 34.18 0 01-2.013-.52C.756 9.077.135 8.406.018 7.584c-.117-.839.302-1.695 1.191-2.349.654-1.745 1.778-4.547 2.601-5C4.112.067 4.666 0 5.32 0zm5.101 2.215c-1.275-.537-5.201-1.107-5.939-.805-.386.352-1.376 2.601-2.064 4.497a.713.713 0 01-.252.336c-.554.369-.839.805-.789 1.174.05.302.319.554.721.688.839.268 2.919.721 2.953.721.235.05.419.218.503.453s.017.487-.151.654c-1.51 1.627-1.778 3.289-1.493 3.96.067.201.151.201.201.201.336 0 .487-.235.839-1.242.403-1.174 1.795-2.584 3.456-3.49.805-.436 1.611-1.023 2.013-1.325V2.215zm2.651-.47v6.694c0 .604.487 1.091 1.091 1.091s1.091-.487 1.091-1.091V1.745c0-.604-.487-1.091-1.091-1.091s-1.091.503-1.091 1.091zM18.562 24c-2.081 0-5.352-.688-6.158-1.258a.676.676 0 01-.285-.554v-6.56c0-.201.101-.403.252-.52.05-.034 1.225-.956 2.45-1.644 1.527-.839 2.584-2.013 2.836-2.752.302-.906.738-2.148 2.114-2.148.654 0 1.191.369 1.476 1.007.57 1.309-.034 3.121-1.04 4.547.671.151 1.51.369 2.013.52.923.285 1.527.956 1.661 1.778.117.839-.302 1.695-1.191 2.349-.654 1.762-1.778 4.547-2.601 5-.319.168-.872.235-1.527.235zm-5.101-2.215c1.275.537 5.201 1.091 5.939.805.386-.352 1.376-2.601 2.064-4.497a.713.713 0 01.252-.336c.554-.369.839-.805.789-1.174-.05-.302-.319-.554-.721-.688-.839-.268-2.919-.721-2.953-.721-.235-.05-.419-.218-.503-.453s-.017-.487.151-.654c1.51-1.627 1.778-3.289 1.493-3.96-.067-.201-.151-.201-.201-.201-.336 0-.487.235-.839 1.242-.403 1.174-1.795 2.584-3.456 3.49-.805.436-1.611 1.023-2.013 1.325v5.822zm-2.651.47v-6.711c0-.604-.487-1.091-1.091-1.091s-1.107.487-1.107 1.091v6.694c0 .604.487 1.091 1.091 1.091s1.107-.487 1.107-1.074z"/></svg><svg width="24" height="24" viewBox="0 0 24 24" y="208"><path d="M20.575 19.226l2.274-15.618-6.404 6.404L11.999 0 7.553 10.012 1.149 3.608l2.274 15.618zM3.355 20.869h17.291V24H3.355v-3.131z"/></svg><svg width="24" height="24" viewBox="0 0 24 24" x="40" y="208"><path d="M21.616 2.854L12.202.03a.695.695 0 00-.404 0L2.384 2.854a.703.703 0 00-.501.673v10.355c0 1.347.545 2.726 1.621 4.098.821 1.048 1.958 2.101 3.377 3.128 2.385 1.726 4.733 2.785 4.832 2.83a.698.698 0 00.574 0 30.24 30.24 0 004.832-2.83c1.42-1.028 2.556-2.08 3.377-3.128 1.075-1.372 1.621-2.751 1.621-4.098V3.527a.703.703 0 00-.501-.673z"/></svg><svg width="24" height="24" viewBox="0 0 24 24" x="80" y="208"><path d="M17.727 3.818V2.182h-2.841C14.529.924 13.37 0 11.999 0s-2.53.924-2.887 2.182H6.271v1.636H2.998V24h18V3.818h-3.273zm1.637 18.546H4.637V5.455h1.636v1.636h11.455V5.455h1.636v16.909zm-3.273-9.581V10.21H7.909v2.573h1.636v-.936h1.636v5.642h-.812v1.636h3.26v-1.636h-.812v-5.642h1.636v.936h1.636zM7.909 3.818h2.727V3c0-.752.612-1.364 1.364-1.364s1.364.612 1.364 1.364v.818h2.727v1.636H7.909V3.818z"/></svg><svg width="24" height="24" viewBox="0 0 24 24" x="120" y="208"><path d="M17.727 3.818V2.182h-2.841C14.529.924 13.37 0 11.999 0s-2.53.924-2.887 2.182H6.271v1.636H2.998V24h18V3.818h-3.273zm-9.818 0h2.727V3c0-.752.612-1.364 1.364-1.364s1.364.612 1.364 1.364v.818h2.727v1.636H7.909V3.818zm11.455 18.546H4.637V5.455h1.636v1.636h11.455V5.455h1.636v16.909z"/><path d="M13.636 13.909h-.818v-1.636h.818c.468 0 .927.078 1.364.233l.545-1.543a5.724 5.724 0 00-1.909-.326h-.818V9.273h-1.636v1.364h-.818c-1.353 0-2.455 1.101-2.455 2.455s1.101 2.455 2.455 2.455h.818v1.636h-.818A4.07 4.07 0 019 16.95l-.545 1.543a5.724 5.724 0 001.909.326h.818v1.364h1.636v-1.364h.818c1.353 0 2.455-1.101 2.455-2.455s-1.101-2.455-2.455-2.455zm-2.454 0h-.818a.819.819 0 010-1.636h.818v1.636zm2.454 3.273h-.818v-1.636h.818a.819.819 0 010 1.636z"/></svg><svg width="24" height="24" viewBox="0 0 24 24" x="160" y="208"><path d="M6.145 11.3h2.557l1.966-7.055h2.512l2.006 7.055h2.605l1.726-7.055h2.565L20.243 11.3h3.74v1.726h-4.19l-1.75 6.714h-2.756l-1.91-6.714h-2.885L8.62 19.74H5.864L4.13 13.026H-.002V11.3h3.683L1.825 4.245h2.586L6.142 11.3zm2.075 1.727H6.568l.061.249c.346 1.449.594 2.728.742 3.837.078-.601.194-1.272.35-2.014s.297-1.343.424-1.802l.075-.27zm9.149 0h-1.692l.089.313c.247.841.509 2.099.784 3.773.106-1.01.36-2.296.763-3.858l.056-.228zM12.888 11.3l-.228-.802c-.113-.403-.254-.984-.424-1.744s-.272-1.288-.307-1.585c-.071.452-.185 1.039-.344 1.759s-.291 1.258-.397 1.611l-.212.76h1.913z"/></svg><svg width="24" height="24" viewBox="0 0 24 24" x="200" y="208"><path d="M3.598 10.343l-.705.523-1.039-1.039L11.99 2.035 22.159 9.86l-1.039 1.039-.705-.524v10.639H3.597V10.343zm1.469-1.091V19.47h13.88V9.283L11.99 4.112l-6.924 5.14zm7.534 7.337h-1.248V10.41h1.248v6.179zm-2.071 0H6.524v-.751l2.521-4.388H6.499v-1.04h3.985v.734l-2.499 4.409h2.546v1.035zm4.367 0h-1.248V10.41h2.105c.314 0 .595.051.842.153s.458.244.63.426c.173.182.305.399.397.649s.138.523.138.817c0 .3-.046.571-.138.813s-.224.448-.397.617c-.173.17-.383.301-.632.392s-.529.138-.84.138h-.857v2.173zm0-3.212h.857c.13 0 .243-.023.337-.068s.173-.108.233-.189c.061-.081.105-.177.134-.289s.042-.234.042-.367c0-.133-.014-.26-.042-.382s-.073-.229-.134-.322c-.061-.093-.139-.168-.233-.225s-.207-.085-.337-.085h-.857v1.927z"/></svg><svg width="24" height="24" viewBox="0 0 24 24" x="240" y="208"><path d="M10.183 20.114H8.079L12.52 4.047h2.104l-4.441 16.067zm-4.387-8.501L6.86 7.098h2.232l-2.631 9.193c-.059.202-.139.421-.24.658s-.238.457-.41.661c-.172.204-.387.374-.643.51s-.567.203-.931.203a2.568 2.568 0 01-.636-.078c-.064-.018-.138-.038-.222-.063v-1.633c.039.005.08.007.122.007h.122c.167 0 .313-.016.436-.048s.228-.082.314-.151c.086-.069.158-.156.214-.262s.105-.233.144-.381l.163-.539-2.306-8.077h2.246l.961 4.515zm11.471 3.48h-2.099V7.097h1.966l.059.791c.232-.305.502-.538.813-.698s.658-.24 1.042-.24c.31 0 .596.053.857.159s.485.28.672.521c.187.241.333.557.436.946s.155.867.155 1.434v5.084h-2.099v-5.091c0-.256-.02-.468-.059-.635s-.097-.301-.174-.399c-.076-.099-.171-.167-.285-.207s-.246-.059-.399-.059c-.197 0-.369.052-.517.155s-.271.246-.369.429v5.808z"/></svg><svg width="24" height="24" viewBox="0 0 24 24" x="280" y="208"><path d="M4.687 11.877c0-1.932.592-4.328 2.861-4.328 2.341 0 2.87 2.551 2.87 4.328 0 1.931-.61 4.318-2.87 4.328-2.359-.073-2.861-2.506-2.861-4.328zm4.364 0c-.008-1.066-.027-3.253-1.503-3.253-1.495 0-1.495 2.406-1.503 3.253.037 1.012 0 3.244 1.503 3.234 1.503-.027 1.503-2.313 1.503-3.234zm4.048 3.662c0 .511-.42.911-.921.911h-.003a.914.914 0 01-.909-.909v-.003c0-.501.41-.911.911-.911s.921.41.921.911zm2.597-4.61h1.02c1.285 0 2.597.93 2.597 2.478 0 1.949-1.276 2.743-2.733 2.743-1.503 0-2.451-.666-2.633-2.323l1.112-.401c.11 1.103.465 1.612 1.558 1.612.784-.009 1.358-.619 1.358-1.457 0-.92-.265-1.613-1.158-1.613H14.95c-.309 0-.574-.282-.574-.584V8.178c0-.3.265-.547.565-.547h4.145v1.021h-3.244c-.073 0-.145.064-.145.137v2.14zm5.473-7.689H2.83A1.036 1.036 0 001.8 4.271V19.728c0 .565.465 1.031 1.03 1.031h18.339a1.036 1.036 0 001.03-1.031V4.272v-.001c0-.565-.465-1.031-1.03-1.031zm-.193 16.25H2.979V4.462h17.997V19.49z"/></svg><svg width="24" height="24" viewBox="0 0 24 24" x="320" y="208"><path d="M20.976 11.28v8.21H2.979v-8.21H1.8v8.448c0 .57.461 1.032 1.03 1.032h18.339a1.03 1.03 0 001.03-1.032V11.28h-1.224zM2.979 4.461h17.997v6.819H22.2V4.272a1.03 1.03 0 00-1.03-1.032H2.831a1.03 1.03 0 00-1.03 1.032v7.008H2.98V4.461zm3.648 4.144l-.017.018a4.085 4.085 0 01-.826.643c-.33.184-.645.314-.937.387l-.044.011v1.207l.074-.022c.569-.164 1.054-.413 1.446-.741v5.285h1.208V8.604h-.904zm2.615 5.922c.44.662 1.069.998 1.867.998.789 0 1.417-.336 1.867-.998.415-.624.625-1.474.625-2.527 0-.252-.013-.492-.037-.72h-1.203c.022.239.032.48.032.72 0 .682-.074 1.231-.22 1.633-.218.572-.566.85-1.065.85-.508 0-.856-.278-1.064-.849-.146-.403-.22-.953-.22-1.634 0-.26.011-.501.031-.72H8.653a6.916 6.916 0 00-.037.72c0 1.054.21 1.904.625 2.527zm.803-4.161v-.001c.205-.571.553-.849 1.064-.849.502 0 .851.278 1.065.85.091.245.154.551.189.914h1.202c-.076-.727-.273-1.333-.588-1.807-.443-.662-1.072-.998-1.867-.998-.805 0-1.433.336-1.867.998-.316.474-.512 1.081-.588 1.807h1.202c.035-.363.098-.669.189-.914zm5.595 0v-.001c.205-.571.553-.849 1.064-.849.502 0 .851.278 1.064.85.091.245.154.551.189.914h1.202c-.076-.727-.273-1.333-.588-1.807-.444-.662-1.072-.998-1.867-.998-.805 0-1.433.336-1.867.998-.316.474-.512 1.081-.589 1.807h1.202c.035-.363.098-.669.189-.914zm-.802 4.161c.44.662 1.069.998 1.867.998.789 0 1.417-.336 1.867-.998.415-.624.625-1.474.625-2.527 0-.252-.013-.492-.037-.72h-1.202c.021.22.031.46.031.72 0 .681-.074 1.231-.22 1.633-.218.572-.566.85-1.065.85-.508 0-.856-.278-1.065-.849-.146-.403-.22-.953-.22-1.634 0-.26.011-.501.031-.72h-1.202a6.916 6.916 0 00-.037.72c0 1.054.21 1.904.625 2.527z"/></svg><svg width="24" height="24" viewBox="0 0 24 24" x="360" y="208"><path d="M20.386 7.89a9.323 9.323 0 00-6.333-5.002C9.024 1.755 4.021 4.918 2.888 9.947s2.03 10.032 7.059 11.165c5.029 1.133 10.032-2.03 11.165-7.059l-1.283-.289c-.974 4.321-5.272 7.039-9.593 6.065s-7.039-5.272-6.065-9.593c.974-4.321 5.272-7.039 9.593-6.065A7.996 7.996 0 0118.7 7.586c.127.192.295.484.391.653l.572 1.038-1.145.631 2.65.766.766-2.65-1.145.631-.406-.765zm-7.37 9.429h-2.032v-3.518L7.799 7.618h2.192l2.005 4.371 2.019-4.371H16.2l-3.185 6.183v3.518z"/></svg><svg width="24" height="24" viewBox="0 0 24 24" x="400" y="208"><path d="M20.976 19.49V4.462H2.979v15.029h17.997zm-4.669-9.019h-1.342c0-.285.051-.543.152-.775s.239-.43.413-.593.379-.289.614-.379c.236-.09.489-.135.761-.135.3 0 .575.042.825.126s.464.209.643.375.318.372.417.617.149.529.149.851a1.678 1.678 0 01-.509 1.207 1.563 1.563 0 01-.377.277c.326.139.568.348.728.626s.24.607.24.987c0 .322-.055.61-.164.863s-.258.466-.448.638-.414.304-.673.394-.539.135-.84.135c-.253 0-.499-.04-.738-.119s-.451-.201-.636-.365c-.185-.164-.334-.371-.448-.619s-.171-.543-.171-.885h1.342c0 .127.017.243.052.349s.082.198.142.275c.06.077.132.138.216.183s.176.066.277.066c.117 0 .221-.022.313-.066s.17-.107.235-.19.115-.181.149-.296c.035-.115.052-.244.052-.387 0-.364-.07-.625-.211-.785s-.338-.24-.59-.24h-.65v-1.081h.65c.247 0 .428-.086.543-.259s.173-.402.173-.69c0-.126-.013-.243-.04-.349s-.068-.198-.123-.275a.582.582 0 00-.491-.249.585.585 0 00-.446.204c-.057.066-.103.147-.138.242s-.052.202-.052.323zm-8.209 4.435c0-.104.018-.202.055-.292a.698.698 0 01.401-.392.86.86 0 01.322-.057c.117 0 .224.019.32.057s.179.09.249.157c.07.066.123.145.159.235s.055.187.055.292-.018.202-.055.292c-.036.09-.089.168-.159.232s-.153.116-.249.154a.864.864 0 01-.32.057c-.12 0-.228-.019-.322-.057s-.176-.089-.244-.154-.12-.142-.157-.232-.055-.187-.055-.292zm-.658.683H6.093v-5.274l-1.314.507V9.703l2.518-1.029h.142v6.915zm4.158-4.729h-1.347c0-.313.048-.607.145-.882s.234-.515.413-.721c.179-.206.397-.368.655-.489s.548-.18.87-.18c.316 0 .595.045.837.135s.445.219.609.387c.164.168.289.373.372.617s.126.517.126.821c0 .231-.03.455-.09.671s-.146.432-.258.647c-.112.215-.249.432-.41.652s-.343.45-.545.69l-.887 1.266h2.348v1.115h-4.069v-.949l1.869-2.376c.133-.183.243-.35.332-.5s.16-.289.213-.415c.054-.126.092-.243.114-.351s.033-.212.033-.313c0-.307-.053-.547-.159-.721s-.259-.261-.458-.261c-.12 0-.225.029-.313.088s-.163.139-.223.242c-.06.103-.104.225-.133.368s-.043.296-.043.46zm-3.5.166c0-.104.018-.202.055-.292a.698.698 0 01.401-.392.86.86 0 01.322-.057c.117 0 .224.019.32.057s.179.09.249.157.123.145.159.235c.036.09.055.187.055.292s-.018.202-.055.292c-.036.09-.089.168-.159.232s-.153.116-.249.154a.864.864 0 01-.32.057c-.12 0-.228-.019-.322-.057s-.176-.089-.244-.154-.12-.142-.157-.232a.778.778 0 01-.055-.292zM22.2 19.728a1.03 1.03 0 01-1.03 1.032H2.831a1.03 1.03 0 01-1.03-1.032V4.273c0-.57.461-1.032 1.03-1.032H21.17c.569 0 1.03.462 1.03 1.032v15.455z"/></svg><svg width="24" height="24" viewBox="0 0 24 24" x="440" y="208"><path d="M20.976 19.49V4.462H2.979v15.029h17.997zm-1.712-7.117h-1.262c-.003-.288-.051-.509-.142-.664s-.243-.232-.455-.232c-.149 0-.266.03-.353.09s-.153.148-.199.263c-.046.115-.076.258-.09.427s-.021.364-.021.586v.37c0 .224.006.421.019.59s.042.311.088.424c.046.114.113.199.202.256s.209.085.36.085c.187 0 .331-.058.434-.173s.156-.311.159-.586h1.262c-.003.291-.052.553-.147.785s-.224.429-.387.591-.355.285-.576.37a1.98 1.98 0 01-.716.128c-.345 0-.645-.055-.901-.166s-.469-.271-.638-.481c-.169-.21-.296-.469-.379-.775s-.126-.656-.126-1.048v-.37c0-.392.042-.742.126-1.051s.209-.568.377-.78c.168-.212.379-.373.636-.484s.555-.166.896-.166c.275 0 .526.043.752.13s.419.215.579.384c.16.169.283.379.37.628s.132.539.135.868zm-7.28 3.216h-1.238V8.304h1.342v2.571c.12-.161.262-.287.427-.377s.356-.135.574-.135c.575 0 .996.211 1.262.633s.398 1.041.398 1.857v.337c0 .832-.133 1.455-.398 1.871s-.683.624-1.252.624c-.237 0-.443-.053-.619-.159s-.326-.254-.453-.443l-.043.507zm-1.817 0H8.678l-.37-1.413H6.406l-.37 1.413H4.561l2.158-6.906h1.276l2.172 6.906zm3.239-2.737c0-.231-.009-.432-.026-.602s-.051-.313-.102-.427-.122-.198-.213-.254a.695.695 0 00-.36-.083c-.152 0-.277.034-.377.102s-.179.162-.24.282v2.338c.057.114.136.202.237.266s.231.095.389.095c.145 0 .264-.025.356-.076s.162-.131.211-.242c.049-.111.082-.253.1-.427s.026-.386.026-.636v-.337zm-6.697.161h1.29l-.645-2.462-.645 2.462zM22.2 19.728a1.03 1.03 0 01-1.03 1.032H2.831a1.03 1.03 0 01-1.03-1.032V4.273c0-.57.461-1.032 1.03-1.032H21.17c.569 0 1.03.462 1.03 1.032v15.455z"/></svg><svg width="24" height="24" viewBox="0 0 24 24" x="480" y="208"><path d="M17 8c0 1.894.211 3.458.533 4.741.288 1.148.664 2.068 1.052 2.794.088.165.177.32.266.465H5.149c.089-.145.177-.3.266-.465a12.19 12.19 0 001.052-2.794C6.789 11.458 7 9.894 7 8a4.992 4.992 0 015-5 4.992 4.992 0 015 5zm2 0a6.985 6.985 0 00-2.05-4.95A6.985 6.985 0 0012 1a6.985 6.985 0 00-4.95 2.05A6.985 6.985 0 005 8c0 1.745-.194 3.145-.473 4.255-.249.993-.566 1.758-.875 2.336a6.152 6.152 0 01-.849 1.234 2.62 2.62 0 01-.369.35A1 1 0 003 18h18a1 1 0 00.555-1.832c.009.006-.137-.099-.358-.343a6.152 6.152 0 01-.849-1.234c-.309-.578-.626-1.343-.875-2.336C19.194 11.145 19 9.745 19 8zm-6.135 12.498a1.002 1.002 0 01-.998.49.991.991 0 01-.368-.127.967.967 0 01-.359-.357 1 1 0 10-1.737.991 2.995 2.995 0 004.421.884c.305-.233.57-.529.773-.878a1 1 0 00-1.73-1.004z"/></svg><svg width="24" height="24" viewBox="0 0 24 24" x="520" y="208"><path d="M6.293 13.707l5 5a.999.999 0 001.414 0l5-5a.999.999 0 10-1.414-1.414L12 16.586l-4.293-4.293a.999.999 0 10-1.414 1.414zm0-7l5 5a.999.999 0 001.414 0l5-5a.999.999 0 10-1.414-1.414L12 9.586 7.707 5.293a.999.999 0 10-1.414 1.414z"/></svg><svg width="24" height="24" viewBox="0 0 24 24" x="560" y="208"><path d="M17.707 10.293l-5-5a.999.999 0 00-1.414 0l-5 5a.999.999 0 101.414 1.414L12 7.414l4.293 4.293a.999.999 0 101.414-1.414zm0 7l-5-5a.999.999 0 00-1.414 0l-5 5a.999.999 0 101.414 1.414L12 14.414l4.293 4.293a.999.999 0 101.414-1.414z"/></svg><svg width="24" height="24" viewBox="0 0 24 24" x="600" y="208"><path d="M23 12a10.976 10.976 0 00-3.221-7.778A10.967 10.967 0 0012 1a10.976 10.976 0 00-7.778 3.222 11.028 11.028 0 00-2.389 3.571C1.296 9.09 1 10.512 1 12a10.976 10.976 0 003.221 7.778A10.967 10.967 0 0012 23a10.976 10.976 0 007.778-3.221A10.967 10.967 0 0023 12zm-2 0a8.984 8.984 0 01-.681 3.442 9.035 9.035 0 01-4.877 4.877C14.383 20.757 13.221 21 12 21s-2.383-.243-3.442-.681a8.997 8.997 0 01-2.922-1.955 9.019 9.019 0 01-1.955-2.922C3.243 14.383 3 13.221 3 12s.243-2.383.681-3.442a9.035 9.035 0 014.877-4.877C9.617 3.243 10.779 3 12 3s2.383.243 3.442.681a8.997 8.997 0 012.922 1.955 9.019 9.019 0 011.955 2.922A8.984 8.984 0 0121 12zM8 13h8a1 1 0 000-2H8a1 1 0 000 2z"/></svg><svg width="24" height="24" viewBox="0 0 24 24" y="248"><path d="M23 12a10.976 10.976 0 00-3.221-7.778A10.967 10.967 0 0012 1a10.976 10.976 0 00-7.778 3.222 11.028 11.028 0 00-2.389 3.571C1.296 9.09 1 10.512 1 12a10.976 10.976 0 003.221 7.778A10.967 10.967 0 0012 23a10.976 10.976 0 007.778-3.221A10.967 10.967 0 0023 12zm-2 0a8.984 8.984 0 01-.681 3.442 9.035 9.035 0 01-4.877 4.877C14.383 20.757 13.221 21 12 21s-2.383-.243-3.442-.681a8.997 8.997 0 01-2.922-1.955 9.019 9.019 0 01-1.955-2.922C3.243 14.383 3 13.221 3 12s.243-2.383.681-3.442a9.035 9.035 0 014.877-4.877C9.617 3.243 10.779 3 12 3s2.383.243 3.442.681a8.997 8.997 0 012.922 1.955 9.019 9.019 0 011.955 2.922A8.984 8.984 0 0121 12zM8 13h3v3a1 1 0 002 0v-3h3a1 1 0 000-2h-3V8a1 1 0 00-2 0v3H8a1 1 0 000 2z"/></svg><svg width="24" height="24" viewBox="0 0 24 24" x="40" y="248"><path d="M21.433 8.666a9.974 9.974 0 00-5.12-5.689 9.96 9.96 0 00-7.643-.402 9.866 9.866 0 00-3.743 2.364L2 7.689V4a1 1 0 00-2 0v6a1 1 0 001 1h6a1 1 0 000-2H3.524l2.83-2.659a7.87 7.87 0 012.983-1.88 7.986 7.986 0 013.086-.45 8.022 8.022 0 015.534 2.641 7.98 7.98 0 011.591 2.682 1 1 0 101.885-.667zM20.475 15l-2.8 2.631a8.015 8.015 0 01-2.613 1.757 8.017 8.017 0 01-6.131.002 7.99 7.99 0 01-2.592-1.734 7.86 7.86 0 01-1.883-2.981 1.001 1.001 0 00-1.892.65 9.862 9.862 0 002.361 3.745 9.99 9.99 0 003.241 2.168 10.038 10.038 0 007.662-.002 9.933 9.933 0 003.217-2.148L22 16.312V20a1 1 0 002 0v-6l-.001-.042a.976.976 0 00-.279-.652.99.99 0 00-.708-.305H17a1 1 0 000 2z"/></svg><svg width="24" height="24" viewBox="0 0 24 24" x="80" y="248"><path d="M21 21v-2a4.978 4.978 0 00-1.464-3.535A5 5 0 0016 14H8a4.978 4.978 0 00-3.535 1.464A5 5 0 003 19v2a1 1 0 002 0v-2a2.985 2.985 0 01.879-2.121A2.985 2.985 0 018 16h8a2.985 2.985 0 012.121.879A2.985 2.985 0 0119 19v2a1 1 0 002 0zM17 7a4.978 4.978 0 00-1.464-3.535A5 5 0 1012 12a4.978 4.978 0 003.535-1.464A5 5 0 0017 7zm-2 0a2.985 2.985 0 01-.879 2.121A2.985 2.985 0 0112 10a2.985 2.985 0 01-2.121-.879A2.985 2.985 0 019 7a2.985 2.985 0 01.879-2.121A2.985 2.985 0 0112 4a2.985 2.985 0 012.121.879A2.985 2.985 0 0115 7z"/></svg><svg width="24" height="24" viewBox="0 0 24 24" x="120" y="248"><path d="M5.293 6.707L10.586 12l-5.293 5.293a.999.999 0 101.414 1.414L12 13.414l5.293 5.293a.999.999 0 101.414-1.414L13.414 12l5.293-5.293a.999.999 0 10-1.414-1.414L12 10.586 6.707 5.293a.999.999 0 10-1.414 1.414z"/></svg><svg width="26" height="28" viewBox="0 0 26 28" y="288"><path d="M18 13c0-3.859-3.141-7-7-7s-7 3.141-7 7 3.141 7 7 7 7-3.141 7-7zm8 13c0 1.094-.906 2-2 2a1.96 1.96 0 01-1.406-.594l-5.359-5.344a10.971 10.971 0 01-6.234 1.937c-6.078 0-11-4.922-11-11s4.922-11 11-11 11 4.922 11 11c0 2.219-.672 4.406-1.937 6.234l5.359 5.359c.359.359.578.875.578 1.406z"/></svg><svg width="24" height="28" viewBox="0 0 24 28" x="44" y="288"><path d="M22.937 5.938c.578.578 1.062 1.734 1.062 2.562v18a1.5 1.5 0 01-1.5 1.5h-21a1.5 1.5 0 01-1.5-1.5v-25a1.5 1.5 0 011.5-1.5h14c.828 0 1.984.484 2.562 1.062zM16 2.125V8h5.875c-.094-.266-.234-.531-.344-.641L16.64 2.468c-.109-.109-.375-.25-.641-.344zM22 26V10h-6.5A1.5 1.5 0 0114 8.5V2H2v24h20z"/></svg><svg width="26" height="28" viewBox="0 0 26 28" x="88" y="288"><path d="M25.609 7.469c.391.562.5 1.297.281 2.016l-4.297 14.156C21.202 24.969 19.827 26 18.484 26H4.062C2.468 26 .765 24.734.187 23.109c-.25-.703-.25-1.391-.031-1.984.031-.313.094-.625.109-1 .016-.25-.125-.453-.094-.641.063-.375.391-.641.641-1.062.469-.781 1-2.047 1.172-2.859.078-.297-.078-.641 0-.906.078-.297.375-.516.531-.797.422-.719.969-2.109 1.047-2.844.031-.328-.125-.688-.031-.938.109-.359.453-.516.688-.828.375-.516 1-2 1.094-2.828.031-.266-.125-.531-.078-.812.063-.297.438-.609.688-.969.656-.969.781-3.109 2.766-2.547l-.016.047C8.939 2.078 9.204 2 9.47 2h11.891c.734 0 1.391.328 1.781.875.406.562.5 1.297.281 2.031l-4.281 14.156C18.408 21.468 18.001 22 16.017 22H2.439c-.203 0-.453.047-.594.234-.125.187-.141.328-.016.672C2.142 23.812 3.22 24 4.079 24h14.422c.578 0 1.25-.328 1.422-.891l4.688-15.422c.094-.297.094-.609.078-.891.359.141.688.359.922.672zM8.984 7.5c-.094.281.063.5.344.5h9.5c.266 0 .562-.219.656-.5l.328-1c.094-.281-.063-.5-.344-.5h-9.5c-.266 0-.562.219-.656.5zm-1.296 4c-.094.281.063.5.344.5h9.5c.266 0 .562-.219.656-.5l.328-1c.094-.281-.063-.5-.344-.5h-9.5c-.266 0-.562.219-.656.5z"/></svg><svg width="25" height="28" viewBox="0 0 25 28" x="132" y="288"><path d="M24 14v2c0 1.062-.703 2-1.828 2h-11l4.578 4.594a1.96 1.96 0 010 2.812l-1.172 1.188c-.359.359-.875.578-1.406.578s-1.047-.219-1.422-.578L1.578 16.407C1.219 16.048 1 15.532 1 15.001s.219-1.047.578-1.422L11.75 3.423c.375-.375.891-.594 1.422-.594s1.031.219 1.406.594l1.172 1.156c.375.375.594.891.594 1.422s-.219 1.047-.594 1.422l-4.578 4.578h11c1.125 0 1.828.938 1.828 2z"/></svg><svg width="23" height="28" viewBox="0 0 23 28" x="176" y="288"><path d="M23 15a2.01 2.01 0 01-.578 1.422L12.25 26.594c-.375.359-.891.578-1.422.578s-1.031-.219-1.406-.578L8.25 25.422c-.375-.375-.594-.891-.594-1.422s.219-1.047.594-1.422L12.828 18h-11C.703 18 0 17.062 0 16v-2c0-1.062.703-2 1.828-2h11L8.25 7.406a1.96 1.96 0 010-2.812l1.172-1.172c.375-.375.875-.594 1.406-.594s1.047.219 1.422.594l10.172 10.172c.375.359.578.875.578 1.406z"/></svg><svg width="28" height="28" viewBox="0 0 28 28" x="220" y="288"><path d="M26 15c-1.484-2.297-3.516-4.266-5.953-5.516A6.943 6.943 0 0121 13c0 3.859-3.141 7-7 7s-7-3.141-7-7c0-1.234.328-2.453.953-3.516C5.515 10.734 3.484 12.703 2 15c2.672 4.125 6.984 7 12 7s9.328-2.875 12-7zM14.75 9a.76.76 0 00-.75-.75c-2.609 0-4.75 2.141-4.75 4.75 0 .406.344.75.75.75s.75-.344.75-.75A3.268 3.268 0 0114 9.75a.76.76 0 00.75-.75zM28 15c0 .391-.125.75-.313 1.078C24.812 20.812 19.546 24 14 24S3.187 20.797.313 16.078C.126 15.75 0 15.39 0 15s.125-.75.313-1.078C3.188 9.203 8.454 6 14 6s10.813 3.203 13.687 7.922c.187.328.313.688.313 1.078z"/></svg><svg width="28" height="28" viewBox="0 0 28 28" x="264" y="288"><path d="M6 22a3.001 3.001 0 01-6 0 3.001 3.001 0 016 0zm0-8a3.001 3.001 0 01-6 0 3.001 3.001 0 016 0zm22 6.5v3c0 .266-.234.5-.5.5h-19a.514.514 0 01-.5-.5v-3c0-.266.234-.5.5-.5h19c.266 0 .5.234.5.5zM6 6a3.001 3.001 0 01-6 0 3.001 3.001 0 016 0zm22 6.5v3c0 .266-.234.5-.5.5h-19a.514.514 0 01-.5-.5v-3c0-.266.234-.5.5-.5h19c.266 0 .5.234.5.5zm0-8v3c0 .266-.234.5-.5.5h-19a.514.514 0 01-.5-.5v-3c0-.266.234-.5.5-.5h19c.266 0 .5.234.5.5z"/></svg><svg width="24" height="28" viewBox="0 0 24 28" x="308" y="288"><path d="M24 14c0 6.609-5.391 12-12 12a11.972 11.972 0 01-9.234-4.328.52.52 0 01.031-.672l2.141-2.156a.599.599 0 01.391-.141.51.51 0 01.359.187A7.91 7.91 0 0012 21.999c4.406 0 8-3.594 8-8s-3.594-8-8-8A7.952 7.952 0 006.563 8.14l2.141 2.156a.964.964 0 01.219 1.078 1.002 1.002 0 01-.922.625h-7c-.547 0-1-.453-1-1v-7c0-.406.25-.766.625-.922a.964.964 0 011.078.219l2.031 2.016c2.203-2.078 5.187-3.313 8.266-3.313 6.609 0 12 5.391 12 12z"/></svg><svg width="24" height="28" viewBox="0 0 24 28" x="352" y="288"><path d="M22.937 5.938c.578.578 1.062 1.734 1.062 2.562v18a1.5 1.5 0 01-1.5 1.5h-21a1.5 1.5 0 01-1.5-1.5v-25a1.5 1.5 0 011.5-1.5h14c.828 0 1.984.484 2.562 1.062zM16 2.125V8h5.875c-.094-.266-.234-.531-.344-.641L16.64 2.468c-.109-.109-.375-.25-.641-.344zM22 26V10h-6.5A1.5 1.5 0 0114 8.5V2H2v24h20zM6 12.5c0-.281.219-.5.5-.5h11c.281 0 .5.219.5.5v1c0 .281-.219.5-.5.5h-11a.494.494 0 01-.5-.5v-1zM17.5 16c.281 0 .5.219.5.5v1c0 .281-.219.5-.5.5h-11a.494.494 0 01-.5-.5v-1c0-.281.219-.5.5-.5h11zm0 4c.281 0 .5.219.5.5v1c0 .281-.219.5-.5.5h-11a.494.494 0 01-.5-.5v-1c0-.281.219-.5.5-.5h11z"/></svg><svg width="16" height="28" viewBox="0 0 16 28" x="396" y="288"><path d="M15.281 18.516c0 3.187-2.281 5.703-5.594 6.25V27.5c0 .281-.219.5-.5.5H7.078a.503.503 0 01-.5-.5v-2.734C2.922 24.25.922 22.063.844 21.969a.518.518 0 01-.031-.641l1.609-2.109c.078-.109.219-.172.359-.187s.281.031.375.141c.031.016 2.219 2.109 4.984 2.109 1.531 0 3.187-.812 3.187-2.578 0-1.5-1.844-2.234-3.953-3.078-2.812-1.109-6.312-2.516-6.312-6.438 0-2.875 2.25-5.25 5.516-5.875V.501c0-.281.234-.5.5-.5h2.109c.281 0 .5.219.5.5v2.75c3.172.359 4.859 2.078 4.922 2.141a.501.501 0 01.078.594l-1.266 2.281a.461.461 0 01-.359.25.52.52 0 01-.422-.109c-.016-.016-1.906-1.687-4.25-1.687-1.984 0-3.359.984-3.359 2.406 0 1.656 1.906 2.391 4.125 3.25 2.875 1.109 6.125 2.375 6.125 6.141z"/></svg><svg width="24" height="28" viewBox="0 0 24 28" x="440" y="288"><path d="M16 14c0 2.203-1.797 4-4 4s-4-1.797-4-4 1.797-4 4-4 4 1.797 4 4zm-4-8.5c-4.688 0-8.5 3.813-8.5 8.5s3.813 8.5 8.5 8.5 8.5-3.813 8.5-8.5-3.813-8.5-8.5-8.5zM24 14c0 6.625-5.375 12-12 12S0 20.625 0 14 5.375 2 12 2s12 5.375 12 12z"/></svg><svg width="24" height="28" viewBox="0 0 24 28" x="484" y="288"><path d="M22.937 5.938c.578.578 1.062 1.734 1.062 2.562v18a1.5 1.5 0 01-1.5 1.5h-21a1.5 1.5 0 01-1.5-1.5v-25a1.5 1.5 0 011.5-1.5h14c.828 0 1.984.484 2.562 1.062zM16 2.125V8h5.875c-.094-.266-.234-.531-.344-.641L16.64 2.468c-.109-.109-.375-.25-.641-.344zM22 26V10h-6.5A1.5 1.5 0 0114 8.5V2H2v24h20zm-8.031-9.266c.391.313.828.594 1.312.875a15.456 15.456 0 011.828-.109c1.047 0 2.375.125 2.766.766.109.156.203.438.031.812-.016.016-.031.047-.047.063v.016c-.047.281-.281.594-1.109.594-1 0-2.516-.453-3.828-1.141-2.172.234-4.453.719-6.125 1.297-1.609 2.75-2.844 4.094-3.781 4.094a.871.871 0 01-.438-.109l-.375-.187c-.047-.016-.063-.047-.094-.078-.078-.078-.141-.25-.094-.562.156-.719 1-1.922 2.938-2.938.125-.078.281-.031.359.094a.117.117 0 01.031.063 40.696 40.696 0 001.672-3.078c.703-1.406 1.25-2.781 1.625-4.094-.5-1.703-.656-3.453-.375-4.484.109-.391.344-.625.656-.625h.344c.234 0 .422.078.547.234.187.219.234.562.141 1.062-.016.047-.031.094-.063.125a.336.336 0 01.016.125v.469c-.016.984-.031 1.922-.219 3 .547 1.641 1.359 2.969 2.281 3.719zm-9 6.422c.469-.219 1.141-.891 2.141-2.469-1.172.906-1.906 1.937-2.141 2.469zm6.219-14.375c-.156.438-.156 1.188-.031 2.063.047-.25.078-.484.109-.688.031-.266.078-.484.109-.672a.46.46 0 01.063-.125c-.016-.016-.016-.047-.031-.078-.016-.281-.109-.453-.203-.562 0 .031-.016.047-.016.063zM9.25 19.109a23.884 23.884 0 014.438-1.266c-.156-.125-.313-.234-.453-.359-.766-.672-1.453-1.609-1.984-2.75-.297.953-.734 1.969-1.297 3.078-.234.438-.469.875-.703 1.297zm10.094-.25c-.078-.078-.484-.375-2.188-.375.766.281 1.469.438 1.937.438.141 0 .219 0 .281-.016 0-.016-.016-.031-.031-.047z"/></svg><svg width="24" height="28" viewBox="0 0 24 28" x="528" y="288"><path d="M22.937 5.938c.578.578 1.062 1.734 1.062 2.562v18a1.5 1.5 0 01-1.5 1.5h-21a1.5 1.5 0 01-1.5-1.5v-25a1.5 1.5 0 011.5-1.5h14c.828 0 1.984.484 2.562 1.062zM16 2.125V8h5.875c-.094-.266-.234-.531-.344-.641L16.64 2.468c-.109-.109-.375-.25-.641-.344zM22 26V10h-6.5A1.5 1.5 0 0114 8.5V2H2v24h20zM3.641 12v1.672h1.094L7.297 24h2.484l2-7.578c.078-.234.125-.469.156-.719.016-.125.031-.25.031-.375h.063l.047.375c.047.219.063.469.141.719l2 7.578h2.484l2.562-10.328h1.094V12h-4.688v1.672h1.406l-1.547 6.844c-.063.25-.094.516-.109.719l-.031.328h-.063c0-.094-.031-.219-.047-.328-.047-.203-.078-.469-.141-.719L12.889 12h-1.781l-2.25 8.516c-.063.25-.078.516-.125.719l-.063.328h-.063l-.031-.328a4.58 4.58 0 00-.109-.719L6.92 13.672h1.406V12H3.638z"/></svg><svg width="24" height="28" viewBox="0 0 24 28" x="572" y="288"><path d="M22.937 5.938c.578.578 1.062 1.734 1.062 2.562v18a1.5 1.5 0 01-1.5 1.5h-21a1.5 1.5 0 01-1.5-1.5v-25a1.5 1.5 0 011.5-1.5h14c.828 0 1.984.484 2.562 1.062zM16 2.125V8h5.875c-.094-.266-.234-.531-.344-.641L16.64 2.468c-.109-.109-.375-.25-.641-.344zM22 26V10h-6.5A1.5 1.5 0 0114 8.5V2H2v24h20zM6.703 22.344V24h4.391v-1.656H9.922l1.609-2.516c.187-.297.281-.531.328-.531h.031c.016.063.047.109.078.156.063.125.156.219.266.375l1.672 2.516h-1.188V24h4.547v-1.656h-1.062l-3-4.266 3.047-4.406h1.047V12h-4.359v1.672h1.156l-1.609 2.484c-.187.297-.328.531-.328.516h-.031c-.016-.063-.047-.109-.078-.156a2.105 2.105 0 00-.266-.359l-1.656-2.484h1.188v-1.672H6.783v1.672h1.062l2.953 4.25-3.031 4.422H6.705z"/></svg><svg width="24" height="28" viewBox="0 0 24 28" x="616" y="288"><path d="M22.937 5.938c.578.578 1.062 1.734 1.062 2.562v18a1.5 1.5 0 01-1.5 1.5h-21a1.5 1.5 0 01-1.5-1.5v-25a1.5 1.5 0 011.5-1.5h14c.828 0 1.984.484 2.562 1.062zM16 2.125V8h5.875c-.094-.266-.234-.531-.344-.641L16.64 2.468c-.109-.109-.375-.25-.641-.344zM22 26V10h-6.5A1.5 1.5 0 0114 8.5V2H2v24h20zM6.5 22.344V24h5.109v-1.656h-1.453v-2.609h2.141c.672 0 1.281-.031 1.844-.234 1.406-.484 2.281-1.937 2.281-3.641s-.844-3.016-2.141-3.563c-.594-.234-1.313-.297-2.031-.297H6.5v1.672h1.437v8.672H6.5zm5.516-4.375h-1.859v-4.188h1.875c.547 0 .969.094 1.297.281.562.328.875.969.875 1.797 0 .875-.313 1.547-.969 1.875-.328.156-.734.234-1.219.234z"/></svg><svg width="24" height="28" viewBox="0 0 24 28" x="660" y="288"><path d="M22.937 5.938c.578.578 1.062 1.734 1.062 2.562v18a1.5 1.5 0 01-1.5 1.5h-21a1.5 1.5 0 01-1.5-1.5v-25a1.5 1.5 0 011.5-1.5h14c.828 0 1.984.484 2.562 1.062zM16 2.125V8h5.875c-.094-.266-.234-.531-.344-.641L16.64 2.468c-.109-.109-.375-.25-.641-.344zM22 26V10h-6.5A1.5 1.5 0 0114 8.5V2H2v24h20zm-2-7v5H4v-3l3-3 2 2 6-6zM7 16a3.001 3.001 0 010-6 3.001 3.001 0 010 6z"/></svg><svg width="24" height="28" viewBox="0 0 24 28" y="332"><path d="M10 6V4H8v2h2zm2 2V6h-2v2h2zm-2 2V8H8v2h2zm2 2v-2h-2v2h2zm10.937-6.062c.578.578 1.062 1.734 1.062 2.562v18a1.5 1.5 0 01-1.5 1.5h-21a1.5 1.5 0 01-1.5-1.5v-25a1.5 1.5 0 011.5-1.5h14c.828 0 1.984.484 2.562 1.062zM16 2.125V8h5.875c-.094-.266-.234-.531-.344-.641L16.64 2.468c-.109-.109-.375-.25-.641-.344zM22 26V10h-6.5A1.5 1.5 0 0114 8.5V2h-2v2h-2V2H2v24h20zm-9.797-11.266c1.328 4.484 1.672 5.453 1.672 5.453.078.266.125.531.125.812 0 1.734-1.687 3-4 3s-4-1.266-4-3c0-.281.047-.547.125-.812 0 0 .328-.969 1.875-6.188v-2h2v2h1.234c.453 0 .844.297.969.734zM10 22c1.109 0 2-.453 2-1s-.891-1-2-1-2 .453-2 1 .891 1 2 1z"/></svg><svg width="24" height="28" viewBox="0 0 24 28" x="44" y="332"><path d="M22.937 5.938c.578.578 1.062 1.734 1.062 2.562v18a1.5 1.5 0 01-1.5 1.5h-21a1.5 1.5 0 01-1.5-1.5v-25a1.5 1.5 0 011.5-1.5h14c.828 0 1.984.484 2.562 1.062zM16 2.125V8h5.875c-.094-.266-.234-.531-.344-.641L16.64 2.468c-.109-.109-.375-.25-.641-.344zM22 26V10h-6.5A1.5 1.5 0 0114 8.5V2H2v24h20zM9.688 13.281a.513.513 0 01.313.469v8.5a.512.512 0 01-.313.469.77.77 0 01-.187.031.548.548 0 01-.359-.141L6.548 20H4.501a.494.494 0 01-.5-.5v-3c0-.281.219-.5.5-.5h2.047l2.594-2.609a.51.51 0 01.547-.109zm6.515 10.766a.99.99 0 00.781-.375C18.281 22.078 19 20.063 19 18s-.719-4.078-2.016-5.672a1 1 0 10-1.547 1.266C16.453 14.844 17 16.375 17 18s-.547 3.156-1.563 4.406a.98.98 0 00.141 1.406.973.973 0 00.625.234zm-3.297-2.313c.266 0 .531-.109.734-.313a4.985 4.985 0 000-6.844 1.01 1.01 0 00-1.422-.047 1.008 1.008 0 00-.031 1.422c.516.562.812 1.281.812 2.047s-.297 1.484-.812 2.047a1.01 1.01 0 00.031 1.422c.203.172.453.266.688.266z"/></svg><svg width="24" height="28" viewBox="0 0 24 28" x="88" y="332"><path d="M22.937 5.938c.578.578 1.062 1.734 1.062 2.562v18a1.5 1.5 0 01-1.5 1.5h-21a1.5 1.5 0 01-1.5-1.5v-25a1.5 1.5 0 011.5-1.5h14c.828 0 1.984.484 2.562 1.062zM16 2.125V8h5.875c-.094-.266-.234-.531-.344-.641L16.64 2.468c-.109-.109-.375-.25-.641-.344zM22 26V10h-6.5A1.5 1.5 0 0114 8.5V2H2v24h20zM12 12c1.094 0 2 .906 2 2v6c0 1.094-.906 2-2 2H6c-1.094 0-2-.906-2-2v-6c0-1.094.906-2 2-2h6zm7.688.031a.513.513 0 01.313.469v9a.512.512 0 01-.313.469.77.77 0 01-.187.031.518.518 0 01-.359-.141l-4.141-4.156v-1.406l4.141-4.156a.52.52 0 01.359-.141c.063 0 .125.016.187.031z"/></svg><svg width="24" height="28" viewBox="0 0 24 28" x="132" y="332"><path d="M15.188 12.109c0-2.25-1.172-3.594-3.141-3.594-2.594 0-5.375 2.578-5.375 6.75 0 2.328 1.156 3.656 3.187 3.656 3.141 0 5.328-3.594 5.328-6.813zM24 14c0 4.859-3.469 6.687-6.438 6.781-.203 0-.281.016-.5.016-.969 0-1.734-.281-2.219-.828-.297-.344-.469-.781-.516-1.297-.969 1.219-2.656 2.406-4.766 2.406-3.359 0-5.281-2.078-5.281-5.703 0-4.984 3.453-9.031 7.672-9.031 1.828 0 3.297.781 4.078 2.109l.031-.297.172-.875c.016-.125.125-.281.234-.281h1.844c.078 0 .156.109.203.172.047.047.063.172.047.25l-1.875 9.594a3.458 3.458 0 00-.078.75c0 .844.25 1.016.891 1.016 1.062-.031 4.5-.469 4.5-4.781 0-6.078-3.922-10-10-10-5.516 0-10 4.484-10 10s4.484 10 10 10a10.04 10.04 0 006.328-2.25.483.483 0 01.703.063l.641.766a.531.531 0 01.109.375.547.547 0 01-.187.344 12.063 12.063 0 01-7.594 2.703c-6.609 0-12-5.391-12-12s5.391-12 12-12c7.172 0 12 4.828 12 12z"/></svg><svg width="26" height="28" viewBox="0 0 26 28" x="176" y="332"><path d="M13.75 2C12.781 2 12 2.781 12 3.75V14h-.5V5.75c0-.969-.781-1.75-1.75-1.75S8 4.781 8 5.75V18l-2.406-3.203A1.999 1.999 0 004 14c-1.109 0-2 .906-2 2 0 .438.141.859.406 1.203l6 8c.375.5.969.797 1.594.797h10.75a1.52 1.52 0 001.484-1.219l1.188-6.328c.047-.297.078-.609.078-.922V9.75c0-.969-.781-1.75-1.75-1.75S20 8.781 20 9.75V14h-.5V5.75c0-.969-.781-1.75-1.75-1.75S16 4.781 16 5.75V14h-.5V3.75c0-.969-.781-1.75-1.75-1.75zm0-2c1.406 0 2.703.797 3.344 2.063A3.11 3.11 0 0117.75 2a3.76 3.76 0 013.75 3.75v.266c2.172-.125 4 1.547 4 3.734v7.781c0 .438-.047.875-.125 1.297l-1.188 6.312a3.487 3.487 0 01-3.437 2.859H10a4.07 4.07 0 01-3.203-1.594l-6-8A4.041 4.041 0 010 15.999c0-2.203 1.781-4 4-4 .656 0 1.453.156 2 .531V5.749a3.76 3.76 0 013.75-3.75c.219 0 .438.016.656.063A3.755 3.755 0 0113.75-.001z"/></svg><svg width="32" height="28" viewBox="0 0 32 28" x="220" y="332"><path d="M16 17.672C16 19.031 15.109 20 14 20H6c-1.109 0-2-.969-2-2.328 0-2.422.594-5.109 3.062-5.109.766.438 1.797 1.188 2.938 1.188s2.172-.75 2.938-1.188c2.469 0 3.062 2.688 3.062 5.109zm-2.453-8.125c0 1.969-1.594 3.547-3.547 3.547s-3.547-1.578-3.547-3.547C6.453 7.594 8.047 6 10 6s3.547 1.594 3.547 3.547zM28 16.5v1c0 .281-.219.5-.5.5h-9a.494.494 0 01-.5-.5v-1c0-.281.219-.5.5-.5h9c.281 0 .5.219.5.5zm0-3.937v.875a.56.56 0 01-.562.562h-8.875a.56.56 0 01-.562-.562v-.875a.56.56 0 01.562-.562h8.875a.56.56 0 01.562.562zM28 8.5v1c0 .281-.219.5-.5.5h-9a.494.494 0 01-.5-.5v-1c0-.281.219-.5.5-.5h9c.281 0 .5.219.5.5zm2 15v-19c0-.266-.234-.5-.5-.5h-27c-.266 0-.5.234-.5.5v19c0 .266.234.5.5.5H8v-1.5c0-.281.219-.5.5-.5h1c.281 0 .5.219.5.5V24h12v-1.5c0-.281.219-.5.5-.5h1c.281 0 .5.219.5.5V24h5.5c.266 0 .5-.234.5-.5zm2-19v19c0 1.375-1.125 2.5-2.5 2.5h-27A2.507 2.507 0 010 23.5v-19C0 3.125 1.125 2 2.5 2h27C30.875 2 32 3.125 32 4.5z"/></svg><svg width="24" height="24" viewBox="0 0 24 24" y="376"><path d="M23 12l-2.44-2.79.34-3.69-3.61-.82-1.89-3.2L12 2.96 8.6 1.5 6.71 4.69 3.1 5.5l.34 3.7L1 12l2.44 2.79-.34 3.7 3.61.82L8.6 22.5l3.4-1.47 3.4 1.46 1.89-3.19 3.61-.82-.34-3.69L23 12zm-12.91 4.72l-3.8-3.81 1.48-1.48 2.32 2.33 5.85-5.87 1.48 1.48-7.33 7.35z"/></svg><svg width="24" height="24" viewBox="0 0 24 24" x="40" y="376"><path d="M20 2H8c-1.1 0-2 .9-2 2v12c0 1.1.9 2 2 2h12c1.1 0 2-.9 2-2V4c0-1.1-.9-2-2-2zm-7.53 12L9 10.5l1.4-1.41 2.07 2.08L17.6 6 19 7.41 12.47 14zM4 6H2v14c0 1.1.9 2 2 2h14v-2H4V6z"/></svg><svg width="24" height="24" viewBox="0 0 24 24" x="80" y="376"><path d="M20 4v12H8V4h12zm0-2H8c-1.1 0-2 .9-2 2v12c0 1.1.9 2 2 2h12c1.1 0 2-.9 2-2V4c0-1.1-.9-2-2-2zm-7.53 12L9 10.5l1.4-1.41 2.07 2.08L17.6 6 19 7.41 12.47 14zM4 6H2v14c0 1.1.9 2 2 2h14v-2H4V6z"/></svg><svg width="24" height="24" viewBox="0 0 24 24" x="120" y="376"><path d="M12 19.219c2.484 0 4.688-1.313 6-3.234-.047-1.969-4.031-3.094-6-3.094-2.016 0-5.953 1.125-6 3.094 1.313 1.922 3.516 3.234 6 3.234zm0-14.203c-1.641 0-3 1.359-3 3s1.359 3 3 3 3-1.359 3-3-1.359-3-3-3zm0-3c5.531 0 9.984 4.453 9.984 9.984S17.531 21.984 12 21.984 2.016 17.531 2.016 12 6.469 2.016 12 2.016z"/></svg><svg width="24" height="24" viewBox="0 0 24 24" x="160" y="376"><path d="M17.016 12.984v-1.969h-4.031V6.984h-1.969v4.031H6.985v1.969h4.031v4.031h1.969v-4.031h4.031zM12 2.016c5.531 0 9.984 4.453 9.984 9.984S17.531 21.984 12 21.984 2.016 17.531 2.016 12 6.469 2.016 12 2.016z"/></svg><svg width="24" height="24" viewBox="0 0 24 24" x="200" y="376"><path d="M9.984 17.016L18 9l-1.406-1.406-6.609 6.563-2.578-2.578-1.406 1.406zM12 3c-.563 0-.984.422-.984.984s.422 1.031.984 1.031.984-.469.984-1.031S12.562 3 12 3zm6.984 0C20.062 3 21 3.938 21 5.016v13.969c0 1.078-.938 2.016-2.016 2.016H5.015c-1.078 0-2.016-.938-2.016-2.016V5.016C2.999 3.938 3.937 3 5.015 3h4.172C9.609 1.828 10.687.984 12 .984s2.391.844 2.813 2.016h4.172z"/></svg><svg width="24" height="24" viewBox="0 0 24 24" x="240" y="376"><path d="M17.016 15.609L13.407 12l3.609-3.609-1.406-1.406-3.609 3.609-3.609-3.609-1.406 1.406L10.595 12l-3.609 3.609 1.406 1.406 3.609-3.609 3.609 3.609zM12 2.016c5.531 0 9.984 4.453 9.984 9.984S17.531 21.984 12 21.984 2.016 17.531 2.016 12 6.469 2.016 12 2.016z"/></svg><svg width="24" height="24" viewBox="0 0 24 24" x="280" y="376"><path d="M9.984 17.016l9-9-1.406-1.453-7.594 7.594-3.563-3.563L5.015 12zm9-14.016C20.109 3 21 3.938 21 5.016v13.969c0 1.078-.891 2.016-2.016 2.016H5.015c-1.125 0-2.016-.938-2.016-2.016V5.016C2.999 3.938 3.89 3 5.015 3h13.969z"/></svg><svg width="24" height="24" viewBox="0 0 24 24" x="320" y="376"><path d="M9.984 17.016l9-9-1.406-1.453-7.594 7.594-3.563-3.563L5.015 12zm2.016-15c5.531 0 9.984 4.453 9.984 9.984S17.531 21.984 12 21.984 2.016 17.531 2.016 12 6.469 2.016 12 2.016z"/></svg><svg width="24" height="24" viewBox="0 0 24 24" x="360" y="376"><path d="M20.719 7.031l-1.828 1.828-3.75-3.75 1.828-1.828a1.02 1.02 0 011.406 0l2.344 2.344a1.02 1.02 0 010 1.406zM3 17.25L14.063 6.187l3.75 3.75L6.75 21H3v-3.75z"/></svg><svg width="24" height="24" viewBox="0 0 24 24" x="400" y="376"><path d="M17.016 12.984v-1.969H6.985v1.969h10.031zM12 2.016c5.531 0 9.984 4.453 9.984 9.984S17.531 21.984 12 21.984 2.016 17.531 2.016 12 6.469 2.016 12 2.016z"/></svg><svg width="24" height="24" viewBox="0 0 24 24" x="440" y="376"><path d="M3.984 15v-2.016h16.031V15H3.984zm16.032-6v2.016H3.985V9h16.031z"/></svg><svg width="24" height="24" viewBox="0 0 24 24" x="480" y="376"><path d="M16.641 20.344l3.656-3.656-3.656-3.609-3.609 3.656zm-2.625-9.328c-.563 0-1.031.422-1.031.984s.469.984 1.031.984S15 12.562 15 12s-.422-.984-.984-.984zM12 15c.563 0 .984-.422.984-.984s-.422-1.031-.984-1.031-.984.469-.984 1.031.422.984.984.984zm-2.016-2.016c.563 0 1.031-.422 1.031-.984s-.469-.984-1.031-.984S9 11.438 9 12s.422.984.984.984zm-2.671-2.015l3.609-3.656-3.609-3.609L3.657 7.36zM12 9c-.563 0-.984.422-.984.984s.422 1.031.984 1.031.984-.469.984-1.031S12.562 9 12 9zm5.719 3l3.984 3.984a1.02 1.02 0 010 1.406l-4.313 4.359c-.188.188-.422.281-.703.281s-.563-.094-.75-.281l-3.938-3.984-3.984 3.984a1.02 1.02 0 01-1.406 0L2.25 17.39a1.02 1.02 0 010-1.406L6.234 12 2.25 8.062c-.375-.375-.375-1.078 0-1.453l4.359-4.313c.188-.188.469-.281.703-.281.281 0 .516.094.703.281l3.984 3.984 3.938-3.984c.375-.375 1.078-.375 1.453 0l4.313 4.313c.375.375.375 1.078 0 1.453z"/></svg><svg width="24" height="24" viewBox="0 0 24 24" x="520" y="376"><path d="M12.984 9h5.531l-5.531-5.484V9zm3 6.984v-1.969h-3v-3h-1.969v3h-3v1.969h3v3h1.969v-3h3zM14.016 2.016l6 6v12c0 1.078-.938 1.969-2.016 1.969H6c-1.078 0-2.016-.891-2.016-1.969l.047-16.031c0-1.078.891-1.969 1.969-1.969h8.016z"/></svg><svg width="24" height="24" viewBox="0 0 24 24" x="560" y="376"><path d="M2.016 15.984v-1.969h7.969v1.969H2.016zM18 14.016h3.984v1.969H18v4.031h-2.016v-4.031H12v-1.969h3.984V9.985H18v4.031zM14.016 6v2.016h-12V6h12zm0 3.984V12h-12V9.984h12z"/></svg><svg width="24" height="24" viewBox="0 0 24 24" x="600" y="376"><path d="M21.516 11.484l1.5 1.5-6.984 7.031-4.547-4.5 1.5-1.5 3.047 3zm-19.5 4.5v-1.969h7.969v1.969H2.016zm12-9.984v2.016h-12V6h12zm0 3.984V12h-12V9.984h12z"/></svg><svg width="24" height="24" viewBox="0 0 24 24" y="416"><path d="M3.984 11.016v1.969H6v-1.969H3.984zm-1.968 3V9.985h19.969v4.031H2.016zM6 6.984V5.015H3.984v1.969H6zm-3.984-3h19.969v4.031H2.016V3.984zm1.968 13.032v1.969H6v-1.969H3.984zm-1.968 3v-4.031h19.969v4.031H2.016z"/></svg><svg width="32" height="32" viewBox="0 0 32 32" y="456"><path d="M29.334 3H25V1a1 1 0 10-2 0v2h-6V1a1 1 0 10-2 0v2H9V1a1 1 0 10-2 0v2H2.667A2.666 2.666 0 000 5.666v23.667A2.667 2.667 0 002.667 32h26.667A2.666 2.666 0 0032 29.333V5.666A2.665 2.665 0 0029.334 3zM30 29.333a.667.667 0 01-.666.667H2.667A.667.667 0 012 29.333V5.666C2 5.299 2.299 5 2.667 5H7v2a1 1 0 102 0V5h6v2a1 1 0 102 0V5h6v2a1 1 0 102 0V5h4.334c.367 0 .666.299.666.666v23.667zM7 12h4v3H7zm0 5h4v3H7zm0 5h4v3H7zm7 0h4v3h-4zm0-5h4v3h-4zm0-5h4v3h-4zm7 10h4v3h-4zm0-5h4v3h-4zm0-5h4v3h-4z"/></svg></svg>