<svg viewBox="0 0 536 243" xmlns="http://www.w3.org/2000/svg" fill-rule="evenodd" clip-rule="evenodd" stroke-linejoin="round" stroke-miterlimit="2" width="536" height="243"><g><g><g><path d="M-.079.199L.376-.837 1.04.837-.079.199z" fill="url(#_Linear1)" fill-rule="nonzero" transform="scale(68.06464 -68.06464) rotate(89.998 3.22 1.227)"/></g></g><g><g><path d="M.026.21l.309-.422 1.542.424L.026.21z" fill="url(#_Linear2)" fill-rule="nonzero" transform="scale(-54.80928 54.80928) rotate(-75.69 -.677 4.792)"/></g></g><g><g><path d="M-2.722.828h1.947l1.34.625-2.309-3.373-.978 2.748z" fill="url(#_Linear3)" fill-rule="nonzero" transform="scale(-24.82664 24.82664) rotate(48.761 -10.825 -8.649)"/></g></g><g><g><path d="M0 .197l1-.234-.5-.16-.5.394z" fill="url(#_Linear4)" fill-rule="nonzero" transform="scale(-98.81662 98.81662) rotate(-62.489 -.172 3.184)"/></g></g><g><g><path d="M1.012-.228L-.139.006.976.228l.036-.456z" fill="url(#_Linear5)" fill-rule="nonzero" transform="scale(-113.29947 113.29947) rotate(40.701 -1.658 -4.116)"/></g></g><g><g><path d="M8.396 217.37H0v-42.72l8.396-10.447v53.167z" fill="#fff" fill-rule="nonzero"/></g></g><g><g><path d="M144.462 216.206l-.233-.037c-8.27-1.438-13.596-8.017-13.596-18.442v-25.77h-6.912l15.204-19.213v11.212h11.554l-6.492 8h-5.062v25.771c0 8.988 5.533 11.259 11.75 10.863l-6.213 7.616z" fill="#fff" fill-rule="nonzero"/></g></g><g><g><path d="M198.37 185.583c-2.07-8.3-8.983-13.825-16.391-13.825-7.013 0-14.417 5.133-16.592 13.825h32.984zm4.45 22.22s-.037.05-.053.076c-4.5 6.208-11.55 9.595-20.292 9.595-14.617 0-26.071-11.65-26.071-26.562 0-14.708 11.454-26.763 25.575-26.763 13.138 0 25.775 10.863 25.675 28.938h-42.758c1.087 10.562 9.183 16.787 17.579 16.787 6.279 0 10.987-2.625 13.925-7.22.008-.021.033-.055.033-.055l6.388 5.205z" fill="#fff" fill-rule="nonzero"/></g></g><g><g><path d="M259.892 207.38l-.067.092c-4.475 6.225-11.663 10.004-20.18 10.004-14.02 0-25.478-11.845-25.478-26.562 0-14.713 11.458-26.763 25.479-26.763 8.446 0 15.533 3.717 20.029 9.85l.162.23s-5.541 6.787-5.57 6.729a1.82 1.82 0 01-.05-.092c-2.892-5.383-8.063-9.012-14.571-9.012-9.384 0-17.084 8.591-17.084 19.058 0 10.47 7.7 18.862 17.084 18.862 6.008 0 10.829-3.004 13.758-7.604l.063-.096 6.425 5.305z" fill="#fff" fill-rule="nonzero"/></g></g><g><g><path d="M44.633 171.854c8.096 0 12.442 5.73 12.442 13.53v32.182h8.296V185.68c0-12.642-7.113-21.53-19.555-21.53H42.58c-12.442 0-19.554 8.888-19.554 21.53v31.692h8.3v-31.988c0-7.646 4.183-13.283 11.975-13.512l1.333-.017z" fill="#fff" fill-rule="nonzero"/></g></g><g><g><path d="M101.4 185.556l-7.313.05v-.02c-6.737 0-7.316-3.171-7.316-6.83 0-3.954 3.675-6.904 10.391-6.904 6.221 0 12.4.034 12.4.034l6.342-7.721s-6.992-.013-18.742-.013c-13.625 0-19.679 7.117-19.679 14.421 0 9.58 4.225 14.333 16.696 14.333l5.95.088c5.646 0 8.075 3.975 8.075 8.283 0 4.8-3.938 8.271-10.65 8.271-6.22 0-18.87-.104-18.87-.104l-.113 7.954s7.233-.15 18.983-.15c13.63 0 19.937-6.92 19.937-15.787 0-11.292-6.95-15.846-16.091-15.905" fill="#fff" fill-rule="nonzero"/></g></g><g><g><path d="M.391-.068h.656v.135H.223l.168-.135z" fill="url(#_Linear6)" fill-rule="nonzero" transform="matrix(0 63.40172 63.40172 0 425.396 149.091)"/></g></g><g><g><path d="M.495-.388l.676-.041.164.115-.553.034a.35.35 0 01.149.264.397.397 0 01-.388.417.4.4 0 01-.438-.37c-.014-.223.158-.405.39-.419zm.007.128C.339-.25.217-.12.225.024.234.17.37.282.535.272.7.262.821.135.812-.012.803-.157.666-.27.502-.26z" fill="url(#_Linear7)" fill-rule="nonzero" transform="scale(63.4017 -63.4017) rotate(-86.505 1.044 -3.743)"/></g></g><g><g><path d="M.177-.105l.546-.034c.162-.009.271.065.305.189v.001L.913.157C.907.063.863-.014.727-.006L.02.037l.157-.142z" fill="url(#_Linear8)" fill-rule="nonzero" transform="scale(63.4017 -63.4017) rotate(-86.505 1.886 -4.535)"/></g></g><g><g><path d="M.551-.394a.399.399 0 01.432.369.399.399 0 01-.384.419.403.403 0 01-.438-.369.403.403 0 01.39-.419zm.008.131c-.16.01-.284.136-.275.281.009.145.147.256.307.246C.747.255.868.128.859-.018.85-.162.715-.273.559-.263z" fill="url(#_Linear9)" fill-rule="nonzero" transform="scale(63.4017 -63.4017) rotate(-86.505 1.529 -4.199)"/></g></g><g><g><path d="M.652-.346a.402.402 0 01.433.367.376.376 0 01-.135.32L.948.343.861.249.862.248a.247.247 0 00.104-.22C.957-.116.821-.227.66-.217.499-.207.373-.08.382.064a.251.251 0 00.154.217 8.8 8.8 0 01-.098.092L.434.371a.375.375 0 01-.17-.3.403.403 0 01.388-.417z" fill="url(#_Linear10)" fill-rule="nonzero" transform="scale(63.4017 -63.4017) rotate(-86.505 2.379 -4.996)"/></g></g><g><g><path d="M.323.247L.664.103l.281-.12-.649-.186-.009-.142.842.249.161-.069c.123-.053.128-.14.092-.225l.153.11c-.006.097-.07.182-.189.233l-.538.23L.332.39.323.247z" fill="url(#_Linear11)" fill-rule="nonzero" transform="scale(63.4017 -63.4017) rotate(-86.505 2.815 -5.406)"/></g></g></g><defs><linearGradient id="_Linear1" x1="0" y1="0" x2="1" y2="0" gradientUnits="userSpaceOnUse" gradientTransform="matrix(1 0 0 -1 0 0)"><stop offset="0" stop-color="#3b8db5"/><stop offset="1" stop-color="#8ed5f6"/></linearGradient><linearGradient id="_Linear2" x1="0" y1="0" x2="1" y2="0" gradientUnits="userSpaceOnUse" gradientTransform="matrix(1 0 0 -1 0 0)"><stop offset="0" stop-color="#3b8db5"/><stop offset="1" stop-color="#8ed5f6"/></linearGradient><linearGradient id="_Linear3" x1="0" y1="0" x2="1" y2="0" gradientUnits="userSpaceOnUse" gradientTransform="scale(-1 1) rotate(70.637 0 .957)"><stop offset="0" stop-color="#044966"/><stop offset="1" stop-color="#8ed5f6"/></linearGradient><linearGradient id="_Linear4" x1="0" y1="0" x2="1" y2="0" gradientUnits="userSpaceOnUse" gradientTransform="matrix(1 0 0 -1 0 0)"><stop offset="0" stop-color="#3b8db5"/><stop offset="1" stop-color="#8ed5f6"/></linearGradient><linearGradient id="_Linear5" x1="0" y1="0" x2="1" y2="0" gradientUnits="userSpaceOnUse" gradientTransform="matrix(1 0 0 -1 0 0)"><stop offset="0" stop-color="#3b8db5"/><stop offset="1" stop-color="#8ed5f6"/></linearGradient><linearGradient id="_Linear6" x1="0" y1="0" x2="1" y2="0" gradientUnits="userSpaceOnUse" gradientTransform="scale(1 -1) rotate(-3.495 .64 0)"><stop offset="0" stop-color="#3f95bf"/><stop offset="1" stop-color="#138dbf"/></linearGradient><linearGradient id="_Linear7" x1="0" y1="0" x2="1" y2="0" gradientUnits="userSpaceOnUse" gradientTransform="matrix(1 0 0 -1 0 -.014)"><stop offset="0" stop-color="#3f95bf"/><stop offset="1" stop-color="#138dbf"/></linearGradient><linearGradient id="_Linear8" x1="0" y1="0" x2="1" y2="0" gradientUnits="userSpaceOnUse" gradientTransform="matrix(1 0 0 -1 0 .009)"><stop offset="0" stop-color="#3f95bf"/><stop offset="1" stop-color="#138dbf"/></linearGradient><linearGradient id="_Linear9" x1="0" y1="0" x2="1" y2="0" gradientUnits="userSpaceOnUse" gradientTransform="matrix(1 0 0 -1 0 0)"><stop offset="0" stop-color="#3f95bf"/><stop offset="1" stop-color="#138dbf"/></linearGradient><linearGradient id="_Linear10" x1="0" y1="0" x2="1" y2="0" gradientUnits="userSpaceOnUse" gradientTransform="matrix(1 0 0 -1 0 .013)"><stop offset="0" stop-color="#3f95bf"/><stop offset="1" stop-color="#138dbf"/></linearGradient><linearGradient id="_Linear11" x1="0" y1="0" x2="1" y2="0" gradientUnits="userSpaceOnUse" gradientTransform="matrix(1 0 0 -1 0 0)"><stop offset="0" stop-color="#3f95bf"/><stop offset="1" stop-color="#138dbf"/></linearGradient></defs></svg>