<svg viewBox="0 0 540 218" xmlns="http://www.w3.org/2000/svg" fill-rule="evenodd" clip-rule="evenodd" stroke-linejoin="round" stroke-miterlimit="2" width="540" height="218"><g><g><g><path d="M-.079.199L.376-.837 1.04.837-.079.199z" fill="url(#_Linear1)" fill-rule="nonzero" transform="scale(68.06464 -68.06464) rotate(89.998 3.22 1.227)"/></g></g><g><g><path d="M.026.21l.309-.422 1.543.424L.026.21z" fill="url(#_Linear2)" fill-rule="nonzero" transform="scale(-54.80928 54.80928) rotate(-75.69 -.677 4.792)"/></g></g><g><g><path d="M-1.312-.487h.636l1.183-.724L.172.982-1.312-.487z" fill="url(#_Linear3)" fill-rule="nonzero" transform="scale(48.60433 -48.60433) rotate(59.672 4.635 4.08)"/></g></g><g><g><path d="M-.079.409L.997-1.047l.043 2.094L-.079.409z" fill="url(#_Linear4)" fill-rule="nonzero" transform="scale(61.12922 -61.12922) rotate(89.998 3.585 1.482)"/></g></g><g><g><path d="M.026.188L.492-.19l1.386.38L.026.188z" fill="url(#_Linear5)" fill-rule="nonzero" transform="scale(-54.80928 54.80928) rotate(-75.69 -.663 4.781)"/></g></g><g><g opacity=".5"><g><path d="M283.362 77.473l7.171 2.437-7.95 21.55-11.646 61.775-5.366-20.92 17.791-64.842z" fill="#003916" fill-rule="nonzero"/></g></g></g><g><g><path d="M-1.741-.151h.875l1.84-1.046-.647 2.301-2.068-1.255z" fill="url(#_Linear6)" fill-rule="nonzero" transform="scale(41.95155 -41.95155) rotate(73.132 4.88 3.506)"/></g></g><g><g><path d="M0 .197l1-.234-.5-.16-.5.394z" fill="url(#_Linear7)" fill-rule="nonzero" transform="scale(-98.81662 98.81662) rotate(-62.489 -.172 3.184)"/></g></g><g><g><path d="M1.012-.228L-.139.006.976.228l.036-.456z" fill="url(#_Linear8)" fill-rule="nonzero" transform="scale(-113.29947 113.29947) rotate(40.701 -1.658 -4.116)"/></g></g><g><g><path d="M0 3.167h1v-5.09L0-3.167v6.334z" fill="url(#_Linear9)" fill-rule="nonzero" transform="matrix(-8.3938 0 0 8.3938 8.4 191.2)"/></g></g><g><g><path d="M0-.001C0-.25.11-.374.435-.374l-.003.19c-.175 0-.19.083-.19.178 0 .103.095.18.27.18L.835.173 1 .374H.512C.158.374 0 .189 0-.001z" fill="url(#_Linear10)" fill-rule="nonzero" transform="matrix(38.42066 0 0 -38.42066 77.487 178.944)"/></g></g><g><g><path d="M0 .464h.256v-.956c0-.387.198-.63.505-.684l.009-.001.23.282c-.231-.014-.436.07-.436.403v.956h.188l.241.297H.564v.416L0 .464z" fill="url(#_Linear11)" fill-rule="nonzero" transform="matrix(26.9559 0 0 -26.9559 123.729 184.889)"/></g></g><g><g><path d="M0-.002C0-.293.223-.52.509-.52a.47.47 0 01.397.189L.781-.23.78-.231a.303.303 0 00-.271-.141.348.348 0 00-.343.328H1C1.002.308.755.52.499.52A.511.511 0 010-.002zm.499.374c.145 0 .279-.108.32-.27H.175c.043.17.187.27.324.27z" fill="url(#_Linear12)" fill-rule="nonzero" transform="matrix(51.2513 0 0 -51.2513 156.408 191.233)"/></g></g><g><g><path d="M0-.002a.57.57 0 01.557-.581c.186 0 .344.083.442.219L1-.362l-.141.116-.001-.002a.348.348 0 00-.301-.167c-.205 0-.373.184-.373.413 0 .229.168.417.373.417.142 0 .256-.08.319-.197L.877.216C.878.214.999.363.999.363L.995.368a.53.53 0 01-.438.215C.251.583 0 .32 0-.002z" fill="url(#_Linear13)" fill-rule="nonzero" transform="matrix(45.72295 0 0 -45.72295 214.17 191.233)"/></g></g><g><g><path d="M.462.631C.168.631 0 .421 0 .122v-.748h.196v.755c0 .181.099.314.283.32H.51c.191 0 .294-.135.294-.32v-.76H1v.753C1 .421.832.631.538.631H.462z" fill="url(#_Linear14)" fill-rule="nonzero" transform="matrix(42.34212 0 0 -42.34212 23.033 191.274)"/></g></g><g><g><path d="M.366.408L.401.22.554.218C.699.218.761.116.761.005c0-.123-.101-.212-.273-.212l-.485.002L0-.409s.186.004.488.004C.838-.405 1-.227 1 0 1 .29.821.408.586.409L.366.408z" fill="url(#_Linear15)" fill-rule="nonzero" transform="matrix(38.91861 0 0 -38.91861 78.579 201.89)"/></g></g><g><g><path d="M.429-.04h.38v.078H.332L.429-.04z" fill="url(#_Linear16)" fill-rule="nonzero" transform="matrix(0 112.76884 112.76884 0 473.38 126.346)"/></g></g><g><g><path d="M.384.166A.201.201 0 01.288.021a.23.23 0 01.207-.255.23.23 0 01.266.195C.777.089.686.2.553.217l-.387.05-.098-.06.316-.041zm.12-.326C.41-.148.346-.07.357.014c.01.083.093.142.187.13C.637.132.703.052.692-.03.681-.114.599-.172.504-.16z" fill="url(#_Linear17)" fill-rule="nonzero" transform="scale(112.76897 -112.76897) rotate(-82.616 1.226 -2.737)"/></g></g><g><g><path d="M.333.137L.518.113C.587.104.632.052.622-.019.613-.091.557-.131.488-.122l-.279.036.084-.088.185-.023a.186.186 0 01.218.168.188.188 0 01-.168.219l-.28.036.085-.089z" fill="url(#_Linear18)" fill-rule="nonzero" transform="scale(112.76897 -112.76897) rotate(-82.616 .937 -2.483)"/></g></g><g><g><path d="M.589-.226a.23.23 0 01.264.195.23.23 0 01-.205.257C.517.243.397.159.381.031a.232.232 0 01.208-.257zm.01.075C.507-.139.441-.062.452.021c.01.084.094.143.186.131.09-.012.155-.09.144-.173C.771-.104.689-.163.599-.151z" fill="url(#_Linear19)" fill-rule="nonzero" transform="scale(112.76897 -112.76897) rotate(-82.616 1.627 -3.09)"/></g></g><g><g><path d="M.231-.123l.008.061.229-.03c.092-.012.157.028.179.1L.648.01.587.074C.584.018.557-.028.477-.018l-.228.03.005.045-.063.066L.178.021l-.1.013.153-.157z" fill="url(#_Linear20)" fill-rule="nonzero" transform="scale(112.76897 -112.76897) rotate(-82.616 .741 -2.311)"/></g></g><g><g><path d="M.236-.161c.085-.011.132.021.147.131L.39.023c.007.05.045.067.083.062C.516.08.542.041.534-.019a36.488 36.488 0 00-.022-.167l.07-.01.021.168C.618.093.564.157.485.168.385.18.337.124.326.043L.318-.022C.31-.082.281-.083.248-.079c-.035.004-.057.04-.049.1l.015.11-.062.065L.131.03c-.016-.121.04-.183.105-.191z" fill="url(#_Linear21)" fill-rule="nonzero" transform="scale(112.76897 -112.76897) rotate(-82.616 .53 -2.126)"/></g></g></g><defs><linearGradient id="_Linear1" x1="0" y1="0" x2="1" y2="0" gradientUnits="userSpaceOnUse" gradientTransform="matrix(1 0 0 -1 0 0)"><stop offset="0" stop-color="#3b8db5"/><stop offset="1" stop-color="#8ed5f6"/></linearGradient><linearGradient id="_Linear2" x1="0" y1="0" x2="1" y2="0" gradientUnits="userSpaceOnUse" gradientTransform="matrix(1 0 0 -1 0 0)"><stop offset="0" stop-color="#3b8db5"/><stop offset="1" stop-color="#8ed5f6"/></linearGradient><linearGradient id="_Linear3" x1="0" y1="0" x2="1" y2="0" gradientUnits="userSpaceOnUse" gradientTransform="scale(-1 1) rotate(-78.663 0 -.284)"><stop offset="0" stop-color="#044966"/><stop offset=".17" stop-color="#044966"/><stop offset="1" stop-color="#8ed5f6"/></linearGradient><linearGradient id="_Linear4" x1="0" y1="0" x2="1" y2="0" gradientUnits="userSpaceOnUse" gradientTransform="matrix(1 0 0 -1 0 0)"><stop offset="0" stop-color="#515352"/><stop offset="1" stop-color="#a7a9ac"/></linearGradient><linearGradient id="_Linear5" x1="0" y1="0" x2="1" y2="0" gradientUnits="userSpaceOnUse" gradientTransform="matrix(1 0 0 -1 0 0)"><stop offset="0" stop-color="#515352"/><stop offset="1" stop-color="#7d7e7e"/></linearGradient><linearGradient id="_Linear6" x1="0" y1="0" x2="1" y2="0" gradientUnits="userSpaceOnUse" gradientTransform="scale(-1 1) rotate(-87.347 0 -.369)"><stop offset="0" stop-color="#515352"/><stop offset=".03" stop-color="#515352"/><stop offset="1" stop-color="#a6a5a6"/></linearGradient><linearGradient id="_Linear7" x1="0" y1="0" x2="1" y2="0" gradientUnits="userSpaceOnUse" gradientTransform="matrix(1 0 0 -1 0 0)"><stop offset="0" stop-color="#8ed5f6"/><stop offset="1" stop-color="#3b8db5"/></linearGradient><linearGradient id="_Linear8" x1="0" y1="0" x2="1" y2="0" gradientUnits="userSpaceOnUse" gradientTransform="matrix(1 0 0 -1 0 0)"><stop offset="0" stop-color="#3b8db5"/><stop offset="1" stop-color="#8ed5f6"/></linearGradient><linearGradient id="_Linear9" x1="0" y1="0" x2="1" y2="0" gradientUnits="userSpaceOnUse" gradientTransform="matrix(-1 0 0 1 1 0)"><stop offset="0" stop-color="#06303e"/><stop offset="1" stop-color="#030404"/></linearGradient><linearGradient id="_Linear10" x1="0" y1="0" x2="1" y2="0" gradientUnits="userSpaceOnUse" gradientTransform="matrix(1 0 0 -1 0 0)"><stop offset="0" stop-color="#06303e"/><stop offset="1" stop-color="#030404"/></linearGradient><linearGradient id="_Linear11" x1="0" y1="0" x2="1" y2="0" gradientUnits="userSpaceOnUse" gradientTransform="matrix(1 0 0 -1 0 0)"><stop offset="0" stop-color="#06303e"/><stop offset="1" stop-color="#030404"/></linearGradient><linearGradient id="_Linear12" x1="0" y1="0" x2="1" y2="0" gradientUnits="userSpaceOnUse" gradientTransform="matrix(1 0 0 -1 0 0)"><stop offset="0" stop-color="#06303e"/><stop offset="1" stop-color="#030404"/></linearGradient><linearGradient id="_Linear13" x1="0" y1="0" x2="1" y2="0" gradientUnits="userSpaceOnUse" gradientTransform="matrix(1 0 0 -1 0 0)"><stop offset="0" stop-color="#06303e"/><stop offset="1" stop-color="#030404"/></linearGradient><linearGradient id="_Linear14" x1="0" y1="0" x2="1" y2="0" gradientUnits="userSpaceOnUse" gradientTransform="matrix(1 0 0 -1 0 0)"><stop offset="0" stop-color="#06303e"/><stop offset="1" stop-color="#030404"/></linearGradient><linearGradient id="_Linear15" x1="0" y1="0" x2="1" y2="0" gradientUnits="userSpaceOnUse" gradientTransform="matrix(1 0 0 -1 0 0)"><stop offset="0" stop-color="#06303e"/><stop offset="1" stop-color="#030404"/></linearGradient><linearGradient id="_Linear16" x1="0" y1="0" x2="1" y2="0" gradientUnits="userSpaceOnUse" gradientTransform="scale(1 -1) rotate(-7.384 .576 0)"><stop offset="0" stop-color="#a7a5a6"/><stop offset="1" stop-color="#4f4c4d"/></linearGradient><linearGradient id="_Linear17" x1="0" y1="0" x2="1" y2="0" gradientUnits="userSpaceOnUse" gradientTransform="matrix(1 0 0 -1 0 .015)"><stop offset="0" stop-color="#a7a5a6"/><stop offset="1" stop-color="#4f4c4d"/></linearGradient><linearGradient id="_Linear18" x1="0" y1="0" x2="1" y2="0" gradientUnits="userSpaceOnUse" gradientTransform="matrix(1 0 0 -1 0 .013)"><stop offset="0" stop-color="#a7a5a6"/><stop offset="1" stop-color="#4f4c4d"/></linearGradient><linearGradient id="_Linear19" x1="0" y1="0" x2="1" y2="0" gradientUnits="userSpaceOnUse" gradientTransform="matrix(1 0 0 -1 0 0)"><stop offset="0" stop-color="#a7a5a6"/><stop offset="1" stop-color="#4f4c4d"/></linearGradient><linearGradient id="_Linear20" x1="0" y1="0" x2="1" y2="0" gradientUnits="userSpaceOnUse" gradientTransform="matrix(1 0 0 -1 0 0)"><stop offset="0" stop-color="#a7a5a6"/><stop offset="1" stop-color="#4f4c4d"/></linearGradient><linearGradient id="_Linear21" x1="0" y1="0" x2="1" y2="0" gradientUnits="userSpaceOnUse" gradientTransform="matrix(1 0 0 -1 0 0)"><stop offset="0" stop-color="#a7a5a6"/><stop offset="1" stop-color="#4f4c4d"/></linearGradient></defs></svg>