<svg viewBox="0 0 1035 148" xmlns="http://www.w3.org/2000/svg" fill-rule="evenodd" clip-rule="evenodd" stroke-linejoin="round" stroke-miterlimit="2" width="1035" height="148"><g><g><g><path d="M-.079.516l.983-1.882.136 2.733L-.079.516z" fill="url(#_Linear1)" fill-rule="nonzero" transform="scale(29.88115 -29.88115) rotate(89.971 18.362 14.266)"/></g></g><g><g><path d="M.026.358l.525-.716 1.326.561L.026.358z" fill="url(#_Linear2)" fill-rule="nonzero" transform="scale(-29.16282 29.16282) rotate(-75.717 -13.185 23.476)"/></g></g><g><g><path d="M-1.967.613h1.823l1.052.438L-.157-.936-1.967.613z" fill="url(#_Linear3)" fill-rule="nonzero" transform="scale(-24.03559 24.03559) rotate(37.664 -26.458 -55.296)"/></g></g><g><g><path d="M-.326-.323l1.073-.07.577.786-1.65-.716z" fill="url(#_Linear4)" fill-rule="nonzero" transform="scale(49.58674 -49.58674) rotate(71.551 11.148 11.797)"/></g></g><g><g><path d="M-.625-1.067L.704.072l.042.995-1.371-2.134z" fill="url(#_Linear5)" fill-rule="nonzero" transform="scale(35.17258 -35.17258) rotate(37.706 17.562 37.572)"/></g></g><g><g><path d="M0 .151l.497-.279L1-.151 0 .151z" fill="url(#_Linear6)" fill-rule="nonzero" transform="scale(-86.5952 86.5952) rotate(-62.516 -4.19 9.88)"/></g></g><g><g><path d="M1.012-.793L.029.793-.139.196l1.151-.989z" fill="url(#_Linear7)" fill-rule="nonzero" transform="scale(-70.30908 70.30908) rotate(40.674 -7.466 -17.082)"/></g></g><g><g><path d="M-.079-.661l.774-.398.345 2.118-1.119-1.72z" fill="url(#_Linear8)" fill-rule="nonzero" transform="scale(55.55483 -55.55483) rotate(-27.513 7.666 -35.373)"/></g></g><g><g><path d="M8.392 119.966H-.004V77.24l8.396-10.442v53.167z" fill="#fff" fill-rule="nonzero"/></g></g><g><g><path d="M94.171 95.499c-12.47 0-16.695-4.755-16.695-14.33 0-7.304 6.054-14.42 19.679-14.42 11.75 0 18.741.012 18.741.012l-6.341 7.72s-6.18-.032-12.4-.032c-6.717 0-10.392 2.95-10.392 6.9 0 3.658.58 6.833 7.317 6.833" fill="#fff" fill-rule="nonzero"/></g></g><g><g><path d="M144.459 118.802s-.154-.025-.233-.042c-8.271-1.433-13.596-8.012-13.596-18.441V74.552h-6.913l15.209-19.213v11.213h11.55l-6.488 8h-5.062v25.767c0 8.991 5.529 11.266 11.745 10.866l-6.212 7.617z" fill="#fff" fill-rule="nonzero"/></g></g><g><g><path d="M198.363 88.179c-2.07-8.3-8.979-13.825-16.392-13.825-7.008 0-14.416 5.133-16.587 13.825h32.98zm4.45 22.216s-.033.054-.054.08c-4.5 6.208-11.55 9.595-20.292 9.595-14.612 0-26.07-11.654-26.07-26.562 0-14.713 11.458-26.763 25.574-26.763 13.138 0 25.776 10.867 25.68 28.938h-42.759c1.088 10.566 9.184 16.787 17.575 16.787 6.28 0 10.988-2.625 13.925-7.22.009-.021.034-.055.034-.055l6.387 5.2z" fill="#fff" fill-rule="nonzero"/></g></g><g><g><path d="M259.884 109.976l-.067.092c-4.475 6.225-11.658 10.004-20.175 10.004-14.025 0-25.483-11.85-25.483-26.563 0-14.712 11.458-26.762 25.483-26.762 8.446 0 15.53 3.717 20.025 9.85.055.075.163.23.163.23s-5.542 6.787-5.57 6.728c-.018-.033-.034-.058-.05-.091-2.893-5.384-8.063-9.013-14.568-9.013-9.383 0-17.087 8.592-17.087 19.058 0 10.471 7.704 18.863 17.087 18.863 6.005 0 10.825-3.004 13.755-7.6.02-.038.066-.1.066-.1l6.421 5.304z" fill="#fff" fill-rule="nonzero"/></g></g><g><g><path d="M44.63 74.45c8.096 0 12.441 5.729 12.441 13.525v32.187h8.296V88.271c0-12.638-7.112-21.525-19.554-21.525h-3.237c-12.442 0-19.555 8.887-19.555 21.525v31.696h8.3V87.975c0-7.642 4.184-13.28 11.975-13.504l1.334-.021z" fill="#fff" fill-rule="nonzero"/></g></g><g><g><path d="M101.396 88.15c9.138.062 16.088 4.612 16.088 15.908 0 8.863-6.304 15.784-19.933 15.784-11.75 0-18.984.154-18.984.154l.109-7.959s12.654.109 18.875.109c6.712 0 10.65-3.471 10.65-8.275 0-4.304-2.43-8.284-8.08-8.284l-5.945-.087-1.371-7.288 8.591-.062z" fill="#fff" fill-rule="nonzero"/></g></g><g><g><path d="M.58-.185l.419-.064.017.115-.421.065C.47-.05.416.033.435.151L.433.154.348.249.333.198a.272.272 0 01-.01-.046C.298-.011.385-.155.58-.185z" fill="url(#_Linear9)" fill-rule="nonzero" transform="scale(73.8686 -73.8686) rotate(-81.254 3.877 -5.222)"/></g></g><g><g><path d="M.251.461L.782.176V.175L.19.063.17-.063l.531-.285v-.001L.109-.461.09-.587l.759.151.02.127-.516.282.577.115.019.127L.27.587.251.461z" fill="url(#_Linear10)" fill-rule="nonzero" transform="scale(73.8686 -73.8686) rotate(-81.254 3.42 -4.83)"/></g></g><g><g><path d="M.502-.061h.579v.119H.354l.148-.119z" fill="url(#_Linear11)" fill-rule="nonzero" transform="matrix(0 73.8684 73.8684 0 655.06 39.921)"/></g></g><g><g><path d="M.605-.061h.579v.119H.457l.148-.119z" fill="url(#_Linear12)" fill-rule="nonzero" transform="matrix(0 73.8684 73.8684 0 708.722 32.276)"/></g></g><g><g><path d="M-.262.032c-.026-.168.079-.282.25-.308l.427-.066.017.112-.431.066c-.103.016-.171.084-.157.19l.002.018c.017.109.103.156.208.139L.489.117l.017.111-.43.067C-.095.321-.229.243-.255.076L-.262.032z" fill="url(#_Linear13)" fill-rule="nonzero" transform="scale(73.8686 -73.8686) rotate(-81.254 1.678 -3.319)"/></g></g><g><g><path d="M-.192.214L.088.17C.194.154.26.073.243-.035.226-.145.139-.203.033-.187l-.423.066.125-.137.281-.044a.286.286 0 01.339.249.287.287 0 01-.249.34l-.425.065.127-.138z" fill="url(#_Linear14)" fill-rule="nonzero" transform="scale(73.8686 -73.8686) rotate(-81.254 1.274 -2.972)"/></g></g><g><g><path d="M.005.256A.307.307 0 01-.146.037.35.35 0 01.16-.359a.351.351 0 01.412.288C.602.123.467.296.265.327l-.588.091L-.475.33l.48-.074zm.172-.502c-.143.022-.239.142-.219.27.019.126.148.214.29.192C.39.194.487.07.467-.055.448-.182.32-.268.177-.246z" fill="url(#_Linear15)" fill-rule="nonzero" transform="scale(73.8686 -73.8686) rotate(-81.254 2.118 -3.702)"/></g></g><g><g><path d="M.279-.35a.354.354 0 01.412.296.327.327 0 01-.087.294L.603.241.52.165a.213.213 0 00.069-.203.243.243 0 00-.263-.202l.089.576C.171.375-.002.227-.029.05a.358.358 0 01.308-.4zM.074.034c.015.1.104.182.22.193L.226-.218a.24.24 0 00-.152.252z" fill="url(#_Linear16)" fill-rule="nonzero" transform="scale(73.8686 -73.8686) rotate(-81.254 2.582 -4.106)"/></g></g><g><g><path d="M.295-.084l.466-.072.018.115L.317.03C.223.044.189.095.186.156L.07.133C.076.02.155-.063.295-.084z" fill="url(#_Linear17)" fill-rule="nonzero" transform="scale(73.8686 -73.8686) rotate(-81.254 2.921 -4.401)"/></g></g><g><g><path d="M.488-.189l.014.093.348-.053c.141-.022.24.036.277.145a.01.01 0 00.001.003l-.09.1C1.031.014.988-.056.867-.037L.52.016l.01.069-.094.104L.412.033.26.056l.228-.245z" fill="url(#_Linear18)" fill-rule="nonzero" transform="scale(73.8686 -73.8686) rotate(-81.254 4.292 -5.582)"/></g></g><g><g><path d="M.532.032c-.025-.168.08-.282.25-.308l.428-.066.017.112-.432.066c-.103.016-.17.084-.157.19l.003.018C.657.153.744.2.849.183l.434-.066.017.112-.43.066C.7.321.565.243.539.076L.532.032z" fill="url(#_Linear19)" fill-rule="nonzero" transform="scale(73.8686 -73.8686) rotate(-81.254 4.76 -5.985)"/></g></g><g><g><path d="M.961-.343a.35.35 0 01.41.286.305.305 0 01-.079.254l.481-.074-.119.13-.588.091C.864.375.683.25.654.056a.352.352 0 01.307-.399zm.017.113C.834-.208.739-.087.759.04c.019.125.148.214.29.192.142-.022.239-.144.219-.27-.019-.127-.147-.214-.29-.192z" fill="url(#_Linear20)" fill-rule="nonzero" transform="scale(73.8686 -73.8686) rotate(-81.254 5.193 -6.356)"/></g></g></g><defs><linearGradient id="_Linear1" x1="0" y1="0" x2="1" y2="0" gradientUnits="userSpaceOnUse" gradientTransform="matrix(1 0 0 -1 0 0)"><stop offset="0" stop-color="#7f66ad"/><stop offset="1" stop-color="#b291c3"/></linearGradient><linearGradient id="_Linear2" x1="0" y1="0" x2="1" y2="0" gradientUnits="userSpaceOnUse" gradientTransform="matrix(1 0 0 -1 0 0)"><stop offset="0" stop-color="#7f66ad"/><stop offset="1" stop-color="#b291c3"/></linearGradient><linearGradient id="_Linear3" x1="0" y1="0" x2="1" y2="0" gradientUnits="userSpaceOnUse" gradientTransform="scale(-1 1) rotate(77.326 0 .428)"><stop offset="0" stop-color="#493178"/><stop offset="1" stop-color="#b291c3"/></linearGradient><linearGradient id="_Linear4" x1="0" y1="0" x2="1" y2="0" gradientUnits="userSpaceOnUse" gradientTransform="matrix(1 0 0 -1 0 0)"><stop offset="0" stop-color="#7f66ad"/><stop offset="1" stop-color="#b291c3"/></linearGradient><linearGradient id="_Linear5" x1="0" y1="0" x2="1" y2="0" gradientUnits="userSpaceOnUse" gradientTransform="matrix(1 0 0 -1 0 0)"><stop offset="0" stop-color="#493178"/><stop offset=".1" stop-color="#493178"/><stop offset=".77" stop-color="#b291c3"/><stop offset="1" stop-color="#b291c3"/></linearGradient><linearGradient id="_Linear6" x1="0" y1="0" x2="1" y2="0" gradientUnits="userSpaceOnUse" gradientTransform="matrix(1 0 0 -1 0 0)"><stop offset="0" stop-color="#b291c3"/><stop offset="1" stop-color="#7f66ad"/></linearGradient><linearGradient id="_Linear7" x1="0" y1="0" x2="1" y2="0" gradientUnits="userSpaceOnUse" gradientTransform="matrix(1 0 0 -1 0 0)"><stop offset="0" stop-color="#7f66ad"/><stop offset="1" stop-color="#b291c3"/></linearGradient><linearGradient id="_Linear8" x1="0" y1="0" x2="1" y2="0" gradientUnits="userSpaceOnUse" gradientTransform="matrix(1 0 0 -1 0 0)"><stop offset="0" stop-color="#7f66ad"/><stop offset="1" stop-color="#b291c3"/></linearGradient><linearGradient id="_Linear9" x1="0" y1="0" x2="1" y2="0" gradientUnits="userSpaceOnUse" gradientTransform="matrix(1 0 0 -1 0 0)"><stop offset="0" stop-color="#b291c3"/><stop offset="1" stop-color="#7f66ad"/></linearGradient><linearGradient id="_Linear10" x1="0" y1="0" x2="1" y2="0" gradientUnits="userSpaceOnUse" gradientTransform="matrix(1 0 0 -1 0 0)"><stop offset="0" stop-color="#b291c3"/><stop offset="1" stop-color="#7f66ad"/></linearGradient><linearGradient id="_Linear11" x1="0" y1="0" x2="1" y2="0" gradientUnits="userSpaceOnUse" gradientTransform="scale(1 -1) rotate(-8.746 .726 0)"><stop offset="0" stop-color="#b291c3"/><stop offset="1" stop-color="#7f66ad"/></linearGradient><linearGradient id="_Linear12" x1="0" y1="0" x2="1" y2="0" gradientUnits="userSpaceOnUse" gradientTransform="scale(1 -1) rotate(-8.746 .83 0)"><stop offset="0" stop-color="#b291c3"/><stop offset="1" stop-color="#7f66ad"/></linearGradient><linearGradient id="_Linear13" x1="0" y1="0" x2="1" y2="0" gradientUnits="userSpaceOnUse" gradientTransform="matrix(1 0 0 -1 0 -.021)"><stop offset="0" stop-color="#b291c3"/><stop offset="1" stop-color="#7f66ad"/></linearGradient><linearGradient id="_Linear14" x1="0" y1="0" x2="1" y2="0" gradientUnits="userSpaceOnUse" gradientTransform="matrix(1 0 0 -1 0 .023)"><stop offset="0" stop-color="#b291c3"/><stop offset="1" stop-color="#7f66ad"/></linearGradient><linearGradient id="_Linear15" x1="0" y1="0" x2="1" y2="0" gradientUnits="userSpaceOnUse" gradientTransform="matrix(1 0 0 -1 0 .027)"><stop offset="0" stop-color="#b291c3"/><stop offset="1" stop-color="#7f66ad"/></linearGradient><linearGradient id="_Linear16" x1="0" y1="0" x2="1" y2="0" gradientUnits="userSpaceOnUse" gradientTransform="matrix(1 0 0 -1 0 -.006)"><stop offset="0" stop-color="#b291c3"/><stop offset="1" stop-color="#7f66ad"/></linearGradient><linearGradient id="_Linear17" x1="0" y1="0" x2="1" y2="0" gradientUnits="userSpaceOnUse" gradientTransform="matrix(1 0 0 -1 0 0)"><stop offset="0" stop-color="#b291c3"/><stop offset="1" stop-color="#7f66ad"/></linearGradient><linearGradient id="_Linear18" x1="0" y1="0" x2="1" y2="0" gradientUnits="userSpaceOnUse" gradientTransform="matrix(1 0 0 -1 0 0)"><stop offset="0" stop-color="#b291c3"/><stop offset="1" stop-color="#7f66ad"/></linearGradient><linearGradient id="_Linear19" x1="0" y1="0" x2="1" y2="0" gradientUnits="userSpaceOnUse" gradientTransform="matrix(1 0 0 -1 0 -.021)"><stop offset="0" stop-color="#b291c3"/><stop offset="1" stop-color="#7f66ad"/></linearGradient><linearGradient id="_Linear20" x1="0" y1="0" x2="1" y2="0" gradientUnits="userSpaceOnUse" gradientTransform="matrix(1 0 0 -1 0 0)"><stop offset="0" stop-color="#b291c3"/><stop offset="1" stop-color="#7f66ad"/></linearGradient></defs></svg>