<svg viewBox="0 0 724 137" xmlns="http://www.w3.org/2000/svg" fill-rule="evenodd" clip-rule="evenodd" stroke-linejoin="round" stroke-miterlimit="2" width="724" height="137"><g><g><g><path d="M1.04.997L-.079.359.376-.997 1.04.997z" fill="url(#_Linear1)" fill-rule="nonzero" transform="scale(-60.18839 60.18839) rotate(20.276 -7.963 -31.547)"/></g></g><g><g><path d="M1.877.212L.026.21l.309-.422 1.542.424z" fill="url(#_Linear2)" fill-rule="nonzero" transform="scale(-48.46709 48.46709) rotate(34.587 -9.613 -23.135)"/></g></g><g><g><path d="M-2.819 1.078h2.224l1.562.46-3.07-3.293-.716 2.833z" fill="url(#_Linear3)" fill-rule="nonzero" transform="matrix(19.46852 4.2643 4.2643 -19.46852 698.212 101.206)"/></g></g><g><g><path d="M.5-.197l.5.16-1 .234.5-.394z" fill="url(#_Linear4)" fill-rule="nonzero" transform="scale(-87.3823 87.3823) rotate(47.788 -4.892 -8.816)"/></g></g><g><g><path d="M-.139-.31l1.152.173L.977.31-.139-.31z" fill="url(#_Linear5)" fill-rule="nonzero" transform="scale(102.22284 -102.22284) rotate(-29.021 1.56 -11.011)"/></g></g><g><g><path d="M-1.423-.5h5.09v1h-6.334l1.244-1z" fill="url(#_Linear6)" fill-rule="nonzero" transform="matrix(0 8.3938 8.3938 0 4.19 79.947)"/></g></g><g><g><path d="M0-.001C0-.25.11-.374.435-.374l-.003.19c-.175 0-.19.083-.19.178 0 .103.095.18.27.18L.835.173 1 .374H.512C.157.374 0 .189 0-.001z" fill="url(#_Linear7)" fill-rule="nonzero" transform="matrix(38.42066 0 0 -38.42066 77.474 71.882)"/></g></g><g><g><path d="M0 .464h.256v-.956c0-.387.198-.631.505-.684l.008-.001L1-.895C.769-.91.564-.825.564-.492v.956h.188l.241.297H.564v.416L0 .464z" fill="url(#_Linear8)" fill-rule="nonzero" transform="matrix(26.9559 0 0 -26.9559 123.716 77.827)"/></g></g><g><g><path d="M0-.002C0-.293.224-.52.509-.52a.47.47 0 01.396.187l.001.001-.125.102L.78-.231a.303.303 0 00-.271-.141.348.348 0 00-.343.327H1C1.002.308.755.52.499.52A.512.512 0 010-.002zm.499.374c.145 0 .279-.108.32-.27H.175c.043.169.187.27.324.27z" fill="url(#_Linear9)" fill-rule="nonzero" transform="matrix(51.2513 0 0 -51.2513 156.395 84.163)"/></g></g><g><g><path d="M0-.002a.57.57 0 01.557-.581.53.53 0 01.441.218L1-.363l-.141.117-.001-.003a.35.35 0 00-.301-.166c-.205 0-.373.184-.373.413 0 .229.168.416.373.416A.356.356 0 00.876.217L.877.215C.878.214.999.363.999.363L.995.368a.53.53 0 01-.438.215C.25.583 0 .319 0-.002z" fill="url(#_Linear10)" fill-rule="nonzero" transform="matrix(45.72295 0 0 -45.72295 214.157 84.163)"/></g></g><g><g><path d="M.462.631C.168.631 0 .421 0 .122v-.748h.196v.755c0 .181.099.314.283.319L.51.449c.192 0 .294-.135.294-.32v-.76H1v.753C1 .421.832.631.538.631H.462z" fill="url(#_Linear11)" fill-rule="nonzero" transform="matrix(42.34212 0 0 -42.34212 23.02 84.213)"/></g></g><g><g><path d="M.366.408L.401.22.554.218C.699.218.761.116.761.005c0-.123-.101-.213-.273-.213l-.485.003L0-.409s.186.004.488.004C.838-.405 1-.227 1 0 1 .29.821.408.587.409L.366.408z" fill="url(#_Linear12)" fill-rule="nonzero" transform="matrix(38.91861 0 0 -38.91861 78.566 94.832)"/></g></g><g><g><path d="M.112-.058h.565v.116h-.709l.144-.116z" fill="url(#_Linear13)" fill-rule="nonzero" transform="matrix(0 75.07756 75.07756 0 340.433 58.873)"/></g></g><g><g><path d="M.156-.058h.565v.116H.012l.144-.116z" fill="url(#_Linear14)" fill-rule="nonzero" transform="matrix(0 75.07756 75.07756 0 410.316 55.567)"/></g></g><g><g><path d="M-.356-.308l.637-.03c.199-.01.362.129.371.32a.343.343 0 01-.339.356.342.342 0 01-.369-.32.303.303 0 01.103-.238l-.474.023.071-.111zm.643.079c-.14.007-.247.116-.241.24.006.126.121.223.262.216C.45.22.555.113.549-.013.543-.136.427-.235.287-.229z" fill="url(#_Linear15)" fill-rule="nonzero" transform="scale(75.07748 -75.07748) rotate(-87.288 1.579 -2.504)"/></g></g><g><g><path d="M.405-.338a.34.34 0 01.369.319.3.3 0 01-.102.239l.473-.023-.128.114-.58.027C.238.348.076.209.067.018a.342.342 0 01.338-.356zm.005.111C.269-.22.164-.113.17.013c.006.123.122.222.262.215.14-.006.246-.115.24-.239C.667-.137.552-.234.41-.227z" fill="url(#_Linear16)" fill-rule="nonzero" transform="scale(75.07748 -75.07748) rotate(-87.288 2.96 -3.82)"/></g></g><g><g><path d="M-.031-.099l.467-.022c.138-.007.23.058.258.165L.693.045.594.134C.59.053.553-.013.437-.008l-.604.029.136-.12z" fill="url(#_Linear17)" fill-rule="nonzero" transform="scale(75.07748 -75.07748) rotate(-87.288 2.006 -2.912)"/></g></g><g><g><path d="M-.016-.099l.467-.022c.139-.007.23.058.258.165v.001l-.1.089C.606.053.569-.013.453-.008l-.604.029.135-.12z" fill="url(#_Linear18)" fill-rule="nonzero" transform="scale(75.07748 -75.07748) rotate(-87.288 2.18 -3.078)"/></g></g><g><g><path d="M.031-.006C.023-.171.137-.271.305-.279l.421-.02.005.11-.425.02c-.102.005-.174.064-.172.168l.001.018C.14.124.219.179.322.174L.75.153l.005.111-.424.02C.163.292.041.203.033.037L.031-.006z" fill="url(#_Linear19)" fill-rule="nonzero" transform="scale(75.07748 -75.07748) rotate(-87.288 2.576 -3.455)"/></g></g></g><defs><linearGradient id="_Linear1" x1="0" y1="0" x2="1" y2="0" gradientUnits="userSpaceOnUse" gradientTransform="matrix(1 0 0 -1 0 0)"><stop offset="0" stop-color="#298b6b"/><stop offset="1" stop-color="#6cc5a5"/></linearGradient><linearGradient id="_Linear2" x1="0" y1="0" x2="1" y2="0" gradientUnits="userSpaceOnUse" gradientTransform="matrix(1 0 0 -1 0 0)"><stop offset="0" stop-color="#298b6b"/><stop offset="1" stop-color="#6cc5a5"/></linearGradient><linearGradient id="_Linear3" x1="0" y1="0" x2="1" y2="0" gradientUnits="userSpaceOnUse" gradientTransform="scale(-1 1) rotate(79.244 0 .819)"><stop offset="0" stop-color="#0e632b"/><stop offset="1" stop-color="#6cc5a5"/><stop offset="1" stop-color="#6cc5a5"/></linearGradient><linearGradient id="_Linear4" x1="0" y1="0" x2="1" y2="0" gradientUnits="userSpaceOnUse" gradientTransform="matrix(1 0 0 -1 0 0)"><stop offset="0" stop-color="#6cc5a5"/><stop offset="1" stop-color="#298b6b"/></linearGradient><linearGradient id="_Linear5" x1="0" y1="0" x2="1" y2="0" gradientUnits="userSpaceOnUse" gradientTransform="matrix(1 0 0 -1 0 0)"><stop offset="0" stop-color="#298b6b"/><stop offset="1" stop-color="#6cc5a5"/></linearGradient><linearGradient id="_Linear6" x1="0" y1="0" x2="1" y2="0" gradientUnits="userSpaceOnUse" gradientTransform="matrix(0 1 1 0 .5 -.5)"><stop offset="0" stop-color="#06303e"/><stop offset="1" stop-color="#030404"/></linearGradient><linearGradient id="_Linear7" x1="0" y1="0" x2="1" y2="0" gradientUnits="userSpaceOnUse" gradientTransform="matrix(1 0 0 -1 0 0)"><stop offset="0" stop-color="#06303e"/><stop offset="1" stop-color="#030404"/></linearGradient><linearGradient id="_Linear8" x1="0" y1="0" x2="1" y2="0" gradientUnits="userSpaceOnUse" gradientTransform="matrix(1 0 0 -1 0 0)"><stop offset="0" stop-color="#06303e"/><stop offset="1" stop-color="#030404"/></linearGradient><linearGradient id="_Linear9" x1="0" y1="0" x2="1" y2="0" gradientUnits="userSpaceOnUse" gradientTransform="matrix(1 0 0 -1 0 0)"><stop offset="0" stop-color="#06303e"/><stop offset="1" stop-color="#030404"/></linearGradient><linearGradient id="_Linear10" x1="0" y1="0" x2="1" y2="0" gradientUnits="userSpaceOnUse" gradientTransform="matrix(1 0 0 -1 0 0)"><stop offset="0" stop-color="#06303e"/><stop offset="1" stop-color="#030404"/></linearGradient><linearGradient id="_Linear11" x1="0" y1="0" x2="1" y2="0" gradientUnits="userSpaceOnUse" gradientTransform="matrix(1 0 0 -1 0 0)"><stop offset="0" stop-color="#06303e"/><stop offset="1" stop-color="#030404"/></linearGradient><linearGradient id="_Linear12" x1="0" y1="0" x2="1" y2="0" gradientUnits="userSpaceOnUse" gradientTransform="matrix(1 0 0 -1 0 0)"><stop offset="0" stop-color="#06303e"/><stop offset="1" stop-color="#030404"/></linearGradient><linearGradient id="_Linear13" x1="0" y1="0" x2="1" y2="0" gradientUnits="userSpaceOnUse" gradientTransform="scale(1 -1) rotate(-2.712 .323 0)"><stop offset="0" stop-color="#298b6b"/><stop offset="1" stop-color="#269044"/></linearGradient><linearGradient id="_Linear14" x1="0" y1="0" x2="1" y2="0" gradientUnits="userSpaceOnUse" gradientTransform="scale(1 -1) rotate(-2.712 .368 0)"><stop offset="0" stop-color="#298b6b"/><stop offset="1" stop-color="#269044"/></linearGradient><linearGradient id="_Linear15" x1="0" y1="0" x2="1" y2="0" gradientUnits="userSpaceOnUse" gradientTransform="matrix(1 0 0 -1 0 0)"><stop offset="0" stop-color="#298b6b"/><stop offset="1" stop-color="#269044"/></linearGradient><linearGradient id="_Linear16" x1="0" y1="0" x2="1" y2="0" gradientUnits="userSpaceOnUse" gradientTransform="matrix(1 0 0 -1 0 0)"><stop offset="0" stop-color="#298b6b"/><stop offset="1" stop-color="#269044"/></linearGradient><linearGradient id="_Linear17" x1="0" y1="0" x2="1" y2="0" gradientUnits="userSpaceOnUse" gradientTransform="matrix(1 0 0 -1 0 .006)"><stop offset="0" stop-color="#298b6b"/><stop offset="1" stop-color="#269044"/></linearGradient><linearGradient id="_Linear18" x1="0" y1="0" x2="1" y2="0" gradientUnits="userSpaceOnUse" gradientTransform="matrix(1 0 0 -1 0 .006)"><stop offset="0" stop-color="#298b6b"/><stop offset="1" stop-color="#269044"/></linearGradient><linearGradient id="_Linear19" x1="0" y1="0" x2="1" y2="0" gradientUnits="userSpaceOnUse" gradientTransform="matrix(1 0 0 -1 0 -.007)"><stop offset="0" stop-color="#298b6b"/><stop offset="1" stop-color="#269044"/></linearGradient></defs></svg>