<svg viewBox="0 0 725 139" xmlns="http://www.w3.org/2000/svg" fill-rule="evenodd" clip-rule="evenodd" stroke-linejoin="round" stroke-miterlimit="2" width="725" height="139"><g><g><g><path d="M8.392 112.282H-.004V69.557l8.396-10.442v53.167z" fill="#fff" fill-rule="nonzero"/></g></g><g><g><path d="M94.176 87.816c-12.471 0-16.696-4.755-16.696-14.33 0-7.304 6.054-14.42 19.679-14.42 11.75 0 18.742.012 18.742.012l-6.342 7.72s-6.18-.033-12.4-.033c-6.717 0-10.387 2.95-10.387 6.9 0 3.659.575 6.834 7.312 6.834" fill="#fff" fill-rule="nonzero"/></g></g><g><g><path d="M144.46 111.118s-.155-.025-.234-.041c-8.271-1.434-13.596-8.013-13.596-18.442V66.868h-6.913l15.209-19.212v11.212h11.55l-6.488 8h-5.062v25.767c0 8.992 5.529 11.267 11.746 10.867l-6.213 7.616z" fill="#fff" fill-rule="nonzero"/></g></g><g><g><path d="M198.367 80.495c-2.07-8.3-8.979-13.825-16.391-13.825-7.009 0-14.417 5.133-16.588 13.825h32.98zm4.45 22.217s-.033.054-.054.079c-4.5 6.208-11.55 9.596-20.287 9.596-14.617 0-26.075-11.654-26.075-26.563 0-14.712 11.458-26.762 25.575-26.762 13.137 0 25.775 10.866 25.679 28.937h-42.758c1.087 10.567 9.183 16.788 17.579 16.788 6.275 0 10.983-2.625 13.92-7.221.009-.02.034-.054.034-.054l6.387 5.2z" fill="#fff" fill-rule="nonzero"/></g></g><g><g><path d="M259.884 102.293l-.066.092c-4.475 6.225-11.659 10.004-20.176 10.004-14.025 0-25.483-11.85-25.483-26.563 0-14.712 11.458-26.762 25.483-26.762 8.446 0 15.53 3.716 20.026 9.846l.162.233s-5.542 6.788-5.57 6.73c-.017-.034-.03-.06-.05-.092-2.892-5.384-8.063-9.013-14.568-9.013-9.383 0-17.087 8.592-17.087 19.058 0 10.471 7.704 18.863 17.087 18.863 6.005 0 10.826-3.004 13.755-7.604.02-.034.066-.096.066-.096l6.421 5.304z" fill="#fff" fill-rule="nonzero"/></g></g><g><g><path d="M44.63 66.766c8.096 0 12.442 5.73 12.442 13.525v32.188h8.295V80.587c0-12.637-7.108-21.525-19.554-21.525h-3.237c-12.442 0-19.555 8.888-19.555 21.525v31.696h8.3V80.291c0-7.645 4.188-13.279 11.976-13.504l1.333-.02z" fill="#fff" fill-rule="nonzero"/></g></g><g><g><path d="M101.397 80.467c9.137.062 16.091 4.612 16.091 15.908 0 8.863-6.308 15.783-19.937 15.783-11.75 0-18.984.155-18.984.155l.113-7.959s12.65.109 18.87.109c6.713 0 10.65-3.471 10.65-8.275 0-4.309-2.428-8.284-8.074-8.284l-5.95-.087-1.371-7.288 8.592-.062z" fill="#fff" fill-rule="nonzero"/></g></g><g><g><path d="M.112-.058h.565v.116h-.709l.144-.116z" fill="url(#_Linear1)" fill-rule="nonzero" transform="matrix(0 75.07756 75.07756 0 340.443 60.428)"/></g></g><g><g><path d="M.156-.058h.565v.116H.012l.144-.116z" fill="url(#_Linear2)" fill-rule="nonzero" transform="matrix(0 75.07756 75.07756 0 410.326 57.121)"/></g></g><g><g><path d="M-.356-.308l.637-.03c.199-.01.362.129.371.32a.343.343 0 01-.339.356.34.34 0 01-.369-.319.304.304 0 01.103-.239l-.474.023.071-.111zm.643.08C.147-.222.04-.113.046.011c.006.126.121.223.262.216C.45.22.555.113.549-.013.543-.136.427-.235.287-.228z" fill="url(#_Linear3)" fill-rule="nonzero" transform="scale(75.07748 -75.07748) rotate(-87.288 1.568 -2.515)"/></g></g><g><g><path d="M.405-.338a.34.34 0 01.369.32.3.3 0 01-.102.238l.473-.023-.128.114-.58.027C.238.348.076.209.067.018a.343.343 0 01.338-.356zm.005.111C.269-.22.164-.113.17.013c.006.123.122.222.262.216.14-.007.246-.116.241-.24C.667-.137.552-.234.41-.227z" fill="url(#_Linear4)" fill-rule="nonzero" transform="scale(75.07748 -75.07748) rotate(-87.288 2.948 -3.831)"/></g></g><g><g><path d="M-.031-.099l.467-.022c.138-.007.23.058.258.165L.693.045.594.134C.59.053.553-.013.437-.008l-.604.029.136-.12z" fill="url(#_Linear5)" fill-rule="nonzero" transform="scale(75.07748 -75.07748) rotate(-87.288 1.995 -2.922)"/></g></g><g><g><path d="M-.016-.099l.467-.022c.139-.007.23.058.258.165v.001l-.1.089C.606.053.569-.013.453-.008l-.604.029.135-.12z" fill="url(#_Linear6)" fill-rule="nonzero" transform="scale(75.07748 -75.07748) rotate(-87.288 2.17 -3.088)"/></g></g><g><g><path d="M.031-.006C.023-.171.137-.271.305-.279l.421-.02.005.11-.425.02c-.102.005-.174.064-.172.168l.001.018C.14.124.219.179.322.174L.75.153l.005.111-.424.02C.163.292.041.203.033.037L.031-.006z" fill="url(#_Linear7)" fill-rule="nonzero" transform="scale(75.07748 -75.07748) rotate(-87.288 2.565 -3.465)"/></g></g><g><g><path d="M1.04.997L-.079.359.376-.997 1.04.997z" fill="url(#_Linear8)" fill-rule="nonzero" transform="scale(-60.18839 60.18839) rotate(20.276 -7.967 -31.569)"/></g></g><g><g><path d="M1.878.212L.026.209l.309-.421 1.543.424z" fill="url(#_Linear9)" fill-rule="nonzero" transform="scale(-48.46709 48.46709) rotate(34.587 -9.618 -23.15)"/></g></g><g><g><path d="M-2.819 1.078h2.224l1.562.46-3.071-3.293-.715 2.833z" fill="url(#_Linear10)" fill-rule="nonzero" transform="scale(19.93007 -19.93007) rotate(-12.344 -5.95 -164.624)"/></g></g><g><g><path d="M.5-.197l.5.16-1 .234.5-.394z" fill="url(#_Linear11)" fill-rule="nonzero" transform="scale(-87.3823 87.3823) rotate(47.788 -4.895 -8.822)"/></g></g><g><g><path d="M-.139-.31l1.152.173L.977.31-.139-.31z" fill="url(#_Linear12)" fill-rule="nonzero" transform="scale(102.22284 -102.22284) rotate(-29.021 1.563 -11.02)"/></g></g></g><defs><linearGradient id="_Linear1" x1="0" y1="0" x2="1" y2="0" gradientUnits="userSpaceOnUse" gradientTransform="scale(1 -1) rotate(-2.712 .325 0)"><stop offset="0" stop-color="#298b6b"/><stop offset="1" stop-color="#269044"/></linearGradient><linearGradient id="_Linear2" x1="0" y1="0" x2="1" y2="0" gradientUnits="userSpaceOnUse" gradientTransform="scale(1 -1) rotate(-2.712 .37 0)"><stop offset="0" stop-color="#298b6b"/><stop offset="1" stop-color="#269044"/></linearGradient><linearGradient id="_Linear3" x1="0" y1="0" x2="1" y2="0" gradientUnits="userSpaceOnUse" gradientTransform="matrix(1 0 0 -1 0 0)"><stop offset="0" stop-color="#298b6b"/><stop offset="1" stop-color="#269044"/></linearGradient><linearGradient id="_Linear4" x1="0" y1="0" x2="1" y2="0" gradientUnits="userSpaceOnUse" gradientTransform="matrix(1 0 0 -1 0 0)"><stop offset="0" stop-color="#298b6b"/><stop offset="1" stop-color="#269044"/></linearGradient><linearGradient id="_Linear5" x1="0" y1="0" x2="1" y2="0" gradientUnits="userSpaceOnUse" gradientTransform="matrix(1 0 0 -1 0 .006)"><stop offset="0" stop-color="#298b6b"/><stop offset="1" stop-color="#269044"/></linearGradient><linearGradient id="_Linear6" x1="0" y1="0" x2="1" y2="0" gradientUnits="userSpaceOnUse" gradientTransform="matrix(1 0 0 -1 0 .006)"><stop offset="0" stop-color="#298b6b"/><stop offset="1" stop-color="#269044"/></linearGradient><linearGradient id="_Linear7" x1="0" y1="0" x2="1" y2="0" gradientUnits="userSpaceOnUse" gradientTransform="matrix(1 0 0 -1 0 -.008)"><stop offset="0" stop-color="#298b6b"/><stop offset="1" stop-color="#269044"/></linearGradient><linearGradient id="_Linear8" x1="0" y1="0" x2="1" y2="0" gradientUnits="userSpaceOnUse" gradientTransform="matrix(1 0 0 -1 0 0)"><stop offset="0" stop-color="#298b6b"/><stop offset="1" stop-color="#6cc5a5"/></linearGradient><linearGradient id="_Linear9" x1="0" y1="0" x2="1" y2="0" gradientUnits="userSpaceOnUse" gradientTransform="matrix(1 0 0 -1 0 0)"><stop offset="0" stop-color="#298b6b"/><stop offset="1" stop-color="#6cc5a5"/></linearGradient><linearGradient id="_Linear10" x1="0" y1="0" x2="1" y2="0" gradientUnits="userSpaceOnUse" gradientTransform="scale(-1 1) rotate(79.255 0 .819)"><stop offset="0" stop-color="#0e632b"/><stop offset="1" stop-color="#6cc5a5"/><stop offset="1" stop-color="#6cc5a5"/></linearGradient><linearGradient id="_Linear11" x1="0" y1="0" x2="1" y2="0" gradientUnits="userSpaceOnUse" gradientTransform="matrix(1 0 0 -1 0 0)"><stop offset="0" stop-color="#6cc5a5"/><stop offset="1" stop-color="#298b6b"/></linearGradient><linearGradient id="_Linear12" x1="0" y1="0" x2="1" y2="0" gradientUnits="userSpaceOnUse" gradientTransform="matrix(1 0 0 -1 0 0)"><stop offset="0" stop-color="#298b6b"/><stop offset="1" stop-color="#6cc5a5"/></linearGradient></defs></svg>