<svg viewBox="0 0 666 140" xmlns="http://www.w3.org/2000/svg" fill-rule="evenodd" clip-rule="evenodd" stroke-linejoin="round" stroke-miterlimit="2" width="666" height="140"><g><g><g><path d="M-.079.199L.376-.837 1.04.837-.079.199z" fill="url(#_Linear1)" fill-rule="nonzero" transform="scale(58.23421 -58.23421) rotate(89.998 6.188 4.193)"/></g></g><g><g><path d="M.026.21l.309-.422 1.542.424L.026.21z" fill="url(#_Linear2)" fill-rule="nonzero" transform="scale(-46.89327 46.89327) rotate(-75.69 -4.361 9.534)"/></g></g><g><g><path d="M-1.312-.487h.636l1.183-.724L.172.982-1.312-.487z" fill="url(#_Linear3)" fill-rule="nonzero" transform="scale(41.58441 -41.58441) rotate(59.676 8.79 11.324)"/></g></g><g><g><path d="M-.079.409L.997-1.047l.043 2.094L-.079.409z" fill="url(#_Linear4)" fill-rule="nonzero" transform="scale(52.30046 -52.30046) rotate(89.998 6.888 4.786)"/></g></g><g><g><path d="M.026.188L.492-.19l1.385.38L.026.188z" fill="url(#_Linear5)" fill-rule="nonzero" transform="scale(-46.89327 46.89327) rotate(-75.69 -4.347 9.523)"/></g></g><g><g opacity=".5"><g><path d="M587.98 66.284l6.137 2.083-6.8 18.438-9.97 52.854-4.588-17.9 15.22-55.475z" fill="#003916" fill-rule="nonzero"/></g></g></g><g><g><path d="M-1.741-.151h.874L.974-1.197.327 1.104-1.741-.151z" fill="url(#_Linear6)" fill-rule="nonzero" transform="scale(35.89255 -35.89255) rotate(73.139 9.693 9.994)"/></g></g><g><g><path d="M0 .197l.5-.394.5.16-1 .234z" fill="url(#_Linear7)" fill-rule="nonzero" transform="scale(-84.54494 84.54494) rotate(-62.489 -2.215 6.552)"/></g></g><g><g><path d="M1.013-.228L.976.228-.139.006l1.152-.234z" fill="url(#_Linear8)" fill-rule="nonzero" transform="scale(-96.93574 96.93574) rotate(40.701 -3.44 -8.921)"/></g></g><g><g><path d="M8.404 126.961H.008v-42.72l8.396-10.443v53.163z" fill="#fff" fill-rule="nonzero"/></g></g><g><g><path d="M94.187 102.496c-12.47 0-16.695-4.754-16.695-14.33 0-7.308 6.054-14.42 19.679-14.42 11.75 0 18.741.012 18.741.012l-6.341 7.721s-6.175-.033-12.4-.033c-6.717 0-10.388 2.95-10.388 6.904 0 3.654.575 6.83 7.317 6.83" fill="#fff" fill-rule="nonzero"/></g></g><g><g><path d="M144.47 125.8s-.153-.026-.233-.042c-8.266-1.434-13.591-8.013-13.591-18.438V81.55h-6.917l15.208-19.213v11.212h11.55l-6.487 8h-5.063v25.771c0 8.983 5.53 11.258 11.75 10.863l-6.216 7.616z" fill="#fff" fill-rule="nonzero"/></g></g><g><g><path d="M198.383 95.174c-2.075-8.296-8.983-13.825-16.396-13.825-7.008 0-14.416 5.133-16.587 13.825h32.983zm4.446 22.22s-.033.05-.054.076c-4.496 6.208-11.546 9.6-20.288 9.6-14.616 0-26.07-11.654-26.07-26.563 0-14.712 11.454-26.762 25.57-26.762 13.138 0 25.775 10.862 25.68 28.933h-42.759c1.088 10.567 9.184 16.792 17.58 16.792 6.279 0 10.983-2.625 13.92-7.225.013-.017.034-.054.034-.054l6.387 5.204z" fill="#fff" fill-rule="nonzero"/></g></g><g><g><path d="M259.896 116.973l-.067.092c-4.475 6.225-11.658 10.004-20.175 10.004-14.025 0-25.479-11.846-25.479-26.562 0-14.713 11.454-26.763 25.48-26.763 8.445 0 15.528 3.717 20.024 9.85.059.075.167.225.167.225s-5.542 6.792-5.575 6.734l-.046-.092c-2.896-5.383-8.067-9.013-14.57-9.013-9.384 0-17.088 8.592-17.088 19.059 0 10.466 7.704 18.862 17.087 18.862 6.004 0 10.825-3.004 13.754-7.604.021-.033.067-.096.067-.096l6.42 5.304z" fill="#fff" fill-rule="nonzero"/></g></g><g><g><path d="M44.646 81.447c8.091 0 12.437 5.73 12.437 13.525v32.188h8.3V95.268c0-12.637-7.112-21.525-19.558-21.525h-3.233c-12.442 0-19.559 8.888-19.559 21.525v31.692h8.3V94.972c0-7.641 4.188-13.283 11.98-13.508l1.333-.017z" fill="#fff" fill-rule="nonzero"/></g></g><g><g><path d="M101.408 95.15c9.138.058 16.092 4.612 16.092 15.904 0 8.867-6.308 15.787-19.938 15.787-11.75 0-18.983.15-18.983.15l.113-7.954s12.65.104 18.87.104c6.713 0 10.65-3.47 10.65-8.27 0-4.309-2.429-8.284-8.075-8.284l-5.95-.091-1.37-7.288 8.591-.058z" fill="#fff" fill-rule="nonzero"/></g></g><g><g><path d="M.429-.04h.38v.078H.332L.429-.04z" fill="url(#_Linear9)" fill-rule="nonzero" transform="matrix(0 112.76884 112.76884 0 473.375 35.525)"/></g></g><g><g><path d="M.384.166A.201.201 0 01.288.021a.23.23 0 01.207-.255.23.23 0 01.266.195C.777.089.686.2.553.217l-.387.05-.098-.06.316-.041zm.12-.326C.41-.148.346-.07.356.014c.011.083.094.142.188.13C.637.132.703.052.692-.03.681-.114.599-.172.504-.16z" fill="url(#_Linear10)" fill-rule="nonzero" transform="scale(112.76897 -112.76897) rotate(-82.616 1.684 -2.334)"/></g></g><g><g><path d="M.333.137L.518.113C.587.104.632.052.622-.019.613-.091.557-.131.487-.122l-.278.036.084-.088.185-.023a.186.186 0 01.218.168.188.188 0 01-.168.219l-.28.036.085-.089z" fill="url(#_Linear11)" fill-rule="nonzero" transform="scale(112.76897 -112.76897) rotate(-82.616 1.395 -2.08)"/></g></g><g><g><path d="M.589-.226a.23.23 0 01.264.195.23.23 0 01-.205.257C.517.243.397.159.381.031a.232.232 0 01.208-.257zm.01.075C.507-.139.441-.062.451.021c.011.084.095.143.187.131.09-.012.155-.09.144-.173C.771-.104.689-.163.599-.151z" fill="url(#_Linear12)" fill-rule="nonzero" transform="scale(112.76897 -112.76897) rotate(-82.616 2.085 -2.686)"/></g></g><g><g><path d="M.231-.123l.008.061.229-.03c.092-.012.157.028.179.1L.648.01.587.074C.584.018.557-.028.477-.018l-.228.03.005.045-.063.066L.178.021l-.1.013.153-.157z" fill="url(#_Linear13)" fill-rule="nonzero" transform="scale(112.76897 -112.76897) rotate(-82.616 1.2 -1.908)"/></g></g><g><g><path d="M.236-.161c.085-.011.132.021.147.131L.39.023c.007.05.045.067.083.062C.516.08.542.041.534-.019a36.488 36.488 0 00-.022-.167l.07-.01.021.168C.618.093.564.157.485.168.385.181.337.124.326.043L.318-.022C.31-.082.281-.083.248-.079c-.035.005-.057.041-.049.1l.015.11-.062.065L.131.03c-.016-.121.04-.183.105-.191z" fill="url(#_Linear14)" fill-rule="nonzero" transform="scale(112.76897 -112.76897) rotate(-82.616 .989 -1.723)"/></g></g></g><defs><linearGradient id="_Linear1" x1="0" y1="0" x2="1" y2="0" gradientUnits="userSpaceOnUse" gradientTransform="matrix(1 0 0 -1 0 0)"><stop offset="0" stop-color="#3b8db5"/><stop offset="1" stop-color="#8ed5f6"/></linearGradient><linearGradient id="_Linear2" x1="0" y1="0" x2="1" y2="0" gradientUnits="userSpaceOnUse" gradientTransform="matrix(1 0 0 -1 0 0)"><stop offset="0" stop-color="#3b8db5"/><stop offset="1" stop-color="#8ed5f6"/></linearGradient><linearGradient id="_Linear3" x1="0" y1="0" x2="1" y2="0" gradientUnits="userSpaceOnUse" gradientTransform="scale(-1 1) rotate(-78.659 0 -.284)"><stop offset="0" stop-color="#044966"/><stop offset=".17" stop-color="#044966"/><stop offset="1" stop-color="#8ed5f6"/></linearGradient><linearGradient id="_Linear4" x1="0" y1="0" x2="1" y2="0" gradientUnits="userSpaceOnUse" gradientTransform="matrix(1 0 0 -1 0 0)"><stop offset="0" stop-color="#515352"/><stop offset="1" stop-color="#a7a9ac"/></linearGradient><linearGradient id="_Linear5" x1="0" y1="0" x2="1" y2="0" gradientUnits="userSpaceOnUse" gradientTransform="matrix(1 0 0 -1 0 0)"><stop offset="0" stop-color="#515352"/><stop offset="1" stop-color="#7d7e7e"/></linearGradient><linearGradient id="_Linear6" x1="0" y1="0" x2="1" y2="0" gradientUnits="userSpaceOnUse" gradientTransform="scale(-1 1) rotate(-87.34 0 -.37)"><stop offset="0" stop-color="#515352"/><stop offset=".03" stop-color="#515352"/><stop offset="1" stop-color="#a6a5a6"/></linearGradient><linearGradient id="_Linear7" x1="0" y1="0" x2="1" y2="0" gradientUnits="userSpaceOnUse" gradientTransform="matrix(1 0 0 -1 0 0)"><stop offset="0" stop-color="#8ed5f6"/><stop offset="1" stop-color="#3b8db5"/></linearGradient><linearGradient id="_Linear8" x1="0" y1="0" x2="1" y2="0" gradientUnits="userSpaceOnUse" gradientTransform="matrix(1 0 0 -1 0 0)"><stop offset="0" stop-color="#3b8db5"/><stop offset="1" stop-color="#8ed5f6"/></linearGradient><linearGradient id="_Linear9" x1="0" y1="0" x2="1" y2="0" gradientUnits="userSpaceOnUse" gradientTransform="scale(1 -1) rotate(-7.384 .575 0)"><stop offset="0" stop-color="#a7a5a6"/><stop offset="1" stop-color="#4f4c4d"/></linearGradient><linearGradient id="_Linear10" x1="0" y1="0" x2="1" y2="0" gradientUnits="userSpaceOnUse" gradientTransform="matrix(1 0 0 -1 0 .015)"><stop offset="0" stop-color="#a7a5a6"/><stop offset="1" stop-color="#4f4c4d"/></linearGradient><linearGradient id="_Linear11" x1="0" y1="0" x2="1" y2="0" gradientUnits="userSpaceOnUse" gradientTransform="matrix(1 0 0 -1 0 .013)"><stop offset="0" stop-color="#a7a5a6"/><stop offset="1" stop-color="#4f4c4d"/></linearGradient><linearGradient id="_Linear12" x1="0" y1="0" x2="1" y2="0" gradientUnits="userSpaceOnUse" gradientTransform="matrix(1 0 0 -1 0 0)"><stop offset="0" stop-color="#a7a5a6"/><stop offset="1" stop-color="#4f4c4d"/></linearGradient><linearGradient id="_Linear13" x1="0" y1="0" x2="1" y2="0" gradientUnits="userSpaceOnUse" gradientTransform="matrix(1 0 0 -1 0 0)"><stop offset="0" stop-color="#a7a5a6"/><stop offset="1" stop-color="#4f4c4d"/></linearGradient><linearGradient id="_Linear14" x1="0" y1="0" x2="1" y2="0" gradientUnits="userSpaceOnUse" gradientTransform="matrix(1 0 0 -1 0 0)"><stop offset="0" stop-color="#a7a5a6"/><stop offset="1" stop-color="#4f4c4d"/></linearGradient></defs></svg>