<svg viewBox="0 0 165 165" xmlns="http://www.w3.org/2000/svg" fill-rule="evenodd" clip-rule="evenodd" stroke-linejoin="round" stroke-miterlimit="2" width="165" height="165"><g><path fill="none" d="M0 0h164.1v164.071H0z"/><g><path d="M-.079.199L.376-.837 1.04.837-.079.199z" fill="url(#_Linear1)" fill-rule="nonzero" transform="matrix(.00219 -68.06427 -68.06446 -.00219 81.101 136.018)"/></g><g><path d="M.026.21l.309-.422 1.543.424L.026.21z" fill="url(#_Linear2)" fill-rule="nonzero" transform="matrix(-13.54669 -53.10883 -53.10888 13.54672 60.834 162.07)"/></g><g><path d="M-2.722.828h1.947l1.339.625-2.308-3.374-.978 2.749z" fill="url(#_Linear3)" fill-rule="nonzero" transform="matrix(-16.36695 18.66774 18.66777 16.36688 31.465 129.208)"/></g><g><path d="M0 .197l.5-.394.5.16-1 .234z" fill="url(#_Linear4)" fill-rule="nonzero" transform="matrix(-45.64472 -87.64263 -87.64311 45.64472 66.58 154.546)"/></g><g><path d="M1.012-.228L.976.228-.139.006l1.151-.234z" fill="url(#_Linear5)" fill-rule="nonzero" transform="matrix(-85.89404 73.88426 73.88408 85.8944 127.98 10.026)"/></g></g><defs><linearGradient id="_Linear1" x1="0" y1="0" x2="1" y2="0" gradientUnits="userSpaceOnUse" gradientTransform="matrix(1 0 0 -1 0 0)"><stop offset="0" stop-color="#3b8db5"/><stop offset="1" stop-color="#8ed5f6"/></linearGradient><linearGradient id="_Linear2" x1="0" y1="0" x2="1" y2="0" gradientUnits="userSpaceOnUse" gradientTransform="matrix(1 0 0 -1 0 0)"><stop offset="0" stop-color="#3b8db5"/><stop offset="1" stop-color="#8ed5f6"/></linearGradient><linearGradient id="_Linear3" x1="0" y1="0" x2="1" y2="0" gradientUnits="userSpaceOnUse" gradientTransform="scale(-1 1) rotate(70.634 0 .957)"><stop offset="0" stop-color="#044966"/><stop offset="1" stop-color="#8ed5f6"/></linearGradient><linearGradient id="_Linear4" x1="0" y1="0" x2="1" y2="0" gradientUnits="userSpaceOnUse" gradientTransform="matrix(1 0 0 -1 0 0)"><stop offset="0" stop-color="#3b8db5"/><stop offset="1" stop-color="#8ed5f6"/></linearGradient><linearGradient id="_Linear5" x1="0" y1="0" x2="1" y2="0" gradientUnits="userSpaceOnUse" gradientTransform="matrix(1 0 0 -1 0 0)"><stop offset="0" stop-color="#3b8db5"/><stop offset="1" stop-color="#8ed5f6"/></linearGradient></defs></svg>